{
.appVersion = "3192";
.formatVersion = 3;
axes = (
{
name = Weight;
tag = wght;
},
{
name = Width;
tag = wdth;
}
);
classes = (
{
automatic = 1;
code = "A A.alt Aacute Abreve Acircumflex Acircumflexhookabove Adieresis Agrave Amacron Aogonek Aring Atilde AE B C Cacute Ccaron Ccedilla Cdotaccent D Eth Dcaron Dcroat E Eacute Ecaron Ecircumflex Edieresis Edotaccent Egrave Emacron Eogonek F G Gbreve Gcommaaccent Gdotaccent H Hbar I Iacute Icircumflex Idieresis Idotaccent Igrave Imacron Iogonek J K Kcommaaccent L Lacute Lcaron Lcommaaccent Ldot Lslash M N Nacute Ncaron Ncommaaccent Eng Ntilde O Oacute Ocircumflex Odieresis Ograve Ohungarumlaut Omacron Oslash Otilde OE P Thorn Q Q.swsh R R.swsh Racute Rcaron Rcommaaccent S Sacute Scaron Scedilla Scommaaccent Germandbls T Tbar Tcaron Tcedilla Tcommaaccent U Uacute Ucircumflex Udieresis Ugrave Uhungarumlaut Umacron Uogonek Uring V W Wacute Wcircumflex Wdieresis Wgrave X Y Yacute Ycircumflex Ydieresis Ygrave Z Zacute Zcaron Zdotaccent Delta Omega";
name = Uppercase;
}
);
customParameters = (
{
name = fsType;
value = (
);
},
{
name = "Use Typo Metrics";
value = 1;
},
{
name = "Axis Mappings";
value = {
wdth = {
100 = 100;
125 = 125;
};
wght = {
200 = 200;
300 = 310;
400 = 530;
500 = 570;
600 = 615;
700 = 660;
800 = 800;
};
};
}
);
date = "2016-04-30 17:56:16 +0000";
familyName = BioRhyme;
featurePrefixes = (
{
automatic = 1;
code = "languagesystem DFLT dflt;

languagesystem latn dflt;
languagesystem latn AZE;
languagesystem latn CRT;
languagesystem latn KAZ;
languagesystem latn TAT;
languagesystem latn TRK;
languagesystem latn ROM;
languagesystem latn MOL;
languagesystem latn CAT;
";
name = Languagesystems;
}
);
features = (
{
automatic = 1;
code = "feature locl;
feature sups;
feature numr;
feature dnom;
feature frac;
feature ordn;
feature swsh;
feature ss01;
feature ss02;
feature ss03;
feature ss04;
feature ss05;
feature ss06;
feature ss07;
feature ss08;
feature mgrk;
feature zero;
feature case;
";
tag = aalt;
},
{

glyphs = (
{
glyphname = A;
kernLeft = A;
kernRight = A;
lastChange = "2023-05-31 13:55:09 +0000";
layers = (
{
anchors = (
{
name = bottom;
pos = (678,0);
},
{
name = hook;
pos = (796,772);
},
{
name = ogonek;
pos = (1159,0);
},
{
name = top;
pos = (677,686);
}
);
background = {
anchors = (
{
name = bottom;
pos = (678,0);
},
{
name = hook;
pos = (796,772);
},
{
name = ogonek;
pos = (1159,0);
},
{
name = top;
pos = (677,686);
}
);
shapes = (
{
closed = 1;
nodes = (
(237,18,l),
(679,662,l),
(674,662,l),
(1117,18,l),
(1155,18,l),
(701,673,ls),
(651,673,l),
(198,18,l)
);
},
{
closed = 1;
nodes = (
(441,0,l),
(441,31,l),
(-7,31,l),
(-7,0,l)
);
},
{
closed = 1;
nodes = (
(965,263,l),
(943,293,l),
(407,293,l),
(383,263,l)
);
},
{
closed = 1;
nodes = (
(1359,0,l),
(1359,31,l),
(912,31,l),
(912,0,l)
);
},
{
closed = 1;
nodes = (
(924,656,l),
(924,686,l),
(428,686,l),
(428,656,l)
);
}
);
};
layerId = "B29C398E-974A-40D0-A0A0-00935056D4B4";
shapes = (
{
closed = 1;
nodes = (
(237,18,l),
(679,662,l),
(674,662,l),
(1117,18,l),
(1155,18,l),
(701,673,ls),
(651,673,l),
(198,18,l)
);
},
{
closed = 1;
nodes = (
(441,0,l),
(441,31,l),
(-7,31,l),
(-7,0,l)
);
},
{
closed = 1;
nodes = (
(965,263,l),
(943,293,l),
(407,293,l),
(383,263,l)
);
},
{
closed = 1;
nodes = (
(1359,0,l),
(1359,31,l),
(912,31,l),
(912,0,l)
);
},
{
closed = 1;
nodes = (
(924,656,l),
(924,686,l),
(428,686,l),
(428,656,l)
);
}
);
width = 1352;
},
{
anchors = (
{
name = bottom;
pos = (435,0);
},
{
name = hook;
pos = (535,766);
},
{
name = ogonek;
pos = (770,18);
},
{
name = top;
pos = (436,686);
}
);
background = {
anchors = (
{
name = bottom;
pos = (435,0);
},
{
name = hook;
pos = (535,766);
},
{
name = ogonek;
pos = (770,18);
},
{
name = top;
pos = (436,686);
}
);
shapes = (
{
closed = 1;
nodes = (
(158,18,l),
(431,662,l),
(440,662,l),
(713,18,l),
(750,18,l),
(462,673,ls),
(409,673,l),
(125,18,l)
);
},
{
closed = 1;
nodes = (
(296,0,l),
(296,31,l),
(-7,31,l),
(-7,0,l)
);
},
{
closed = 1;
nodes = (
(634,262,l),
(612,293,l),
(260,293,l),
(237,262,l)
);
},
{
closed = 1;
nodes = (
(880,0,l),
(880,31,l),
(580,31,l),
(580,0,l)
);
},
{
closed = 1;
nodes = (
(612,656,l),
(612,686,l),
(260,686,l),
(260,656,l)
);
}
);
};
layerId = "543F9737-16F7-428D-9F96-2EBD9FC8D3B6";
shapes = (
{
closed = 1;
nodes = (
(158,18,l),
(431,662,l),
(440,662,l),
(713,18,l),
(750,18,l),
(462,673,ls),
(409,673,l),
(125,18,l)
);
},
{
closed = 1;
nodes = (
(296,0,l),
(296,31,l),
(-7,31,l),
(-7,0,l)
);
},
{
closed = 1;
nodes = (
(634,262,l),
(612,293,l),
(260,293,l),
(237,262,l)
);
},
{
closed = 1;
nodes = (
(880,0,l),
(880,31,l),
(580,31,l),
(580,0,l)
);
},
{
closed = 1;
nodes = (
(612,656,l),
(612,686,l),
(260,686,l),
(260,656,l)
);
}
);
width = 873;
},
{
anchors = (
{
name = bottom;
pos = (415,0);
},
{
name = hook;
pos = (506,843);
},
{
name = ogonek;
pos = (702,0);
},
{
name = top;
pos = (411,686);
}
);
background = {
anchors = (
{
name = bottom;
pos = (415,0);
},
{
name = hook;
pos = (506,843);
},
{
name = ogonek;
pos = (702,0);
},
{
name = top;
pos = (411,686);
}
);
shapes = (
{
closed = 1;
nodes = (
(204,18,l),
(431,625,l),
(384,625,l),
(612,18,l),
(783,18,l),
(526,622,ls),
(304,622,l),
(48,18,l)
);
},
{
closed = 1;
nodes = (
(356,0,l),
(356,127,l),
(13,127,l),
(13,0,l)
);
},
{
closed = 1;
nodes = (
(582,227,l),
(560,339,l),
(262,339,l),
(238,227,l)
);
},
{
closed = 1;
nodes = (
(820,0,l),
(820,127,l),
(470,127,l),
(470,0,l)
);
},
{
closed = 1;
nodes = (
(622,560,l),
(622,686,l),
(207,686,l),
(207,560,l)
);
}
);
};
layerId = "EB38A4D2-CD30-49BA-8E45-1F04A566FFE8";
shapes = (
{
closed = 1;
nodes = (
(204,18,l),
(431,625,l),
(384,625,l),
(612,18,l),
(783,18,l),
(526,622,ls),
(304,622,l),
(48,18,l)
);
},
{
closed = 1;
nodes = (
(356,0,l),
(356,127,l),
(13,127,l),
(13,0,l)
);
},
{
closed = 1;
nodes = (
(582,227,l),
(560,339,l),
(262,339,l),
(238,227,l)
);
},
{
closed = 1;
nodes = (
(820,0,l),
(820,127,l),
(470,127,l),
(470,0,l)
);
},
{
closed = 1;
nodes = (
(622,560,l),
(622,686,l),
(207,686,l),
(207,560,l)
);
}
);
width = 833;
},
{
anchors = (
{
name = bottom;
pos = (667,0);
},
{
name = hook;
pos = (775,863);
},
{
name = ogonek;
pos = (1145,0);
},
{
name = top;
pos = (662,686);
}
);
background = {
anchors = (
{
name = bottom;
pos = (667,0);
},
{
name = hook;
pos = (775,863);
},
{
name = ogonek;
pos = (1145,0);
},
{
name = top;
pos = (662,686);
}
);
shapes = (
{
closed = 1;
nodes = (
(283,18,l),
(702,603,l),
(620,603,l),
(1036,18,l),
(1246,18,l),
(789,596,ls),
(532,596,l),
(74,18,l)
);
},
{
closed = 1;
nodes = (
(495,0,l),
(495,144,l),
(-10,144,l),
(-10,0,l)
);
},
{
closed = 1;
nodes = (
(918,223,l),
(894,350,l),
(421,350,l),
(397,223,l)
);
},
{
closed = 1;
nodes = (
(1331,0,l),
(1331,144,l),
(827,144,l),
(827,0,l)
);
},
{
closed = 1;
nodes = (
(950,543,l),
(950,686,l),
(369,686,l),
(369,543,l)
);
}
);
};
layerId = "816E4B99-7363-45E2-A2DF-0C5A75075B59";
shapes = (
{
closed = 1;
nodes = (
(283,18,l),
(702,603,l),
(620,603,l),
(1036,18,l),
(1246,18,l),
(789,596,ls),
(532,596,l),
(74,18,l)
);
},
{
closed = 1;
nodes = (
(495,0,l),
(495,144,l),
(-10,144,l),
(-10,0,l)
);
},
{
closed = 1;
nodes = (
(918,223,l),
(894,350,l),
(421,350,l),
(397,223,l)
);
},
{
closed = 1;
nodes = (
(1331,0,l),
(1331,144,l),
(827,144,l),
(827,0,l)
);
},
{
closed = 1;
nodes = (
(950,543,l),
(950,686,l),
(369,686,l),
(369,543,l)
);
}
);
width = 1320;
}
);
unicode = 65;
},
{
glyphname = Aacute;
kernLeft = A;
kernRight = A;
lastChange = "2023-05-31 13:55:09 +0000";
layers = (
{
background = {
anchors = (
{
name = bottom;
pos = (678,0);
},
{
name = hook;
pos = (796,772);
},
{
name = ogonek;
pos = (1159,0);
},
{
name = top;
pos = (677,686);
}
);
shapes = (
{
closed = 1;
nodes = (
(237,18,l),
(679,662,l),
(674,662,l),
(1117,18,l),
(1155,18,l),
(701,673,ls),
(651,673,l),
(198,18,l)
);
},
{
closed = 1;
nodes = (
(441,0,l),
(441,31,l),
(-7,31,l),
(-7,0,l)
);
},
{
closed = 1;
nodes = (
(965,263,l),
(943,293,l),
(407,293,l),
(383,263,l)
);
},
{
closed = 1;
nodes = (
(1359,0,l),
(1359,31,l),
(912,31,l),
(912,0,l)
);
},
{
closed = 1;
nodes = (
(924,656,l),
(924,686,l),
(428,686,l),
(428,656,l)
);
},
{
closed = 1;
nodes = (
(897,978,l),
(917,942,l),
(599,771,l),
(587,792,l)
);
}
);
};
layerId = "B29C398E-974A-40D0-A0A0-00935056D4B4";
shapes = (
{
ref = A;
},
{
pos = (521,0);
ref = acutecomb;
}
);
width = 1352;
},
{
background = {
anchors = (
{
name = bottom;
pos = (435,0);
},
{
name = hook;
pos = (535,766);
},
{
name = ogonek;
pos = (770,18);
},
{
name = top;
pos = (436,686);
}
);
shapes = (
{
closed = 1;
nodes = (
(158,18,l),
(431,662,l),
(440,662,l),
(713,18,l),
(750,18,l),
(462,673,ls),
(409,673,l),
(125,18,l)
);
},
{
closed = 1;
nodes = (
(296,0,l),
(296,31,l),
(-7,31,l),
(-7,0,l)
);
},
{
closed = 1;
nodes = (
(634,262,l),
(612,293,l),
(260,293,l),
(237,262,l)
);
},
{
closed = 1;
nodes = (
(880,0,l),
(880,31,l),
(580,31,l),
(580,0,l)
);
},
{
closed = 1;
nodes = (
(612,656,l),
(612,686,l),
(260,686,l),
(260,656,l)
);
},
{
closed = 1;
nodes = (
(607,971,l),
(631,943,l),
(410,763,l),
(395,779,l)
);
}
);
};
layerId = "543F9737-16F7-428D-9F96-2EBD9FC8D3B6";
shapes = (
{
ref = A;
},
{
pos = (303,0);
ref = acutecomb;
}
);
width = 873;
},
{
background = {
anchors = (
{
name = bottom;
pos = (415,0);
},
{
name = hook;
pos = (506,843);
},
{
name = ogonek;
pos = (702,0);
},
{
name = top;
pos = (411,686);
}
);
shapes = (
{
closed = 1;
nodes = (
(204,18,l),
(431,625,l),
(384,625,l),
(612,18,l),
(783,18,l),
(526,622,ls),
(304,622,l),
(48,18,l)
);
},
{
closed = 1;
nodes = (
(356,0,l),
(356,127,l),
(13,127,l),
(13,0,l)
);
},
{
closed = 1;
nodes = (
(582,227,l),
(560,339,l),
(262,339,l),
(238,227,l)
);
},
{
closed = 1;
nodes = (
(820,0,l),
(820,127,l),
(470,127,l),
(470,0,l)
);
},
{
closed = 1;
nodes = (
(622,560,l),
(622,686,l),
(207,686,l),
(207,560,l)
);
},
{
closed = 1;
nodes = (
(541,967,l),
(618,857,l),
(394,736,l),
(354,793,l)
);
}
);
};
layerId = "EB38A4D2-CD30-49BA-8E45-1F04A566FFE8";
shapes = (
{
ref = A;
},
{
pos = (251,30);
ref = acutecomb;
}
);
width = 833;
},
{
background = {
anchors = (
{
name = bottom;
pos = (667,0);
},
{
name = hook;
pos = (775,863);
},
{
name = ogonek;
pos = (1145,0);
},
{
name = top;
pos = (662,686);
}
);
shapes = (
{
closed = 1;
nodes = (
(283,18,l),
(702,603,l),
(620,603,l),
(1036,18,l),
(1246,18,l),
(789,596,ls),
(532,596,l),
(74,18,l)
);
},
{
closed = 1;
nodes = (
(495,0,l),
(495,144,l),
(-10,144,l),
(-10,0,l)
);
},
{
closed = 1;
nodes = (
(918,223,l),
(894,350,l),
(421,350,l),
(397,223,l)
);
},
{
closed = 1;
nodes = (
(1331,0,l),
(1331,144,l),
(827,144,l),
(827,0,l)
);
},
{
closed = 1;
nodes = (
(950,543,l),
(950,686,l),
(369,686,l),
(369,543,l)
);
},
{
closed = 1;
nodes = (
(816,1029,l),
(895,904,l),
(569,744,l),
(520,810,l)
);
}
);
};
layerId = "816E4B99-7363-45E2-A2DF-0C5A75075B59";
shapes = (
{
ref = A;
},
{
pos = (300,31);
ref = acutecomb;
}
);
width = 1320;
}
);
unicode = 193;
},
{
glyphname = Abreve;
kernLeft = A;
kernRight = A;
lastChange = "2023-05-31 13:55:09 +0000";
layers = (
{
background = {
anchors = (
{
name = bottom;
pos = (678,0);
},
{
name = hook;
pos = (796,772);
},
{
name = ogonek;
pos = (1159,0);
},
{
name = top;
pos = (677,686);
}
);
shapes = (
{
closed = 1;
nodes = (
(237,18,l),
(679,662,l),
(674,662,l),
(1117,18,l),
(1155,18,l),
(701,673,ls),
(651,673,l),
(198,18,l)
);
},
{
closed = 1;
nodes = (
(441,0,l),
(441,31,l),
(-7,31,l),
(-7,0,l)
);
},
{
closed = 1;
nodes = (
(965,263,l),
(943,293,l),
(407,293,l),
(383,263,l)
);
},
{
closed = 1;
nodes = (
(1359,0,l),
(1359,31,l),
(912,31,l),
(912,0,l)
);
},
{
closed = 1;
nodes = (
(924,656,l),
(924,686,l),
(428,686,l),
(428,656,l)
);
},
{
closed = 1;
nodes = (
(805,803,o),
(885,897,o),
(905,989,c),
(879,996,l),
(852,903,o),
(774,834,o),
(678,834,c),
(582,834,o),
(501,903,o),
(475,996,c),
(448,989,l),
(468,897,o),
(549,803,o),
(677,803,c)
);
}
);
};
layerId = "B29C398E-974A-40D0-A0A0-00935056D4B4";
shapes = (
{
ref = A;
},
{
pos = (356,0);
ref = brevecomb;
}
);
width = 1352;
},
{
background = {
anchors = (
{
name = bottom;
pos = (435,0);
},
{
name = hook;
pos = (535,766);
},
{
name = ogonek;
pos = (770,18);
},
{
name = top;
pos = (436,686);
}
);
shapes = (
{
closed = 1;
nodes = (
(158,18,l),
(431,662,l),
(440,662,l),
(713,18,l),
(750,18,l),
(462,673,ls),
(409,673,l),
(125,18,l)
);
},
{
closed = 1;
nodes = (
(296,0,l),
(296,31,l),
(-7,31,l),
(-7,0,l)
);
},
{
closed = 1;
nodes = (
(634,262,l),
(612,293,l),
(260,293,l),
(237,262,l)
);
},
{
closed = 1;
nodes = (
(880,0,l),
(880,31,l),
(580,31,l),
(580,0,l)
);
},
{
closed = 1;
nodes = (
(612,656,l),
(612,686,l),
(260,686,l),
(260,656,l)
);
},
{
closed = 1;
nodes = (
(551,790,o),
(601,877,o),
(613,937,c),
(587,942,l),
(568,880,o),
(521,821,o),
(437,821,c),
(354,821,o),
(304,880,o),
(286,942,c),
(259,937,l),
(271,877,o),
(321,790,o),
(436,790,c)
);
}
);
};
layerId = "543F9737-16F7-428D-9F96-2EBD9FC8D3B6";
shapes = (
{
ref = A;
},
{
pos = (180,0);
ref = brevecomb;
}
);
width = 873;
},
{
background = {
anchors = (
{
name = bottom;
pos = (415,0);
},
{
name = hook;
pos = (506,843);
},
{
name = ogonek;
pos = (702,0);
},
{
name = top;
pos = (411,686);
}
);
shapes = (
{
closed = 1;
nodes = (
(204,18,l),
(431,625,l),
(384,625,l),
(612,18,l),
(783,18,l),
(526,622,ls),
(304,622,l),
(48,18,l)
);
},
{
closed = 1;
nodes = (
(356,0,l),
(356,127,l),
(13,127,l),
(13,0,l)
);
},
{
closed = 1;
nodes = (
(582,227,l),
(560,339,l),
(262,339,l),
(238,227,l)
);
},
{
closed = 1;
nodes = (
(820,0,l),
(820,127,l),
(470,127,l),
(470,0,l)
);
},
{
closed = 1;
nodes = (
(622,560,l),
(622,686,l),
(207,686,l),
(207,560,l)
);
},
{
closed = 1;
nodes = (
(517,754,o),
(592,838,o),
(596,932,c),
(506,950,l),
(496,904,o),
(453,879,o),
(411,879,c),
(367,879,o),
(325,904,o),
(314,950,c),
(225,932,l),
(228,838,o),
(306,754,o),
(411,754,c)
);
}
);
};
layerId = "EB38A4D2-CD30-49BA-8E45-1F04A566FFE8";
shapes = (
{
ref = A;
},
{
pos = (174,0);
ref = brevecomb;
}
);
width = 833;
},
{
background = {
anchors = (
{
name = bottom;
pos = (667,0);
},
{
name = hook;
pos = (775,863);
},
{
name = ogonek;
pos = (1145,0);
},
{
name = top;
pos = (662,686);
}
);
shapes = (
{
closed = 1;
nodes = (
(283,18,l),
(702,603,l),
(620,603,l),
(1036,18,l),
(1246,18,l),
(789,596,ls),
(532,596,l),
(74,18,l)
);
},
{
closed = 1;
nodes = (
(495,0,l),
(495,144,l),
(-10,144,l),
(-10,0,l)
);
},
{
closed = 1;
nodes = (
(918,223,l),
(894,350,l),
(421,350,l),
(397,223,l)
);
},
{
closed = 1;
nodes = (
(1331,0,l),
(1331,144,l),
(827,144,l),
(827,0,l)
);
},
{
closed = 1;
nodes = (
(950,543,l),
(950,686,l),
(369,686,l),
(369,543,l)
);
},
{
closed = 1;
nodes = (
(790,768,o),
(882,852,o),
(893,962,c),
(791,979,l),
(775,936,o),
(711,911,o),
(661,911,c),
(611,911,o),
(548,936,o),
(531,979,c),
(430,962,l),
(439,852,o),
(536,768,o),
(661,768,c)
);
}
);
};
layerId = "816E4B99-7363-45E2-A2DF-0C5A75075B59";
shapes = (
{
ref = A;
},
{
pos = (376,0);
ref = brevecomb;
}
);
width = 1320;
}
);
unicode = 258;
},
{
glyphname = Acircumflex;
kernLeft = A;
kernRight = A;
lastChange = "2023-05-31 13:55:09 +0000";
layers = (
{
background = {
anchors = (
{
name = bottom;
pos = (678,0);
},
{
name = hook;
pos = (796,772);
},
{
name = ogonek;
pos = (1159,0);
},
{
name = top;
pos = (677,686);
}
);
shapes = (
{
closed = 1;
nodes = (
(237,18,l),
(679,662,l),
(674,662,l),
(1117,18,l),
(1155,18,l),
(701,673,ls),
(651,673,l),
(198,18,l)
);
},
{
closed = 1;
nodes = (
(441,0,l),
(441,31,l),
(-7,31,l),
(-7,0,l)
);
},
{
closed = 1;
nodes = (
(965,263,l),
(943,293,l),
(407,293,l),
(383,263,l)
);
},
{
closed = 1;
nodes = (
(1359,0,l),
(1359,31,l),
(912,31,l),
(912,0,l)
);
},
{
closed = 1;
nodes = (
(924,656,l),
(924,686,l),
(428,686,l),
(428,656,l)
);
},
{
closed = 1;
nodes = (
(677,923,l),
(897,755,l),
(911,772,l),
(690,959,l),
(664,959,l),
(444,772,l),
(458,755,l)
);
}
);
};
layerId = "B29C398E-974A-40D0-A0A0-00935056D4B4";
shapes = (
{
ref = A;
},
{
pos = (371,0);
ref = circumflexcomb;
}
);
width = 1352;
},
{
background = {
anchors = (
{
name = bottom;
pos = (435,0);
},
{
name = hook;
pos = (535,766);
},
{
name = ogonek;
pos = (770,18);
},
{
name = top;
pos = (436,686);
}
);
shapes = (
{
closed = 1;
nodes = (
(158,18,l),
(431,662,l),
(440,662,l),
(713,18,l),
(750,18,l),
(462,673,ls),
(409,673,l),
(125,18,l)
);
},
{
closed = 1;
nodes = (
(296,0,l),
(296,31,l),
(-7,31,l),
(-7,0,l)
);
},
{
closed = 1;
nodes = (
(634,262,l),
(612,293,l),
(260,293,l),
(237,262,l)
);
},
{
closed = 1;
nodes = (
(880,0,l),
(880,31,l),
(580,31,l),
(580,0,l)
);
},
{
closed = 1;
nodes = (
(612,656,l),
(612,686,l),
(260,686,l),
(260,656,l)
);
},
{
closed = 1;
nodes = (
(436,913,l),
(597,757,l),
(611,771,l),
(449,950,l),
(423,950,l),
(262,771,l),
(277,757,l)
);
}
);
};
layerId = "543F9737-16F7-428D-9F96-2EBD9FC8D3B6";
shapes = (
{
ref = A;
},
{
pos = (216,0);
ref = circumflexcomb;
}
);
width = 873;
},
{
background = {
anchors = (
{
name = bottom;
pos = (415,0);
},
{
name = hook;
pos = (506,843);
},
{
name = ogonek;
pos = (702,0);
},
{
name = top;
pos = (411,686);
}
);
shapes = (
{
closed = 1;
nodes = (
(204,18,l),
(431,625,l),
(384,625,l),
(612,18,l),
(783,18,l),
(526,622,ls),
(304,622,l),
(48,18,l)
);
},
{
closed = 1;
nodes = (
(356,0,l),
(356,127,l),
(13,127,l),
(13,0,l)
);
},
{
closed = 1;
nodes = (
(582,227,l),
(560,339,l),
(262,339,l),
(238,227,l)
);
},
{
closed = 1;
nodes = (
(820,0,l),
(820,127,l),
(470,127,l),
(470,0,l)
);
},
{
closed = 1;
nodes = (
(622,560,l),
(622,686,l),
(207,686,l),
(207,560,l)
);
},
{
closed = 1;
nodes = (
(410,847,l),
(548,749,l),
(594,791,l),
(449,964,l),
(375,964,l),
(230,791,l),
(276,749,l)
);
}
);
};
layerId = "EB38A4D2-CD30-49BA-8E45-1F04A566FFE8";
shapes = (
{
ref = A;
},
{
pos = (199,-2);
ref = circumflexcomb;
}
);
width = 833;
},
{
background = {
anchors = (
{
name = bottom;
pos = (667,0);
},
{
name = hook;
pos = (775,863);
},
{
name = ogonek;
pos = (1145,0);
},
{
name = top;
pos = (662,686);
}
);
shapes = (
{
closed = 1;
nodes = (
(283,18,l),
(702,603,l),
(620,603,l),
(1036,18,l),
(1246,18,l),
(789,596,ls),
(532,596,l),
(74,18,l)
);
},
{
closed = 1;
nodes = (
(495,0,l),
(495,144,l),
(-10,144,l),
(-10,0,l)
);
},
{
closed = 1;
nodes = (
(918,223,l),
(894,350,l),
(421,350,l),
(397,223,l)
);
},
{
closed = 1;
nodes = (
(1331,0,l),
(1331,144,l),
(827,144,l),
(827,0,l)
);
},
{
closed = 1;
nodes = (
(950,543,l),
(950,686,l),
(369,686,l),
(369,543,l)
);
},
{
closed = 1;
nodes = (
(661,833,l),
(862,760,l),
(890,810,l),
(712,942,l),
(614,942,l),
(435,810,l),
(464,760,l)
);
}
);
};
layerId = "816E4B99-7363-45E2-A2DF-0C5A75075B59";
shapes = (
{
ref = A;
},
{
pos = (377,0);
ref = circumflexcomb;
}
);
width = 1320;
}
);
unicode = 194;
},
{
glyphname = Acircumflexhookabove;
kernLeft = A;
kernRight = A;
lastChange = "2023-05-31 13:55:09 +0000";
layers = (
{
background = {
anchors = (
{
name = bottom;
pos = (678,0);
},
{
name = hook;
pos = (796,772);
},
{
name = ogonek;
pos = (1159,0);
},
{
name = top;
pos = (677,686);
}
);
shapes = (
{
closed = 1;
nodes = (
(237,18,l),
(679,662,l),
(674,662,l),
(1117,18,l),
(1155,18,l),
(701,673,ls),
(651,673,l),
(198,18,l)
);
},
{
closed = 1;
nodes = (
(441,0,l),
(441,31,l),
(-7,31,l),
(-7,0,l)
);
},
{
closed = 1;
nodes = (
(965,263,l),
(943,293,l),
(407,293,l),
(383,263,l)
);
},
{
closed = 1;
nodes = (
(1359,0,l),
(1359,31,l),
(912,31,l),
(912,0,l)
);
},
{
closed = 1;
nodes = (
(924,656,l),
(924,686,l),
(428,686,l),
(428,656,l)
);
},
{
closed = 1;
nodes = (
(677,923,l),
(897,755,l),
(911,772,l),
(690,959,l),
(664,959,l),
(444,772,l),
(458,755,l)
);
},
{
closed = 1;
nodes = (
(895,886,l),
(938,928,o),
(968,965,o),
(968,1013,cs),
(968,1073,o),
(915,1112,o),
(836,1112,cs),
(770,1112,o),
(718,1086,o),
(682,1060,c),
(697,1037,l),
(734,1059,o),
(779,1082,o),
(836,1082,cs),
(898,1082,o),
(935,1052,o),
(935,1010,cs),
(935,965,o),
(904,934,o),
(882,898,c)
);
}
);
};
layerId = "B29C398E-974A-40D0-A0A0-00935056D4B4";
shapes = (
{
ref = A;
},
{
pos = (371,0);
ref = circumflexcomb;
},
{
pos = (561,154);
ref = hookabovecomb;
}
);
width = 1352;
},
{
background = {
anchors = (
{
name = bottom;
pos = (435,0);
},
{
name = hook;
pos = (535,766);
},
{
name = ogonek;
pos = (770,18);
},
{
name = top;
pos = (436,686);
}
);
shapes = (
{
closed = 1;
nodes = (
(158,18,l),
(431,662,l),
(440,662,l),
(713,18,l),
(750,18,l),
(462,673,ls),
(409,673,l),
(125,18,l)
);
},
{
closed = 1;
nodes = (
(296,0,l),
(296,31,l),
(-7,31,l),
(-7,0,l)
);
},
{
closed = 1;
nodes = (
(634,262,l),
(612,293,l),
(260,293,l),
(237,262,l)
);
},
{
closed = 1;
nodes = (
(880,0,l),
(880,31,l),
(580,31,l),
(580,0,l)
);
},
{
closed = 1;
nodes = (
(612,656,l),
(612,686,l),
(260,686,l),
(260,656,l)
);
},
{
closed = 1;
nodes = (
(436,913,l),
(597,757,l),
(611,771,l),
(449,950,l),
(423,950,l),
(262,771,l),
(277,757,l)
);
},
{
closed = 1;
nodes = (
(613,864,l),
(656,906,o),
(686,943,o),
(686,991,cs),
(686,1051,o),
(634,1090,o),
(568,1090,cs),
(515,1090,o),
(472,1068,o),
(439,1045,c),
(455,1022,l),
(489,1042,o),
(524,1060,o),
(568,1060,cs),
(620,1060,o),
(653,1032,o),
(653,988,cs),
(653,943,o),
(622,912,o),
(600,876,c)
);
}
);
};
layerId = "543F9737-16F7-428D-9F96-2EBD9FC8D3B6";
shapes = (
{
ref = A;
},
{
pos = (216,0);
ref = circumflexcomb;
},
{
pos = (305,132);
ref = hookabovecomb;
}
);
width = 873;
},
{
background = {
anchors = (
{
name = bottom;
pos = (415,0);
},
{
name = hook;
pos = (506,843);
},
{
name = ogonek;
pos = (702,0);
},
{
name = top;
pos = (411,686);
}
);
shapes = (
{
closed = 1;
nodes = (
(204,18,l),
(431,625,l),
(384,625,l),
(612,18,l),
(783,18,l),
(526,622,ls),
(304,622,l),
(48,18,l)
);
},
{
closed = 1;
nodes = (
(356,0,l),
(356,127,l),
(13,127,l),
(13,0,l)
);
},
{
closed = 1;
nodes = (
(582,227,l),
(560,339,l),
(262,339,l),
(238,227,l)
);
},
{
closed = 1;
nodes = (
(820,0,l),
(820,127,l),
(470,127,l),
(470,0,l)
);
},
{
closed = 1;
nodes = (
(622,560,l),
(622,686,l),
(207,686,l),
(207,560,l)
);
},
{
closed = 1;
nodes = (
(410,847,l),
(548,749,l),
(594,791,l),
(449,964,l),
(375,964,l),
(230,791,l),
(276,749,l)
);
},
{
closed = 1;
nodes = (
(591,912,l),
(624,947,o),
(651,982,o),
(651,1033,cs),
(651,1088,o),
(597,1123,o),
(538,1123,cs),
(490,1123,o),
(456,1113,o),
(424,1095,c),
(451,1015,l),
(473,1028,o),
(497,1036,o),
(519,1036,cs),
(548,1036,o),
(562,1021,o),
(562,997,cs),
(562,974,o),
(550,955,o),
(536,930,c)
);
}
);
};
guides = (
{
pos = (130,1056);
}
);
layerId = "EB38A4D2-CD30-49BA-8E45-1F04A566FFE8";
shapes = (
{
ref = A;
},
{
pos = (199,-2);
ref = circumflexcomb;
},
{
pos = (365,223);
ref = hookabovecomb;
}
);
width = 833;
},
{
background = {
anchors = (
{
name = bottom;
pos = (667,0);
},
{
name = hook;
pos = (775,863);
},
{
name = ogonek;
pos = (1145,0);
},
{
name = top;
pos = (662,686);
}
);
shapes = (
{
closed = 1;
nodes = (
(283,18,l),
(702,603,l),
(620,603,l),
(1036,18,l),
(1246,18,l),
(789,596,ls),
(532,596,l),
(74,18,l)
);
},
{
closed = 1;
nodes = (
(495,0,l),
(495,144,l),
(-10,144,l),
(-10,0,l)
);
},
{
closed = 1;
nodes = (
(918,223,l),
(894,350,l),
(421,350,l),
(397,223,l)
);
},
{
closed = 1;
nodes = (
(1331,0,l),
(1331,144,l),
(827,144,l),
(827,0,l)
);
},
{
closed = 1;
nodes = (
(950,543,l),
(950,686,l),
(369,686,l),
(369,543,l)
);
},
{
closed = 1;
nodes = (
(661,833,l),
(862,760,l),
(890,810,l),
(712,942,l),
(614,942,l),
(435,810,l),
(464,760,l)
);
},
{
closed = 1;
nodes = (
(888,873,l),
(919,906,o),
(945,942,o),
(945,991,cs),
(945,1047,o),
(890,1082,o),
(819,1082,cs),
(759,1082,o),
(717,1069,o),
(683,1051,c),
(711,960,l),
(735,975,o),
(766,985,o),
(797,985,cs),
(830,985,o),
(846,968,o),
(846,952,cs),
(846,932,o),
(838,914,o),
(825,893,c)
);
}
);
};
layerId = "816E4B99-7363-45E2-A2DF-0C5A75075B59";
shapes = (
{
ref = A;
},
{
pos = (377,0);
ref = circumflexcomb;
},
{
pos = (678,195);
ref = hookabovecomb;
}
);
width = 1320;
}
);
unicode = 7848;
},
{
glyphname = Adieresis;
kernLeft = A;
kernRight = A;
lastChange = "2023-05-31 13:55:09 +0000";
layers = (
{
background = {
anchors = (
{
name = bottom;
pos = (678,0);
},
{
name = hook;
pos = (796,772);
},
{
name = ogonek;
pos = (1159,0);
},
{
name = top;
pos = (677,686);
}
);
shapes = (
{
closed = 1;
nodes = (
(237,18,l),
(679,662,l),
(674,662,l),
(1117,18,l),
(1155,18,l),
(701,673,ls),
(651,673,l),
(198,18,l)
);
},
{
closed = 1;
nodes = (
(441,0,l),
(441,31,l),
(-7,31,l),
(-7,0,l)
);
},
{
closed = 1;
nodes = (
(965,263,l),
(943,293,l),
(407,293,l),
(383,263,l)
);
},
{
closed = 1;
nodes = (
(1359,0,l),
(1359,31,l),
(912,31,l),
(912,0,l)
);
},
{
closed = 1;
nodes = (
(924,656,l),
(924,686,l),
(428,686,l),
(428,656,l)
);
},
{
closed = 1;
nodes = (
(857,837,o),
(877,854,o),
(877,876,c),
(877,898,o),
(857,913,o),
(818,913,c),
(782,913,o),
(759,898,o),
(759,876,c),
(759,854,o),
(782,837,o),
(818,837,c)
);
},
{
closed = 1;
nodes = (
(564,837,o),
(585,854,o),
(585,876,c),
(585,898,o),
(564,913,o),
(526,913,c),
(488,913,o),
(467,898,o),
(467,876,c),
(467,854,o),
(488,837,o),
(526,837,c)
);
}
);
};
layerId = "B29C398E-974A-40D0-A0A0-00935056D4B4";
shapes = (
{
ref = A;
},
{
pos = (354,0);
ref = dieresiscomb;
}
);
width = 1352;
},
{
background = {
anchors = (
{
name = bottom;
pos = (435,0);
},
{
name = hook;
pos = (535,766);
},
{
name = ogonek;
pos = (770,18);
},
{
name = top;
pos = (436,686);
}
);
shapes = (
{
closed = 1;
nodes = (
(158,18,l),
(431,662,l),
(440,662,l),
(713,18,l),
(750,18,l),
(462,673,ls),
(409,673,l),
(125,18,l)
);
},
{
closed = 1;
nodes = (
(296,0,l),
(296,31,l),
(-7,31,l),
(-7,0,l)
);
},
{
closed = 1;
nodes = (
(634,262,l),
(612,293,l),
(260,293,l),
(237,262,l)
);
},
{
closed = 1;
nodes = (
(880,0,l),
(880,31,l),
(580,31,l),
(580,0,l)
);
},
{
closed = 1;
nodes = (
(612,656,l),
(612,686,l),
(260,686,l),
(260,656,l)
);
},
{
closed = 1;
nodes = (
(568,816,o),
(589,833,o),
(589,856,c),
(589,879,o),
(568,897,o),
(537,897,c),
(508,897,o),
(485,879,o),
(485,856,c),
(485,833,o),
(508,816,o),
(537,816,c)
);
},
{
closed = 1;
nodes = (
(368,816,o),
(389,833,o),
(389,856,c),
(389,879,o),
(368,897,o),
(336,897,c),
(307,897,o),
(285,879,o),
(285,856,c),
(285,833,o),
(307,816,o),
(336,816,c)
);
}
);
};
layerId = "543F9737-16F7-428D-9F96-2EBD9FC8D3B6";
shapes = (
{
ref = A;
},
{
pos = (146,0);
ref = dieresiscomb;
}
);
width = 873;
},
{
background = {
anchors = (
{
name = bottom;
pos = (415,0);
},
{
name = hook;
pos = (506,843);
},
{
name = ogonek;
pos = (702,0);
},
{
name = top;
pos = (411,686);
}
);
shapes = (
{
closed = 1;
nodes = (
(204,18,l),
(431,625,l),
(384,625,l),
(612,18,l),
(783,18,l),
(526,622,ls),
(304,622,l),
(48,18,l)
);
},
{
closed = 1;
nodes = (
(356,0,l),
(356,127,l),
(13,127,l),
(13,0,l)
);
},
{
closed = 1;
nodes = (
(582,227,l),
(560,339,l),
(262,339,l),
(238,227,l)
);
},
{
closed = 1;
nodes = (
(820,0,l),
(820,127,l),
(470,127,l),
(470,0,l)
);
},
{
closed = 1;
nodes = (
(622,560,l),
(622,686,l),
(207,686,l),
(207,560,l)
);
},
{
closed = 1;
nodes = (
(571,775,o),
(608,804,o),
(608,843,c),
(608,884,o),
(571,914,o),
(525,914,c),
(482,914,o),
(444,884,o),
(444,843,c),
(444,804,o),
(482,775,o),
(525,775,c)
);
},
{
closed = 1;
nodes = (
(337,775,o),
(372,804,o),
(372,843,c),
(372,884,o),
(337,914,o),
(291,914,c),
(247,914,o),
(208,884,o),
(208,843,c),
(208,804,o),
(247,775,o),
(291,775,c)
);
}
);
};
layerId = "EB38A4D2-CD30-49BA-8E45-1F04A566FFE8";
shapes = (
{
ref = A;
},
{
pos = (127,-2);
ref = dieresiscomb;
}
);
width = 833;
},
{
background = {
anchors = (
{
name = bottom;
pos = (667,0);
},
{
name = hook;
pos = (775,863);
},
{
name = ogonek;
pos = (1145,0);
},
{
name = top;
pos = (662,686);
}
);
shapes = (
{
closed = 1;
nodes = (
(283,18,l),
(702,603,l),
(620,603,l),
(1036,18,l),
(1246,18,l),
(789,596,ls),
(532,596,l),
(74,18,l)
);
},
{
closed = 1;
nodes = (
(495,0,l),
(495,144,l),
(-10,144,l),
(-10,0,l)
);
},
{
closed = 1;
nodes = (
(918,223,l),
(894,350,l),
(421,350,l),
(397,223,l)
);
},
{
closed = 1;
nodes = (
(1331,0,l),
(1331,144,l),
(827,144,l),
(827,0,l)
);
},
{
closed = 1;
nodes = (
(950,543,l),
(950,686,l),
(369,686,l),
(369,543,l)
);
},
{
closed = 1;
nodes = (
(885,784,o),
(922,817,o),
(922,856,c),
(922,899,o),
(885,931,o),
(830,931,c),
(775,931,o),
(734,899,o),
(734,856,c),
(734,817,o),
(775,784,o),
(830,784,c)
);
},
{
closed = 1;
nodes = (
(551,784,o),
(589,817,o),
(589,856,c),
(589,899,o),
(551,931,o),
(495,931,c),
(442,931,o),
(402,899,o),
(402,856,c),
(402,817,o),
(442,784,o),
(495,784,c)
);
}
);
};
layerId = "816E4B99-7363-45E2-A2DF-0C5A75075B59";
shapes = (
{
ref = A;
},
{
pos = (367,0);
ref = dieresiscomb;
}
);
width = 1320;
}
);
unicode = 196;
},
{
glyphname = Agrave;
kernLeft = A;
kernRight = A;
lastChange = "2023-05-31 13:55:09 +0000";
layers = (
{
background = {
anchors = (
{
name = bottom;
pos = (678,0);
},
{
name = hook;
pos = (796,772);
},
{
name = ogonek;
pos = (1159,0);
},
{
name = top;
pos = (677,686);
}
);
shapes = (
{
closed = 1;
nodes = (
(237,18,l),
(679,662,l),
(674,662,l),
(1117,18,l),
(1155,18,l),
(701,673,ls),
(651,673,l),
(198,18,l)
);
},
{
closed = 1;
nodes = (
(441,0,l),
(441,31,l),
(-7,31,l),
(-7,0,l)
);
},
{
closed = 1;
nodes = (
(965,263,l),
(943,293,l),
(407,293,l),
(383,263,l)
);
},
{
closed = 1;
nodes = (
(1359,0,l),
(1359,31,l),
(912,31,l),
(912,0,l)
);
},
{
closed = 1;
nodes = (
(924,656,l),
(924,686,l),
(428,686,l),
(428,656,l)
);
},
{
closed = 1;
nodes = (
(755,771,l),
(437,942,l),
(457,978,l),
(767,792,l)
);
}
);
};
layerId = "B29C398E-974A-40D0-A0A0-00935056D4B4";
shapes = (
{
ref = A;
},
{
pos = (371,0);
ref = gravecomb;
}
);
width = 1352;
},
{
background = {
anchors = (
{
name = bottom;
pos = (435,0);
},
{
name = hook;
pos = (535,766);
},
{
name = ogonek;
pos = (770,18);
},
{
name = top;
pos = (436,686);
}
);
shapes = (
{
closed = 1;
nodes = (
(158,18,l),
(431,662,l),
(440,662,l),
(713,18,l),
(750,18,l),
(462,673,ls),
(409,673,l),
(125,18,l)
);
},
{
closed = 1;
nodes = (
(296,0,l),
(296,31,l),
(-7,31,l),
(-7,0,l)
);
},
{
closed = 1;
nodes = (
(634,262,l),
(612,293,l),
(260,293,l),
(237,262,l)
);
},
{
closed = 1;
nodes = (
(880,0,l),
(880,31,l),
(580,31,l),
(580,0,l)
);
},
{
closed = 1;
nodes = (
(612,656,l),
(612,686,l),
(260,686,l),
(260,656,l)
);
},
{
closed = 1;
nodes = (
(460,763,l),
(240,943,l),
(265,971,l),
(476,779,l)
);
}
);
};
layerId = "543F9737-16F7-428D-9F96-2EBD9FC8D3B6";
shapes = (
{
ref = A;
},
{
pos = (148,0);
ref = gravecomb;
}
);
width = 873;
},
{
background = {
anchors = (
{
name = bottom;
pos = (415,0);
},
{
name = hook;
pos = (506,843);
},
{
name = ogonek;
pos = (702,0);
},
{
name = top;
pos = (411,686);
}
);
shapes = (
{
closed = 1;
nodes = (
(204,18,l),
(431,625,l),
(384,625,l),
(612,18,l),
(783,18,l),
(526,622,ls),
(304,622,l),
(48,18,l)
);
},
{
closed = 1;
nodes = (
(356,0,l),
(356,127,l),
(13,127,l),
(13,0,l)
);
},
{
closed = 1;
nodes = (
(582,227,l),
(560,339,l),
(262,339,l),
(238,227,l)
);
},
{
closed = 1;
nodes = (
(820,0,l),
(820,127,l),
(470,127,l),
(470,0,l)
);
},
{
closed = 1;
nodes = (
(622,560,l),
(622,686,l),
(207,686,l),
(207,560,l)
);
},
{
closed = 1;
nodes = (
(429,766,l),
(204,887,l),
(280,997,l),
(468,823,l)
);
}
);
};
layerId = "EB38A4D2-CD30-49BA-8E45-1F04A566FFE8";
shapes = (
{
ref = A;
},
{
pos = (101,20);
ref = gravecomb;
}
);
width = 833;
},
{
background = {
anchors = (
{
name = bottom;
pos = (667,0);
},
{
name = hook;
pos = (775,863);
},
{
name = ogonek;
pos = (1145,0);
},
{
name = top;
pos = (662,686);
}
);
shapes = (
{
closed = 1;
nodes = (
(283,18,l),
(702,603,l),
(620,603,l),
(1036,18,l),
(1246,18,l),
(789,596,ls),
(532,596,l),
(74,18,l)
);
},
{
closed = 1;
nodes = (
(495,0,l),
(495,144,l),
(-10,144,l),
(-10,0,l)
);
},
{
closed = 1;
nodes = (
(918,223,l),
(894,350,l),
(421,350,l),
(397,223,l)
);
},
{
closed = 1;
nodes = (
(1331,0,l),
(1331,144,l),
(827,144,l),
(827,0,l)
);
},
{
closed = 1;
nodes = (
(950,543,l),
(950,686,l),
(369,686,l),
(369,543,l)
);
},
{
closed = 1;
nodes = (
(755,744,l),
(429,904,l),
(508,1029,l),
(804,810,l)
);
}
);
};
layerId = "816E4B99-7363-45E2-A2DF-0C5A75075B59";
shapes = (
{
ref = A;
},
{
pos = (358,31);
ref = gravecomb;
}
);
width = 1320;
}
);
unicode = 192;
},
{
glyphname = Amacron;
kernLeft = A;
kernRight = A;
lastChange = "2023-05-31 13:55:09 +0000";
layers = (
{
background = {
anchors = (
{
name = bottom;
pos = (678,0);
},
{
name = hook;
pos = (796,772);
},
{
name = ogonek;
pos = (1159,0);
},
{
name = top;
pos = (677,686);
}
);
shapes = (
{
closed = 1;
nodes = (
(237,18,l),
(679,662,l),
(674,662,l),
(1117,18,l),
(1155,18,l),
(701,673,ls),
(651,673,l),
(198,18,l)
);
},
{
closed = 1;
nodes = (
(441,0,l),
(441,31,l),
(-7,31,l),
(-7,0,l)
);
},
{
closed = 1;
nodes = (
(965,263,l),
(943,293,l),
(407,293,l),
(383,263,l)
);
},
{
closed = 1;
nodes = (
(1359,0,l),
(1359,31,l),
(912,31,l),
(912,0,l)
);
},
{
closed = 1;
nodes = (
(924,656,l),
(924,686,l),
(428,686,l),
(428,656,l)
);
},
{
closed = 1;
nodes = (
(355,893,l),
(355,862,l),
(985,862,l),
(985,893,l)
);
}
);
};
layerId = "B29C398E-974A-40D0-A0A0-00935056D4B4";
shapes = (
{
ref = A;
},
{
pos = (263,0);
ref = macroncomb;
}
);
width = 1352;
},
{
background = {
anchors = (
{
name = bottom;
pos = (435,0);
},
{
name = hook;
pos = (535,766);
},
{
name = ogonek;
pos = (770,18);
},
{
name = top;
pos = (436,686);
}
);
shapes = (
{
closed = 1;
nodes = (
(158,18,l),
(431,662,l),
(440,662,l),
(713,18,l),
(750,18,l),
(462,673,ls),
(409,673,l),
(125,18,l)
);
},
{
closed = 1;
nodes = (
(296,0,l),
(296,31,l),
(-7,31,l),
(-7,0,l)
);
},
{
closed = 1;
nodes = (
(634,262,l),
(612,293,l),
(260,293,l),
(237,262,l)
);
},
{
closed = 1;
nodes = (
(880,0,l),
(880,31,l),
(580,31,l),
(580,0,l)
);
},
{
closed = 1;
nodes = (
(612,656,l),
(612,686,l),
(260,686,l),
(260,656,l)
);
},
{
closed = 1;
nodes = (
(243,833,l),
(243,801,l),
(631,801,l),
(631,833,l)
);
}
);
};
layerId = "543F9737-16F7-428D-9F96-2EBD9FC8D3B6";
shapes = (
{
ref = A;
},
{
pos = (170,-49);
ref = macroncomb;
}
);
width = 873;
},
{
background = {
anchors = (
{
name = bottom;
pos = (415,0);
},
{
name = hook;
pos = (506,843);
},
{
name = ogonek;
pos = (702,0);
},
{
name = top;
pos = (411,686);
}
);
shapes = (
{
closed = 1;
nodes = (
(204,18,l),
(431,625,l),
(384,625,l),
(612,18,l),
(783,18,l),
(526,622,ls),
(304,622,l),
(48,18,l)
);
},
{
closed = 1;
nodes = (
(356,0,l),
(356,127,l),
(13,127,l),
(13,0,l)
);
},
{
closed = 1;
nodes = (
(582,227,l),
(560,339,l),
(262,339,l),
(238,227,l)
);
},
{
closed = 1;
nodes = (
(820,0,l),
(820,127,l),
(470,127,l),
(470,0,l)
);
},
{
closed = 1;
nodes = (
(622,560,l),
(622,686,l),
(207,686,l),
(207,560,l)
);
},
{
closed = 1;
nodes = (
(218,887,l),
(218,783,l),
(590,780,l),
(590,884,l)
);
}
);
};
layerId = "EB38A4D2-CD30-49BA-8E45-1F04A566FFE8";
shapes = (
{
ref = A;
},
{
pos = (148,0);
ref = macroncomb;
}
);
width = 833;
},
{
background = {
anchors = (
{
name = bottom;
pos = (667,0);
},
{
name = hook;
pos = (775,863);
},
{
name = ogonek;
pos = (1145,0);
},
{
name = top;
pos = (662,686);
}
);
shapes = (
{
closed = 1;
nodes = (
(283,18,l),
(702,603,l),
(620,603,l),
(1036,18,l),
(1246,18,l),
(789,596,ls),
(532,596,l),
(74,18,l)
);
},
{
closed = 1;
nodes = (
(495,0,l),
(495,144,l),
(-10,144,l),
(-10,0,l)
);
},
{
closed = 1;
nodes = (
(918,223,l),
(894,350,l),
(421,350,l),
(397,223,l)
);
},
{
closed = 1;
nodes = (
(1331,0,l),
(1331,144,l),
(827,144,l),
(827,0,l)
);
},
{
closed = 1;
nodes = (
(950,543,l),
(950,686,l),
(369,686,l),
(369,543,l)
);
},
{
closed = 1;
nodes = (
(375,905,l),
(375,786,l),
(939,783,l),
(939,900,l)
);
}
);
};
layerId = "816E4B99-7363-45E2-A2DF-0C5A75075B59";
shapes = (
{
ref = A;
},
{
pos = (250,-17);
ref = macroncomb;
}
);
width = 1320;
}
);
unicode = 256;
},
{
glyphname = Aogonek;
kernLeft = A;
kernRight = A;
lastChange = "2023-05-31 13:55:09 +0000";
layers = (
{
background = {
anchors = (
{
name = bottom;
pos = (678,0);
},
{
name = hook;
pos = (796,772);
},
{
name = ogonek;
pos = (1159,0);
},
{
name = top;
pos = (677,686);
}
);
shapes = (
{
closed = 1;
nodes = (
(237,18,l),
(679,662,l),
(674,662,l),
(1117,18,l),
(1155,18,l),
(701,673,ls),
(651,673,l),
(198,18,l)
);
},
{
closed = 1;
nodes = (
(441,0,l),
(441,31,l),
(-7,31,l),
(-7,0,l)
);
},
{
closed = 1;
nodes = (
(965,263,l),
(943,293,l),
(407,293,l),
(383,263,l)
);
},
{
closed = 1;
nodes = (
(1359,0,l),
(1359,31,l),
(912,31,l),
(912,0,l)
);
},
{
closed = 1;
nodes = (
(924,656,l),
(924,686,l),
(428,686,l),
(428,656,l)
);
},
{
closed = 1;
nodes = (
(1080,-287,o),
(1136,-260,o),
(1186,-216,c),
(1169,-196,l),
(1120,-234,o),
(1076,-258,o),
(1028,-258,cs),
(981,-258,o),
(946,-231,o),
(946,-183,cs),
(946,-123,o),
(1009,-52,o),
(1159,0,c),
(1128,5,l),
(981,-41,o),
(915,-121,o),
(915,-186,cs),
(915,-245,o),
(964,-287,o),
(1028,-287,cs)
);
}
);
};
layerId = "B29C398E-974A-40D0-A0A0-00935056D4B4";
shapes = (
{
ref = A;
},
{
pos = (924,0);
ref = ogonekcomb;
}
);
width = 1352;
},
{
background = {
anchors = (
{
name = bottom;
pos = (435,0);
},
{
name = hook;
pos = (535,766);
},
{
name = ogonek;
pos = (770,18);
},
{
name = top;
pos = (436,686);
}
);
shapes = (
{
closed = 1;
nodes = (
(158,18,l),
(431,662,l),
(440,662,l),
(713,18,l),
(750,18,l),
(462,673,ls),
(409,673,l),
(125,18,l)
);
},
{
closed = 1;
nodes = (
(296,0,l),
(296,31,l),
(-7,31,l),
(-7,0,l)
);
},
{
closed = 1;
nodes = (
(634,262,l),
(612,293,l),
(260,293,l),
(237,262,l)
);
},
{
closed = 1;
nodes = (
(880,0,l),
(880,31,l),
(580,31,l),
(580,0,l)
);
},
{
closed = 1;
nodes = (
(612,656,l),
(612,686,l),
(260,686,l),
(260,656,l)
);
},
{
closed = 1;
nodes = (
(734,-269,o),
(780,-235,o),
(800,-193,c),
(777,-179,l),
(759,-213,o),
(726,-240,o),
(686,-240,cs),
(650,-240,o),
(616,-216,o),
(616,-167,cs),
(616,-115,o),
(664,-39,o),
(770,18,c),
(742,23,l),
(636,-33,o),
(585,-108,o),
(585,-171,cs),
(585,-231,o),
(633,-269,o),
(686,-269,cs)
);
}
);
};
layerId = "543F9737-16F7-428D-9F96-2EBD9FC8D3B6";
shapes = (
{
ref = A;
},
{
pos = (535,18);
ref = ogonekcomb;
}
);
width = 873;
},
{
background = {
anchors = (
{
name = bottom;
pos = (415,0);
},
{
name = hook;
pos = (506,843);
},
{
name = ogonek;
pos = (702,0);
},
{
name = top;
pos = (411,686);
}
);
shapes = (
{
closed = 1;
nodes = (
(204,18,l),
(431,625,l),
(384,625,l),
(612,18,l),
(783,18,l),
(526,622,ls),
(304,622,l),
(48,18,l)
);
},
{
closed = 1;
nodes = (
(356,0,l),
(356,127,l),
(13,127,l),
(13,0,l)
);
},
{
closed = 1;
nodes = (
(582,227,l),
(560,339,l),
(262,339,l),
(238,227,l)
);
},
{
closed = 1;
nodes = (
(820,0,l),
(820,127,l),
(470,127,l),
(470,0,l)
);
},
{
closed = 1;
nodes = (
(622,560,l),
(622,686,l),
(207,686,l),
(207,560,l)
);
},
{
closed = 1;
nodes = (
(663,-277,o),
(703,-259,o),
(738,-233,c),
(697,-152,l),
(676,-164,o),
(660,-170,o),
(639,-170,cs),
(613,-170,o),
(592,-154,o),
(592,-123,cs),
(592,-88,o),
(621,-50,o),
(702,0,c),
(623,5,l),
(570,-20,o),
(483,-75,o),
(483,-164,cs),
(483,-243,o),
(550,-277,o),
(615,-277,cs)
);
}
);
};
layerId = "EB38A4D2-CD30-49BA-8E45-1F04A566FFE8";
shapes = (
{
ref = A;
},
{
pos = (476,0);
ref = ogonekcomb;
}
);
width = 833;
},
{
background = {
anchors = (
{
name = bottom;
pos = (667,0);
},
{
name = hook;
pos = (775,863);
},
{
name = ogonek;
pos = (1145,0);
},
{
name = top;
pos = (662,686);
}
);
shapes = (
{
closed = 1;
nodes = (
(283,18,l),
(702,603,l),
(620,603,l),
(1036,18,l),
(1246,18,l),
(789,596,ls),
(532,596,l),
(74,18,l)
);
},
{
closed = 1;
nodes = (
(495,0,l),
(495,144,l),
(-10,144,l),
(-10,0,l)
);
},
{
closed = 1;
nodes = (
(918,223,l),
(894,350,l),
(421,350,l),
(397,223,l)
);
},
{
closed = 1;
nodes = (
(1331,0,l),
(1331,144,l),
(827,144,l),
(827,0,l)
);
},
{
closed = 1;
nodes = (
(950,543,l),
(950,686,l),
(369,686,l),
(369,543,l)
);
},
{
closed = 1;
nodes = (
(1102,-279,o),
(1154,-255,o),
(1207,-219,c),
(1159,-125,l),
(1129,-144,o),
(1089,-163,o),
(1046,-163,cs),
(1011,-163,o),
(987,-147,o),
(987,-117,cs),
(987,-84,o),
(1043,-38,o),
(1145,0,c),
(1041,45,l),
(919,-3,o),
(858,-76,o),
(858,-152,cs),
(858,-240,o),
(937,-279,o),
(1020,-279,cs)
);
}
);
};
layerId = "816E4B99-7363-45E2-A2DF-0C5A75075B59";
shapes = (
{
ref = A;
},
{
pos = (871,12);
ref = ogonekcomb;
}
);
width = 1320;
}
);
unicode = 260;
},
{
glyphname = Aring;
kernLeft = A;
kernRight = A;
lastChange = "2023-05-31 13:55:09 +0000";
layers = (
{
background = {
anchors = (
{
name = bottom;
pos = (678,0);
},
{
name = hook;
pos = (796,772);
},
{
name = ogonek;
pos = (1159,0);
},
{
name = top;
pos = (677,686);
}
);
shapes = (
{
closed = 1;
nodes = (
(237,18,l),
(679,662,l),
(674,662,l),
(1117,18,l),
(1155,18,l),
(701,673,ls),
(651,673,l),
(198,18,l)
);
},
{
closed = 1;
nodes = (
(441,0,l),
(441,31,l),
(-7,31,l),
(-7,0,l)
);
},
{
closed = 1;
nodes = (
(965,263,l),
(943,293,l),
(407,293,l),
(383,263,l)
);
},
{
closed = 1;
nodes = (
(1359,0,l),
(1359,31,l),
(912,31,l),
(912,0,l)
);
},
{
closed = 1;
nodes = (
(924,656,l),
(924,686,l),
(428,686,l),
(428,656,l)
);
},
{
closed = 1;
nodes = (
(781,811,o),
(855,871,o),
(855,950,c),
(855,1034,o),
(781,1089,o),
(677,1089,c),
(578,1089,o),
(497,1034,o),
(497,950,c),
(497,871,o),
(578,811,o),
(677,811,c)
);
},
{
closed = 1;
nodes = (
(592,839,o),
(528,890,o),
(528,950,c),
(528,1014,o),
(592,1060,o),
(677,1060,c),
(766,1060,o),
(825,1014,o),
(825,950,c),
(825,890,o),
(766,839,o),
(677,839,c)
);
}
);
};
layerId = "B29C398E-974A-40D0-A0A0-00935056D4B4";
shapes = (
{
ref = A;
},
{
pos = (405,0);
ref = ringcomb;
}
);
width = 1352;
},
{
background = {
anchors = (
{
name = bottom;
pos = (435,0);
},
{
name = hook;
pos = (535,766);
},
{
name = ogonek;
pos = (770,18);
},
{
name = top;
pos = (436,686);
}
);
shapes = (
{
closed = 1;
nodes = (
(158,18,l),
(431,662,l),
(440,662,l),
(713,18,l),
(750,18,l),
(462,673,ls),
(409,673,l),
(125,18,l)
);
},
{
closed = 1;
nodes = (
(296,0,l),
(296,31,l),
(-7,31,l),
(-7,0,l)
);
},
{
closed = 1;
nodes = (
(634,262,l),
(612,293,l),
(260,293,l),
(237,262,l)
);
},
{
closed = 1;
nodes = (
(880,0,l),
(880,31,l),
(580,31,l),
(580,0,l)
);
},
{
closed = 1;
nodes = (
(612,656,l),
(612,686,l),
(260,686,l),
(260,656,l)
);
},
{
closed = 1;
nodes = (
(517,763,o),
(576,824,o),
(576,903,c),
(576,986,o),
(517,1042,o),
(436,1042,c),
(359,1042,o),
(293,986,o),
(293,903,c),
(293,824,o),
(359,763,o),
(436,763,c)
);
},
{
closed = 1;
nodes = (
(373,792,o),
(323,843,o),
(323,903,c),
(323,966,o),
(373,1012,o),
(436,1012,c),
(502,1012,o),
(546,966,o),
(546,903,c),
(546,843,o),
(502,792,o),
(436,792,c)
);
}
);
};
layerId = "543F9737-16F7-428D-9F96-2EBD9FC8D3B6";
shapes = (
{
ref = A;
},
{
pos = (220,0);
ref = ringcomb;
}
);
width = 873;
},
{
background = {
anchors = (
{
name = bottom;
pos = (415,0);
},
{
name = hook;
pos = (506,843);
},
{
name = ogonek;
pos = (702,0);
},
{
name = top;
pos = (411,686);
}
);
shapes = (
{
closed = 1;
nodes = (
(204,18,l),
(431,625,l),
(384,625,l),
(612,18,l),
(783,18,l),
(526,622,ls),
(304,622,l),
(48,18,l)
);
},
{
closed = 1;
nodes = (
(356,0,l),
(356,127,l),
(13,127,l),
(13,0,l)
);
},
{
closed = 1;
nodes = (
(582,227,l),
(560,339,l),
(262,339,l),
(238,227,l)
);
},
{
closed = 1;
nodes = (
(820,0,l),
(820,127,l),
(470,127,l),
(470,0,l)
);
},
{
closed = 1;
nodes = (
(622,560,l),
(622,686,l),
(207,686,l),
(207,560,l)
);
},
{
closed = 1;
nodes = (
(487,741,o),
(556,796,o),
(556,880,c),
(556,958,o),
(487,1021,o),
(411,1021,c),
(335,1021,o),
(268,965,o),
(268,882,c),
(268,803,o),
(335,741,o),
(411,741,c)
);
},
{
closed = 1;
nodes = (
(378,816,o),
(349,845,o),
(349,882,c),
(349,919,o),
(378,946,o),
(411,946,c),
(444,946,o),
(476,916,o),
(476,880,c),
(476,843,o),
(444,816,o),
(411,816,c)
);
}
);
};
layerId = "EB38A4D2-CD30-49BA-8E45-1F04A566FFE8";
shapes = (
{
ref = A;
},
{
pos = (211,0);
ref = ringcomb;
}
);
width = 833;
},
{
background = {
anchors = (
{
name = bottom;
pos = (667,0);
},
{
name = hook;
pos = (775,863);
},
{
name = ogonek;
pos = (1145,0);
},
{
name = top;
pos = (662,686);
}
);
shapes = (
{
closed = 1;
nodes = (
(283,18,l),
(702,603,l),
(620,603,l),
(1036,18,l),
(1246,18,l),
(789,596,ls),
(532,596,l),
(74,18,l)
);
},
{
closed = 1;
nodes = (
(495,0,l),
(495,144,l),
(-10,144,l),
(-10,0,l)
);
},
{
closed = 1;
nodes = (
(918,223,l),
(894,350,l),
(421,350,l),
(397,223,l)
);
},
{
closed = 1;
nodes = (
(1331,0,l),
(1331,144,l),
(827,144,l),
(827,0,l)
);
},
{
closed = 1;
nodes = (
(950,543,l),
(950,686,l),
(369,686,l),
(369,543,l)
);
},
{
closed = 1;
nodes = (
(764,726,o),
(846,779,o),
(846,865,c),
(846,942,o),
(764,1005,o),
(662,1005,cs),
(558,1005,o),
(482,950,o),
(482,866,c),
(482,787,o),
(558,726,o),
(662,726,cs)
);
},
{
closed = 1;
nodes = (
(603,808,o),
(571,834,o),
(571,866,c),
(571,898,o),
(603,923,o),
(662,923,cs),
(721,923,o),
(756,895,o),
(756,865,c),
(756,830,o),
(721,808,o),
(662,808,cs)
);
}
);
};
layerId = "816E4B99-7363-45E2-A2DF-0C5A75075B59";
shapes = (
{
ref = A;
},
{
pos = (420,0);
ref = ringcomb;
}
);
width = 1320;
}
);
unicode = 197;
},
{
glyphname = Atilde;
kernLeft = A;
kernRight = A;
lastChange = "2023-05-31 13:55:09 +0000";
layers = (
{
background = {
anchors = (
{
name = bottom;
pos = (678,0);
},
{
name = hook;
pos = (796,772);
},
{
name = ogonek;
pos = (1159,0);
},
{
name = top;
pos = (677,686);
}
);
shapes = (
{
closed = 1;
nodes = (
(237,18,l),
(679,662,l),
(674,662,l),
(1117,18,l),
(1155,18,l),
(701,673,ls),
(651,673,l),
(198,18,l)
);
},
{
closed = 1;
nodes = (
(441,0,l),
(441,31,l),
(-7,31,l),
(-7,0,l)
);
},
{
closed = 1;
nodes = (
(965,263,l),
(943,293,l),
(407,293,l),
(383,263,l)
);
},
{
closed = 1;
nodes = (
(1359,0,l),
(1359,31,l),
(912,31,l),
(912,0,l)
);
},
{
closed = 1;
nodes = (
(924,656,l),
(924,686,l),
(428,686,l),
(428,656,l)
);
},
{
closed = 1;
nodes = (
(880,826,o),
(929,886,o),
(944,975,c),
(916,979,l),
(901,891,o),
(855,856,o),
(806,856,cs),
(761,856,o),
(720,883,o),
(677,913,cs),
(631,945,o),
(588,979,o),
(528,979,cs),
(449,979,o),
(400,919,o),
(385,829,c),
(413,824,l),
(427,913,o),
(473,950,o),
(525,950,cs),
(571,950,o),
(610,923,o),
(652,892,cs),
(698,860,o),
(744,826,o),
(802,826,cs)
);
}
);
};
layerId = "B29C398E-974A-40D0-A0A0-00935056D4B4";
shapes = (
{
ref = A;
},
{
pos = (293,0);
ref = tildecomb;
}
);
width = 1352;
},
{
background = {
anchors = (
{
name = bottom;
pos = (435,0);
},
{
name = hook;
pos = (535,766);
},
{
name = ogonek;
pos = (770,18);
},
{
name = top;
pos = (436,686);
}
);
shapes = (
{
closed = 1;
nodes = (
(158,18,l),
(431,662,l),
(440,662,l),
(713,18,l),
(750,18,l),
(462,673,ls),
(409,673,l),
(125,18,l)
);
},
{
closed = 1;
nodes = (
(296,0,l),
(296,31,l),
(-7,31,l),
(-7,0,l)
);
},
{
closed = 1;
nodes = (
(634,262,l),
(612,293,l),
(260,293,l),
(237,262,l)
);
},
{
closed = 1;
nodes = (
(880,0,l),
(880,31,l),
(580,31,l),
(580,0,l)
);
},
{
closed = 1;
nodes = (
(612,656,l),
(612,686,l),
(260,686,l),
(260,656,l)
);
},
{
closed = 1;
nodes = (
(608,774,o),
(645,833,o),
(650,933,c),
(622,936,l),
(617,839,o),
(586,804,o),
(542,804,cs),
(507,804,o),
(486,827,o),
(453,873,cs),
(419,923,o),
(390,953,o),
(343,953,cs),
(277,953,o),
(242,895,o),
(237,794,c),
(264,792,l),
(270,889,o),
(300,924,o),
(343,924,cs),
(380,924,o),
(401,900,o),
(434,854,cs),
(468,805,o),
(496,774,o),
(542,774,cs)
);
}
);
};
layerId = "543F9737-16F7-428D-9F96-2EBD9FC8D3B6";
shapes = (
{
ref = A;
},
{
pos = (164,0);
ref = tildecomb;
}
);
width = 873;
},
{
background = {
anchors = (
{
name = bottom;
pos = (415,0);
},
{
name = hook;
pos = (506,843);
},
{
name = ogonek;
pos = (702,0);
},
{
name = top;
pos = (411,686);
}
);
shapes = (
{
closed = 1;
nodes = (
(204,18,l),
(431,625,l),
(384,625,l),
(612,18,l),
(783,18,l),
(526,622,ls),
(304,622,l),
(48,18,l)
);
},
{
closed = 1;
nodes = (
(356,0,l),
(356,127,l),
(13,127,l),
(13,0,l)
);
},
{
closed = 1;
nodes = (
(582,227,l),
(560,339,l),
(262,339,l),
(238,227,l)
);
},
{
closed = 1;
nodes = (
(820,0,l),
(820,127,l),
(470,127,l),
(470,0,l)
);
},
{
closed = 1;
nodes = (
(622,560,l),
(622,686,l),
(207,686,l),
(207,560,l)
);
},
{
closed = 1;
nodes = (
(562,748,o),
(605,827,o),
(605,906,c),
(521,913,l),
(517,871,o),
(510,831,o),
(481,831,cs),
(464,831,o),
(450,846,o),
(427,871,cs),
(398,898,o),
(369,928,o),
(312,928,cs),
(231,928,o),
(189,849,o),
(189,770,c),
(273,761,l),
(277,805,o),
(283,846,o),
(312,846,cs),
(330,846,o),
(344,831,o),
(369,805,cs),
(396,779,o),
(427,748,o),
(481,748,cs)
);
}
);
};
layerId = "EB38A4D2-CD30-49BA-8E45-1F04A566FFE8";
shapes = (
{
ref = A;
},
{
pos = (132,0);
ref = tildecomb;
}
);
width = 833;
},
{
background = {
anchors = (
{
name = bottom;
pos = (667,0);
},
{
name = hook;
pos = (775,863);
},
{
name = ogonek;
pos = (1145,0);
},
{
name = top;
pos = (662,686);
}
);
shapes = (
{
closed = 1;
nodes = (
(283,18,l),
(702,603,l),
(620,603,l),
(1036,18,l),
(1246,18,l),
(789,596,ls),
(532,596,l),
(74,18,l)
);
},
{
closed = 1;
nodes = (
(495,0,l),
(495,144,l),
(-10,144,l),
(-10,0,l)
);
},
{
closed = 1;
nodes = (
(918,223,l),
(894,350,l),
(421,350,l),
(397,223,l)
);
},
{
closed = 1;
nodes = (
(1331,0,l),
(1331,144,l),
(827,144,l),
(827,0,l)
);
},
{
closed = 1;
nodes = (
(950,543,l),
(950,686,l),
(369,686,l),
(369,543,l)
);
},
{
closed = 1;
nodes = (
(862,777,o),
(918,845,o),
(927,923,c),
(833,951,l),
(829,923,o),
(816,884,o),
(768,884,cs),
(740,884,o),
(708,899,o),
(672,915,cs),
(632,933,o),
(583,946,o),
(529,946,cs),
(430,946,o),
(374,877,o),
(366,798,c),
(460,769,l),
(469,813,o),
(491,841,o),
(525,841,cs),
(561,841,o),
(600,822,o),
(642,804,cs),
(681,787,o),
(721,777,o),
(766,777,cs)
);
}
);
};
layerId = "816E4B99-7363-45E2-A2DF-0C5A75075B59";
shapes = (
{
ref = A;
},
{
pos = (304,0);
ref = tildecomb;
}
);
width = 1320;
}
);
unicode = 195;
},
{
glyphname = AE;
kernLeft = AE;
kernRight = E;
lastChange = "2023-05-31 13:55:09 +0000";
layers = (
{
anchors = (
{
name = bottom;
pos = (1032,0);
},
{
name = ogonek;
pos = (1702,0);
},
{
name = top;
pos = (1034,686);
}
);
background = {
anchors = (
{
name = bottom;
pos = (1032,0);
},
{
name = ogonek;
pos = (1702,0);
},
{
name = top;
pos = (1034,686);
}
);
shapes = (
{
closed = 1;
nodes = (
(244,18,l),
(823,662,l),
(810,662,l),
(1126,18,l),
(1163,18,l),
(839,673,ls),
(788,673,l),
(200,18,l)
);
},
{
closed = 1;
nodes = (
(461,0,l),
(461,31,l),
(0,31,l),
(0,0,l)
);
},
{
closed = 1;
nodes = (
(1015,256,l),
(1015,286,l),
(474,286,l),
(442,256,l)
);
},
{
closed = 1;
nodes = (
(1702,0,l),
(1702,242,l),
(1670,242,l),
(1670,31,l),
(889,31,l),
(889,0,l)
);
},
{
closed = 1;
nodes = (
(1702,444,l),
(1702,686,l),
(546,686,l),
(546,656,l),
(1669,656,l),
(1669,444,l)
);
},
{
closed = 1;
nodes = (
(1317,359,l),
(986,359,l),
(986,328,l),
(1317,328,l),
(1317,186,l),
(1350,186,l),
(1350,501,l),
(1317,501,l)
);
}
);
};
layerId = "B29C398E-974A-40D0-A0A0-00935056D4B4";
shapes = (
{
closed = 1;
nodes = (
(244,18,l),
(823,662,l),
(810,662,l),
(1126,18,l),
(1163,18,l),
(839,673,ls),
(788,673,l),
(200,18,l)
);
},
{
closed = 1;
nodes = (
(461,0,l),
(461,31,l),
(0,31,l),
(0,0,l)
);
},
{
closed = 1;
nodes = (
(1015,256,l),
(1015,286,l),
(474,286,l),
(442,256,l)
);
},
{
closed = 1;
nodes = (
(1702,0,l),
(1702,242,l),
(1670,242,l),
(1670,31,l),
(889,31,l),
(889,0,l)
);
},
{
closed = 1;
nodes = (
(1702,444,l),
(1702,686,l),
(546,686,l),
(546,656,l),
(1669,656,l),
(1669,444,l)
);
},
{
closed = 1;
nodes = (
(1317,359,l),
(986,359,l),
(986,328,l),
(1317,328,l),
(1317,186,l),
(1350,186,l),
(1350,501,l),
(1317,501,l)
);
}
);
width = 1847;
},
{
anchors = (
{
name = bottom;
pos = (675,0);
},
{
name = ogonek;
pos = (1162,0);
},
{
name = top;
pos = (678,686);
}
);
background = {
anchors = (
{
name = bottom;
pos = (675,0);
},
{
name = ogonek;
pos = (1162,0);
},
{
name = top;
pos = (678,686);
}
);
shapes = (
{
closed = 1;
nodes = (
(165,18,l),
(573,661,l),
(573,661,l),
(746,18,l),
(783,18,l),
(601,673,ls),
(546,673,l),
(130,18,l)
);
},
{
closed = 1;
nodes = (
(303,0,l),
(303,31,l),
(0,31,l),
(0,0,l)
);
},
{
closed = 1;
nodes = (
(693,262,l),
(671,292,l),
(319,292,l),
(296,262,l)
);
},
{
closed = 1;
nodes = (
(1162,0,l),
(1162,179,l),
(1130,179,l),
(1130,31,l),
(613,31,l),
(613,0,l)
);
},
{
closed = 1;
nodes = (
(1162,507,l),
(1162,686,l),
(398,686,l),
(398,656,l),
(1129,656,l),
(1129,507,l)
);
},
{
closed = 1;
nodes = (
(923,359,l),
(678,359,l),
(678,328,l),
(923,328,l),
(923,219,l),
(956,219,l),
(956,468,l),
(923,468,l)
);
}
);
};
layerId = "543F9737-16F7-428D-9F96-2EBD9FC8D3B6";
shapes = (
{
closed = 1;
nodes = (
(165,18,l),
(573,661,l),
(573,661,l),
(746,18,l),
(783,18,l),
(601,673,ls),
(546,673,l),
(130,18,l)
);
},
{
closed = 1;
nodes = (
(303,0,l),
(303,31,l),
(0,31,l),
(0,0,l)
);
},
{
closed = 1;
nodes = (
(693,262,l),
(671,292,l),
(319,292,l),
(296,262,l)
);
},
{
closed = 1;
nodes = (
(1162,0,l),
(1162,179,l),
(1130,179,l),
(1130,31,l),
(613,31,l),
(613,0,l)
);
},
{
closed = 1;
nodes = (
(1162,507,l),
(1162,686,l),
(398,686,l),
(398,656,l),
(1129,656,l),
(1129,507,l)
);
},
{
closed = 1;
nodes = (
(923,359,l),
(678,359,l),
(678,328,l),
(923,328,l),
(923,219,l),
(956,219,l),
(956,468,l),
(923,468,l)
);
}
);
width = 1248;
},
{
anchors = (
{
name = bottom;
pos = (614,0);
},
{
name = ogonek;
pos = (1129,0);
},
{
name = top;
pos = (615,686);
}
);
background = {
anchors = (
{
name = bottom;
pos = (614,0);
},
{
name = ogonek;
pos = (1129,0);
},
{
name = top;
pos = (615,686);
}
);
shapes = (
{
closed = 1;
nodes = (
(173,18,l),
(521,612,l),
(460,612,l),
(609,18,l),
(772,18,l),
(614,608,ls),
(375,608,l),
(8,18,l)
);
},
{
closed = 1;
nodes = (
(321,0,l),
(321,127,l),
(1,127,l),
(1,0,l)
);
},
{
closed = 1;
nodes = (
(656,230,l),
(634,342,l),
(273,342,l),
(250,230,l)
);
},
{
closed = 1;
nodes = (
(1129,0,l),
(1129,255,l),
(986,255,l),
(986,127,l),
(463,127,l),
(463,0,l)
);
},
{
closed = 1;
nodes = (
(1129,437,l),
(1129,686,l),
(277,686,l),
(277,560,l),
(986,560,l),
(986,437,l)
);
},
{
closed = 1;
nodes = (
(787,400,l),
(581,400,l),
(581,286,l),
(787,286,l),
(787,207,l),
(906,207,l),
(906,479,l),
(787,479,l)
);
}
);
};
layerId = "EB38A4D2-CD30-49BA-8E45-1F04A566FFE8";
shapes = (
{
closed = 1;
nodes = (
(173,18,l),
(521,612,l),
(460,612,l),
(609,18,l),
(772,18,l),
(614,608,ls),
(375,608,l),
(8,18,l)
);
},
{
closed = 1;
nodes = (
(321,0,l),
(321,127,l),
(1,127,l),
(1,0,l)
);
},
{
closed = 1;
nodes = (
(656,230,l),
(634,342,l),
(273,342,l),
(250,230,l)
);
},
{
closed = 1;
nodes = (
(1129,0,l),
(1129,255,l),
(986,255,l),
(986,127,l),
(463,127,l),
(463,0,l)
);
},
{
closed = 1;
nodes = (
(1129,437,l),
(1129,686,l),
(277,686,l),
(277,560,l),
(986,560,l),
(986,437,l)
);
},
{
closed = 1;
nodes = (
(787,400,l),
(581,400,l),
(581,286,l),
(787,286,l),
(787,207,l),
(906,207,l),
(906,479,l),
(787,479,l)
);
}
);
width = 1195;
},
{
anchors = (
{
name = bottom;
pos = (980,0);
},
{
name = ogonek;
pos = (1574,0);
},
{
name = top;
pos = (981,686);
}
);
background = {
anchors = (
{
name = bottom;
pos = (980,0);
},
{
name = ogonek;
pos = (1574,0);
},
{
name = top;
pos = (981,686);
}
);
shapes = (
{
closed = 1;
nodes = (
(247,18,l),
(762,604,l),
(662,604,l),
(953,18,l),
(1137,18,l),
(842,596,ls),
(573,596,l),
(35,18,l)
);
},
{
closed = 1;
nodes = (
(468,0,l),
(468,144,l),
(-12,144,l),
(-12,0,l)
);
},
{
closed = 1;
nodes = (
(959,216,l),
(959,345,l),
(407,345,l),
(375,216,l)
);
},
{
closed = 1;
nodes = (
(1650,0,l),
(1650,315,l),
(1487,315,l),
(1487,144,l),
(699,144,l),
(699,0,l)
);
},
{
closed = 1;
nodes = (
(1650,378,l),
(1650,686,l),
(388,686,l),
(388,543,l),
(1487,543,l),
(1487,378,l)
);
},
{
closed = 1;
nodes = (
(1165,411,l),
(884,411,l),
(884,277,l),
(1165,277,l),
(1165,206,l),
(1309,206,l),
(1309,482,l),
(1165,482,l)
);
}
);
};
layerId = "816E4B99-7363-45E2-A2DF-0C5A75075B59";
shapes = (
{
closed = 1;
nodes = (
(247,18,l),
(762,604,l),
(662,604,l),
(953,18,l),
(1137,18,l),
(842,596,ls),
(573,596,l),
(35,18,l)
);
},
{
closed = 1;
nodes = (
(468,0,l),
(468,144,l),
(-12,144,l),
(-12,0,l)
);
},
{
closed = 1;
nodes = (
(959,216,l),
(959,345,l),
(407,345,l),
(375,216,l)
);
},
{
closed = 1;
nodes = (
(1650,0,l),
(1650,315,l),
(1487,315,l),
(1487,144,l),
(699,144,l),
(699,0,l)
);
},
{
closed = 1;
nodes = (
(1650,378,l),
(1650,686,l),
(388,686,l),
(388,543,l),
(1487,543,l),
(1487,378,l)
);
},
{
closed = 1;
nodes = (
(1165,411,l),
(884,411,l),
(884,277,l),
(1165,277,l),
(1165,206,l),
(1309,206,l),
(1309,482,l),
(1165,482,l)
);
}
);
width = 1754;
}
);
metricRight = "=E";
unicode = 198;
},
{
glyphname = B;
kernLeft = H;
kernRight = B;
lastChange = "2023-05-31 13:55:09 +0000";
layers = (
{
anchors = (
{
name = bottom;
pos = (609,0);
},
{
name = top;
pos = (609,686);
}
);
background = {
anchors = (
{
name = bottom;
pos = (609,0);
},
{
name = top;
pos = (609,686);
}
);
shapes = (
{
closed = 1;
nodes = (
(889,0,ls),
(1043,0,o),
(1137,59,o),
(1137,179,cs),
(1137,305,o),
(1031,356,o),
(877,356,c),
(877,345,l),
(1023,345,o),
(1093,416,o),
(1093,516,cs),
(1093,619,o),
(1014,686,o),
(880,686,cs),
(74,686,l),
(74,655,l),
(877,655,ls),
(981,655,o),
(1060,614,o),
(1060,516,cs),
(1060,417,o),
(983,368,o),
(872,368,cs),
(336,368,l),
(336,336,l),
(866,335,ls),
(997,335,o),
(1104,293,o),
(1104,180,cs),
(1104,73,o),
(1015,31,o),
(880,31,cs),
(74,31,l),
(74,0,l)
);
},
{
closed = 1;
nodes = (
(348,19,l),
(348,671,l),
(315,671,l),
(315,19,l)
);
}
);
};
layerId = "B29C398E-974A-40D0-A0A0-00935056D4B4";
shapes = (
{
closed = 1;
nodes = (
(889,0,ls),
(1043,0,o),
(1137,59,o),
(1137,179,cs),
(1137,305,o),
(1031,356,o),
(877,356,c),
(877,345,l),
(1023,345,o),
(1093,416,o),
(1093,516,cs),
(1093,619,o),
(1014,686,o),
(880,686,cs),
(74,686,l),
(74,655,l),
(877,655,ls),
(981,655,o),
(1060,614,o),
(1060,516,cs),
(1060,417,o),
(983,368,o),
(872,368,cs),
(336,368,l),
(336,336,l),
(866,335,ls),
(997,335,o),
(1104,293,o),
(1104,180,cs),
(1104,73,o),
(1015,31,o),
(880,31,cs),
(74,31,l),
(74,0,l)
);
},
{
closed = 1;
nodes = (
(348,19,l),
(348,671,l),
(315,671,l),
(315,19,l)
);
}
);
width = 1269;
},
{
anchors = (
{
name = bottom;
pos = (372,0);
},
{
name = top;
pos = (372,686);
}
);
background = {
anchors = (
{
name = bottom;
pos = (372,0);
},
{
name = top;
pos = (372,686);
}
);
shapes = (
{
closed = 1;
nodes = (
(433,0,ls),
(587,0,o),
(682,59,o),
(682,179,cs),
(682,305,o),
(575,356,o),
(421,356,c),
(421,345,l),
(568,345,o),
(638,416,o),
(638,516,cs),
(638,619,o),
(559,686,o),
(425,686,cs),
(40,686,l),
(40,655,l),
(421,655,ls),
(526,655,o),
(605,614,o),
(605,516,cs),
(605,417,o),
(528,367,o),
(417,367,cs),
(210,367,l),
(210,337,l),
(410,336,ls),
(541,334,o),
(649,293,o),
(649,180,cs),
(649,73,o),
(560,31,o),
(425,31,cs),
(40,31,l),
(40,0,l)
);
},
{
closed = 1;
nodes = (
(222,19,l),
(222,671,l),
(189,671,l),
(189,19,l)
);
}
);
};
layerId = "543F9737-16F7-428D-9F96-2EBD9FC8D3B6";
shapes = (
{
closed = 1;
nodes = (
(433,0,ls),
(587,0,o),
(682,59,o),
(682,179,cs),
(682,305,o),
(575,356,o),
(421,356,c),
(421,345,l),
(568,345,o),
(638,416,o),
(638,516,cs),
(638,619,o),
(559,686,o),
(425,686,cs),
(40,686,l),
(40,655,l),
(421,655,ls),
(526,655,o),
(605,614,o),
(605,516,cs),
(605,417,o),
(528,367,o),
(417,367,cs),
(210,367,l),
(210,337,l),
(410,336,ls),
(541,334,o),
(649,293,o),
(649,180,cs),
(649,73,o),
(560,31,o),
(425,31,cs),
(40,31,l),
(40,0,l)
);
},
{
closed = 1;
nodes = (
(222,19,l),
(222,671,l),
(189,671,l),
(189,19,l)
);
}
);
width = 755;
},
{
anchors = (
{
name = bottom;
pos = (359,0);
},
{
name = top;
pos = (359,686);
}
);
background = {
anchors = (
{
name = bottom;
pos = (359,0);
},
{
name = top;
pos = (359,686);
}
);
shapes = (
{
closed = 1;
nodes = (
(451,0,ls),
(631,0,o),
(724,73,o),
(724,194,cs),
(724,355,o),
(554,378,o),
(435,378,c),
(436,317,l),
(524,317,o),
(669,365,o),
(669,501,cs),
(669,607,o),
(590,686,o),
(429,686,cs),
(33,686,l),
(33,559,l),
(420,559,ls),
(459,559,o),
(507,542,o),
(507,480,cs),
(507,418,o),
(461,398,o),
(390,398,cs),
(252,398,l),
(252,284,l),
(451,284,ls),
(527,284,o),
(562,260,o),
(562,207,cs),
(562,150,o),
(516,127,o),
(440,127,cs),
(33,127,l),
(33,0,l)
);
},
{
closed = 1;
nodes = (
(304,70,l),
(304,613,l),
(145,613,l),
(145,70,l)
);
}
);
};
layerId = "EB38A4D2-CD30-49BA-8E45-1F04A566FFE8";
shapes = (
{
closed = 1;
nodes = (
(451,0,ls),
(631,0,o),
(724,73,o),
(724,194,cs),
(724,355,o),
(554,378,o),
(435,378,c),
(436,317,l),
(524,317,o),
(669,365,o),
(669,501,cs),
(669,607,o),
(590,686,o),
(429,686,cs),
(33,686,l),
(33,559,l),
(420,559,ls),
(459,559,o),
(507,542,o),
(507,480,cs),
(507,418,o),
(461,398,o),
(390,398,cs),
(252,398,l),
(252,284,l),
(451,284,ls),
(527,284,o),
(562,260,o),
(562,207,cs),
(562,150,o),
(516,127,o),
(440,127,cs),
(33,127,l),
(33,0,l)
);
},
{
closed = 1;
nodes = (
(304,70,l),
(304,613,l),
(145,613,l),
(145,70,l)
);
}
);
width = 757;
},
{
anchors = (
{
name = bottom;
pos = (588,0);
},
{
name = top;
pos = (588,686);
}
);
background = {
anchors = (
{
name = bottom;
pos = (588,0);
},
{
name = top;
pos = (588,686);
}
);
shapes = (
{
closed = 1;
nodes = (
(927,0,ls),
(1113,0,o),
(1205,82,o),
(1205,193,cs),
(1205,312,o),
(1099,375,o),
(910,375,c),
(911,335,l),
(1063,335,o),
(1148,406,o),
(1148,498,cs),
(1148,605,o),
(1069,686,o),
(903,686,cs),
(60,686,l),
(60,542,l),
(875,542,ls),
(931,542,o),
(963,517,o),
(963,473,cs),
(963,434,o),
(926,409,o),
(875,409,cs),
(379,409,l),
(379,281,l),
(916,281,ls),
(982,281,o),
(1019,256,o),
(1019,214,cs),
(1019,172,o),
(982,144,o),
(916,144,cs),
(60,144,l),
(60,0,l)
);
},
{
closed = 1;
nodes = (
(442,79,l),
(442,602,l),
(257,602,l),
(257,79,l)
);
}
);
};
layerId = "816E4B99-7363-45E2-A2DF-0C5A75075B59";
shapes = (
{
closed = 1;
nodes = (
(927,0,ls),
(1113,0,o),
(1205,82,o),
(1205,193,cs),
(1205,312,o),
(1099,375,o),
(910,375,c),
(911,335,l),
(1063,335,o),
(1148,406,o),
(1148,498,cs),
(1148,605,o),
(1069,686,o),
(903,686,cs),
(60,686,l),
(60,542,l),
(875,542,ls),
(931,542,o),
(963,517,o),
(963,473,cs),
(963,434,o),
(926,409,o),
(875,409,cs),
(379,409,l),
(379,281,l),
(916,281,ls),
(982,281,o),
(1019,256,o),
(1019,214,cs),
(1019,172,o),
(982,144,o),
(916,144,cs),
(60,144,l),
(60,0,l)
);
},
{
closed = 1;
nodes = (
(442,79,l),
(442,602,l),
(257,602,l),
(257,79,l)
);
}
);
width = 1268;
}
);
metricLeft = "=H";
unicode = 66;
},
{
glyphname = C;
kernLeft = O;
kernRight = C;
lastChange = "2023-05-31 13:55:09 +0000";
layers = (
{
anchors = (
{
name = bottom;
pos = (569,-14);
},
{
name = top;
pos = (580,700);
}
);
background = {
anchors = (
{
name = bottom;
pos = (569,-14);
},
{
name = top;
pos = (580,700);
}
);
shapes = (
{
closed = 1;
nodes = (
(851,-14,o),
(992,112,o),
(1055,222,c),
(1028,239,l),
(975,141,o),
(831,17,o),
(569,17,c),
(329,17,o),
(132,140,o),
(132,343,c),
(132,547,o),
(336,669,o),
(580,669,cs),
(761,669,o),
(916,608,o),
(1035,436,c),
(1051,438,l),
(1051,686,l),
(1020,686,l),
(1020,476,l),
(1035,476,l),
(944,608,o),
(792,700,o),
(580,700,cs),
(325,700,o),
(99,570,o),
(99,343,c),
(99,117,o),
(316,-14,o),
(569,-14,c)
);
}
);
};
layerId = "B29C398E-974A-40D0-A0A0-00935056D4B4";
shapes = (
{
closed = 1;
nodes = (
(851,-14,o),
(992,112,o),
(1055,222,c),
(1028,239,l),
(975,141,o),
(831,17,o),
(569,17,c),
(329,17,o),
(132,140,o),
(132,343,c),
(132,547,o),
(336,669,o),
(580,669,cs),
(761,669,o),
(916,608,o),
(1035,436,c),
(1051,438,l),
(1051,686,l),
(1020,686,l),
(1020,476,l),
(1035,476,l),
(944,608,o),
(792,700,o),
(580,700,cs),
(325,700,o),
(99,570,o),
(99,343,c),
(99,117,o),
(316,-14,o),
(569,-14,c)
);
}
);
width = 1174;
},
{
anchors = (
{
name = bottom;
pos = (402,-14);
},
{
name = top;
pos = (403,700);
}
);
background = {
anchors = (
{
name = bottom;
pos = (402,-14);
},
{
name = top;
pos = (403,700);
}
);
shapes = (
{
closed = 1;
nodes = (
(554,-14,o),
(637,65,o),
(682,127,c),
(659,148,l),
(615,87,o),
(534,17,o),
(404,17,cs),
(237,17,o),
(106,146,o),
(106,343,cs),
(106,540,o),
(243,669,o),
(404,669,cs),
(539,669,o),
(619,600,o),
(671,482,c),
(686,483,l),
(688,686,l),
(657,686,l),
(655,527,l),
(672,520,l),
(640,612,o),
(550,700,o),
(404,700,cs),
(232,700,o),
(73,563,o),
(73,343,cs),
(73,123,o),
(223,-14,o),
(404,-14,cs)
);
}
);
};
layerId = "543F9737-16F7-428D-9F96-2EBD9FC8D3B6";
shapes = (
{
closed = 1;
nodes = (
(554,-14,o),
(637,65,o),
(682,127,c),
(659,148,l),
(615,87,o),
(534,17,o),
(404,17,cs),
(237,17,o),
(106,146,o),
(106,343,cs),
(106,540,o),
(243,669,o),
(404,669,cs),
(539,669,o),
(619,600,o),
(671,482,c),
(686,483,l),
(688,686,l),
(657,686,l),
(655,527,l),
(672,520,l),
(640,612,o),
(550,700,o),
(404,700,cs),
(232,700,o),
(73,563,o),
(73,343,cs),
(73,123,o),
(223,-14,o),
(404,-14,cs)
);
}
);
width = 754;
},
{
anchors = (
{
name = bottom;
pos = (408,-14);
},
{
name = top;
pos = (388,700);
}
);
background = {
anchors = (
{
name = bottom;
pos = (408,-14);
},
{
name = top;
pos = (388,700);
}
);
shapes = (
{
closed = 1;
nodes = (
(553,-13,o),
(661,55,o),
(732,163,c),
(628,248,l),
(574,168,o),
(515,118,o),
(408,118,cs),
(293,118,o),
(202,217,o),
(202,343,cs),
(202,490,o),
(299,573,o),
(398,573,cs),
(507,573,o),
(572,509,o),
(606,437,c),
(713,447,l),
(713,686,l),
(568,686,l),
(568,548,l),
(640,527,l),
(587,634,o),
(502,700,o),
(372,700,cs),
(189,700,o),
(33,554,o),
(33,341,cs),
(33,143,o),
(196,-13,o),
(408,-13,cs)
);
}
);
};
layerId = "EB38A4D2-CD30-49BA-8E45-1F04A566FFE8";
shapes = (
{
closed = 1;
nodes = (
(553,-13,o),
(661,55,o),
(732,163,c),
(628,248,l),
(574,168,o),
(515,118,o),
(408,118,cs),
(293,118,o),
(202,217,o),
(202,343,cs),
(202,490,o),
(299,573,o),
(398,573,cs),
(507,573,o),
(572,509,o),
(606,437,c),
(713,447,l),
(713,686,l),
(568,686,l),
(568,548,l),
(640,527,l),
(587,634,o),
(502,700,o),
(372,700,cs),
(189,700,o),
(33,554,o),
(33,341,cs),
(33,143,o),
(196,-13,o),
(408,-13,cs)
);
}
);
width = 762;
},
{
anchors = (
{
name = bottom;
pos = (614,-14);
},
{
name = top;
pos = (573,700);
}
);
background = {
anchors = (
{
name = bottom;
pos = (614,-14);
},
{
name = top;
pos = (573,700);
}
);
shapes = (
{
closed = 1;
nodes = (
(805,-13,o),
(985,56,o),
(1107,136,c),
(1028,269,l),
(907,186,o),
(763,136,o),
(575,136,c),
(396,136,o),
(248,216,o),
(248,343,c),
(248,458,o),
(356,556,o),
(553,556,cs),
(733,556,o),
(875,500,o),
(975,414,c),
(1098,438,l),
(1097,686,l),
(934,686,l),
(935,533,l),
(1014,515,l),
(898,635,o),
(735,700,o),
(553,700,cs),
(275,700,o),
(53,571,o),
(53,341,c),
(53,113,o),
(281,-13,o),
(575,-13,c)
);
}
);
};
layerId = "816E4B99-7363-45E2-A2DF-0C5A75075B59";
shapes = (
{
closed = 1;
nodes = (
(805,-13,o),
(985,56,o),
(1107,136,c),
(1028,269,l),
(907,186,o),
(763,136,o),
(575,136,c),
(396,136,o),
(248,216,o),
(248,343,c),
(248,458,o),
(356,556,o),
(553,556,cs),
(733,556,o),
(875,500,o),
(975,414,c),
(1098,438,l),
(1097,686,l),
(934,686,l),
(935,533,l),
(1014,515,l),
(898,635,o),
(735,700,o),
(553,700,cs),
(275,700,o),
(53,571,o),
(53,341,c),
(53,113,o),
(281,-13,o),
(575,-13,c)
);
}
);
width = 1162;
}
);
metricLeft = "=O";
unicode = 67;
},
{
glyphname = Cacute;
kernLeft = O;
kernRight = C;
lastChange = "2023-05-31 13:55:09 +0000";
layers = (
{
background = {
anchors = (
{
name = bottom;
pos = (569,-14);
},
{
name = top;
pos = (580,700);
}
);
shapes = (
{
closed = 1;
nodes = (
(851,-14,o),
(992,112,o),
(1055,222,c),
(1028,239,l),
(975,141,o),
(831,17,o),
(569,17,c),
(329,17,o),
(132,140,o),
(132,343,c),
(132,547,o),
(336,669,o),
(580,669,cs),
(761,669,o),
(916,608,o),
(1035,436,c),
(1051,438,l),
(1051,686,l),
(1020,686,l),
(1020,476,l),
(1035,476,l),
(944,608,o),
(792,700,o),
(580,700,cs),
(325,700,o),
(99,570,o),
(99,343,c),
(99,117,o),
(316,-14,o),
(569,-14,c)
);
},
{
closed = 1;
nodes = (
(800,992,l),
(820,956,l),
(502,785,l),
(490,806,l)
);
}
);
};
layerId = "B29C398E-974A-40D0-A0A0-00935056D4B4";
shapes = (
{
ref = C;
},
{
pos = (424,14);
ref = acutecomb;
}
);
width = 1174;
},
{
background = {
anchors = (
{
name = bottom;
pos = (402,-14);
},
{
name = top;
pos = (403,700);
}
);
shapes = (
{
closed = 1;
nodes = (
(554,-14,o),
(637,65,o),
(682,127,c),
(659,148,l),
(615,87,o),
(534,17,o),
(404,17,cs),
(237,17,o),
(106,146,o),
(106,343,cs),
(106,540,o),
(243,669,o),
(404,669,cs),
(539,669,o),
(619,600,o),
(671,482,c),
(686,483,l),
(688,686,l),
(657,686,l),
(655,527,l),
(672,520,l),
(640,612,o),
(550,700,o),
(404,700,cs),
(232,700,o),
(73,563,o),
(73,343,cs),
(73,123,o),
(223,-14,o),
(404,-14,cs)
);
},
{
closed = 1;
nodes = (
(574,985,l),
(598,957,l),
(377,777,l),
(362,793,l)
);
}
);
};
layerId = "543F9737-16F7-428D-9F96-2EBD9FC8D3B6";
shapes = (
{
ref = C;
},
{
pos = (270,14);
ref = acutecomb;
}
);
width = 754;
},
{
background = {
anchors = (
{
name = bottom;
pos = (408,-14);
},
{
name = top;
pos = (388,700);
}
);
shapes = (
{
closed = 1;
nodes = (
(553,-13,o),
(661,55,o),
(732,163,c),
(628,248,l),
(574,168,o),
(515,118,o),
(408,118,cs),
(293,118,o),
(202,217,o),
(202,343,cs),
(202,490,o),
(299,573,o),
(398,573,cs),
(507,573,o),
(572,509,o),
(606,437,c),
(713,447,l),
(713,686,l),
(568,686,l),
(568,548,l),
(640,527,l),
(587,634,o),
(502,700,o),
(372,700,cs),
(189,700,o),
(33,554,o),
(33,341,cs),
(33,143,o),
(196,-13,o),
(408,-13,cs)
);
},
{
closed = 1;
nodes = (
(518,981,l),
(595,871,l),
(371,750,l),
(331,807,l)
);
}
);
};
layerId = "EB38A4D2-CD30-49BA-8E45-1F04A566FFE8";
shapes = (
{
ref = C;
},
{
pos = (228,44);
ref = acutecomb;
}
);
width = 762;
},
{
background = {
anchors = (
{
name = bottom;
pos = (614,-14);
},
{
name = top;
pos = (573,700);
}
);
shapes = (
{
closed = 1;
nodes = (
(805,-13,o),
(985,56,o),
(1107,136,c),
(1028,269,l),
(907,186,o),
(763,136,o),
(575,136,c),
(396,136,o),
(248,216,o),
(248,343,c),
(248,458,o),
(356,556,o),
(553,556,cs),
(733,556,o),
(875,500,o),
(975,414,c),
(1098,438,l),
(1097,686,l),
(934,686,l),
(935,533,l),
(1014,515,l),
(898,635,o),
(735,700,o),
(553,700,cs),
(275,700,o),
(53,571,o),
(53,341,c),
(53,113,o),
(281,-13,o),
(575,-13,c)
);
},
{
closed = 1;
nodes = (
(727,1043,l),
(806,918,l),
(480,758,l),
(431,824,l)
);
}
);
};
layerId = "816E4B99-7363-45E2-A2DF-0C5A75075B59";
shapes = (
{
ref = C;
},
{
pos = (211,45);
ref = acutecomb;
}
);
width = 1162;
}
);
unicode = 262;
},
{
glyphname = Ccaron;
kernLeft = O;
kernRight = C;
lastChange = "2023-05-31 13:55:09 +0000";
layers = (
{
background = {
anchors = (
{
name = bottom;
pos = (569,-14);
},
{
name = top;
pos = (580,700);
}
);
shapes = (
{
closed = 1;
nodes = (
(851,-14,o),
(992,112,o),
(1055,222,c),
(1028,239,l),
(975,141,o),
(831,17,o),
(569,17,c),
(329,17,o),
(132,140,o),
(132,343,c),
(132,547,o),
(336,669,o),
(580,669,cs),
(761,669,o),
(916,608,o),
(1035,436,c),
(1051,438,l),
(1051,686,l),
(1020,686,l),
(1020,476,l),
(1035,476,l),
(944,608,o),
(792,700,o),
(580,700,cs),
(325,700,o),
(99,570,o),
(99,343,c),
(99,117,o),
(316,-14,o),
(569,-14,c)
);
},
{
closed = 1;
nodes = (
(580,827,l),
(361,995,l),
(347,978,l),
(567,791,l),
(593,791,l),
(814,978,l),
(800,995,l)
);
}
);
};
layerId = "B29C398E-974A-40D0-A0A0-00935056D4B4";
shapes = (
{
ref = C;
},
{
pos = (274,14);
ref = caroncomb;
}
);
width = 1174;
},
{
background = {
anchors = (
{
name = bottom;
pos = (402,-14);
},
{
name = top;
pos = (403,700);
}
);
shapes = (
{
closed = 1;
nodes = (
(554,-14,o),
(637,65,o),
(682,127,c),
(659,148,l),
(615,87,o),
(534,17,o),
(404,17,cs),
(237,17,o),
(106,146,o),
(106,343,cs),
(106,540,o),
(243,669,o),
(404,669,cs),
(539,669,o),
(619,600,o),
(671,482,c),
(686,483,l),
(688,686,l),
(657,686,l),
(655,527,l),
(672,520,l),
(640,612,o),
(550,700,o),
(404,700,cs),
(232,700,o),
(73,563,o),
(73,343,cs),
(73,123,o),
(223,-14,o),
(404,-14,cs)
);
},
{
closed = 1;
nodes = (
(403,829,l),
(244,986,l),
(229,970,l),
(390,791,l),
(416,791,l),
(578,970,l),
(564,986,l)
);
}
);
};
layerId = "543F9737-16F7-428D-9F96-2EBD9FC8D3B6";
shapes = (
{
ref = C;
},
{
pos = (183,14);
ref = caroncomb;
}
);
width = 754;
},
{
background = {
anchors = (
{
name = bottom;
pos = (408,-14);
},
{
name = top;
pos = (388,700);
}
);
shapes = (
{
closed = 1;
nodes = (
(553,-13,o),
(661,55,o),
(732,163,c),
(628,248,l),
(574,168,o),
(515,118,o),
(408,118,cs),
(293,118,o),
(202,217,o),
(202,343,cs),
(202,490,o),
(299,573,o),
(398,573,cs),
(507,573,o),
(572,509,o),
(606,437,c),
(713,447,l),
(713,686,l),
(568,686,l),
(568,548,l),
(640,527,l),
(587,634,o),
(502,700,o),
(372,700,cs),
(189,700,o),
(33,554,o),
(33,341,cs),
(33,143,o),
(196,-13,o),
(408,-13,cs)
);
},
{
closed = 1;
nodes = (
(389,882,l),
(253,980,l),
(207,937,l),
(352,764,l),
(426,764,l),
(571,937,l),
(525,980,l)
);
}
);
};
layerId = "EB38A4D2-CD30-49BA-8E45-1F04A566FFE8";
shapes = (
{
ref = C;
},
{
pos = (176,14);
ref = caroncomb;
}
);
width = 762;
},
{
background = {
anchors = (
{
name = bottom;
pos = (614,-14);
},
{
name = top;
pos = (573,700);
}
);
shapes = (
{
closed = 1;
nodes = (
(805,-13,o),
(985,56,o),
(1107,136,c),
(1028,269,l),
(907,186,o),
(763,136,o),
(575,136,c),
(396,136,o),
(248,216,o),
(248,343,c),
(248,458,o),
(356,556,o),
(553,556,cs),
(733,556,o),
(875,500,o),
(975,414,c),
(1098,438,l),
(1097,686,l),
(934,686,l),
(935,533,l),
(1014,515,l),
(898,635,o),
(735,700,o),
(553,700,cs),
(275,700,o),
(53,571,o),
(53,341,c),
(53,113,o),
(281,-13,o),
(575,-13,c)
);
},
{
closed = 1;
nodes = (
(574,873,l),
(375,948,l),
(346,898,l),
(525,764,l),
(623,764,l),
(801,898,l),
(773,948,l)
);
}
);
};
layerId = "816E4B99-7363-45E2-A2DF-0C5A75075B59";
shapes = (
{
ref = C;
},
{
pos = (288,14);
ref = caroncomb;
}
);
width = 1162;
}
);
unicode = 268;
},
{
glyphname = Ccedilla;
kernLeft = O;
kernRight = C;
lastChange = "2023-05-31 13:55:09 +0000";
layers = (
{
background = {
anchors = (
{
name = bottom;
pos = (569,-14);
},
{
name = top;
pos = (580,700);
}
);
shapes = (
{
closed = 1;
nodes = (
(851,-14,o),
(992,112,o),
(1055,222,c),
(1028,239,l),
(975,141,o),
(831,17,o),
(569,17,c),
(329,17,o),
(132,140,o),
(132,343,c),
(132,547,o),
(336,669,o),
(580,669,cs),
(761,669,o),
(916,608,o),
(1035,436,c),
(1051,438,l),
(1051,686,l),
(1020,686,l),
(1020,476,l),
(1035,476,l),
(944,608,o),
(792,700,o),
(580,700,cs),
(325,700,o),
(99,570,o),
(99,343,c),
(99,117,o),
(316,-14,o),
(569,-14,c)
);
},
{
closed = 1;
nodes = (
(681,-245,o),
(732,-216,o),
(732,-166,cs),
(732,-118,o),
(683,-89,o),
(610,-89,cs),
(581,-89,o),
(561,-91,o),
(540,-92,c),
(574,6,l),
(547,6,l),
(504,-114,l),
(511,-121,l),
(539,-119,o),
(567,-116,o),
(610,-116,cs),
(670,-116,o),
(701,-134,o),
(701,-166,cs),
(701,-200,o),
(660,-216,o),
(587,-216,cs),
(507,-216,o),
(449,-194,o),
(416,-178,c),
(404,-205,l),
(441,-221,o),
(500,-245,o),
(587,-245,cs)
);
}
);
};
layerId = "B29C398E-974A-40D0-A0A0-00935056D4B4";
shapes = (
{
ref = C;
},
{
pos = (341,-14);
ref = cedillacomb;
}
);
width = 1174;
},
{
background = {
anchors = (
{
name = bottom;
pos = (402,-14);
},
{
name = top;
pos = (403,700);
}
);
shapes = (
{
closed = 1;
nodes = (
(554,-14,o),
(637,65,o),
(682,127,c),
(659,148,l),
(615,87,o),
(534,17,o),
(404,17,cs),
(237,17,o),
(106,146,o),
(106,343,cs),
(106,540,o),
(243,669,o),
(404,669,cs),
(539,669,o),
(619,600,o),
(671,482,c),
(686,483,l),
(688,686,l),
(657,686,l),
(655,527,l),
(672,520,l),
(640,612,o),
(550,700,o),
(404,700,cs),
(232,700,o),
(73,563,o),
(73,343,cs),
(73,123,o),
(223,-14,o),
(404,-14,cs)
);
},
{
closed = 1;
nodes = (
(462,-247,o),
(505,-214,o),
(505,-168,cs),
(505,-124,o),
(469,-89,o),
(406,-89,cs),
(392,-89,o),
(381,-90,o),
(371,-91,c),
(407,1,l),
(381,1,l),
(334,-115,l),
(339,-122,l),
(356,-119,o),
(375,-117,o),
(401,-117,cs),
(448,-117,o),
(474,-135,o),
(474,-168,cs),
(474,-200,o),
(442,-218,o),
(394,-218,cs),
(354,-218,o),
(315,-206,o),
(275,-180,c),
(261,-207,l),
(309,-236,o),
(347,-247,o),
(394,-247,cs)
);
}
);
};
layerId = "543F9737-16F7-428D-9F96-2EBD9FC8D3B6";
shapes = (
{
ref = C;
},
{
pos = (240,-14);
ref = cedillacomb;
}
);
width = 754;
},
{
background = {
anchors = (
{
name = bottom;
pos = (408,-14);
},
{
name = top;
pos = (388,700);
}
);
shapes = (
{
closed = 1;
nodes = (
(553,-13,o),
(661,55,o),
(732,163,c),
(628,248,l),
(574,168,o),
(515,118,o),
(408,118,cs),
(293,118,o),
(202,217,o),
(202,343,cs),
(202,490,o),
(299,573,o),
(398,573,cs),
(507,573,o),
(572,509,o),
(606,437,c),
(713,447,l),
(713,686,l),
(568,686,l),
(568,548,l),
(640,527,l),
(587,634,o),
(502,700,o),
(372,700,cs),
(189,700,o),
(33,554,o),
(33,341,cs),
(33,143,o),
(196,-13,o),
(408,-13,cs)
);
},
{
closed = 1;
nodes = (
(429,-277,o),
(507,-234,o),
(507,-158,cs),
(507,-97,o),
(461,-62,o),
(402,-62,cs),
(396,-62,o),
(391,-62,o),
(388,-62,c),
(421,16,l),
(348,16,l),
(294,-112,l),
(302,-122,l),
(319,-120,o),
(335,-118,o),
(356,-118,cs),
(388,-118,o),
(413,-132,o),
(413,-158,cs),
(413,-182,o),
(390,-198,o),
(358,-198,cs),
(321,-198,o),
(285,-182,o),
(248,-153,c),
(207,-220,l),
(250,-252,o),
(300,-277,o),
(358,-277,cs)
);
}
);
};
layerId = "EB38A4D2-CD30-49BA-8E45-1F04A566FFE8";
shapes = (
{
ref = C;
},
{
pos = (208,-14);
ref = cedillacomb;
}
);
width = 762;
},
{
background = {
anchors = (
{
name = bottom;
pos = (614,-14);
},
{
name = top;
pos = (573,700);
}
);
shapes = (
{
closed = 1;
nodes = (
(805,-13,o),
(985,56,o),
(1107,136,c),
(1028,269,l),
(907,186,o),
(763,136,o),
(575,136,c),
(396,136,o),
(248,216,o),
(248,343,c),
(248,458,o),
(356,556,o),
(553,556,cs),
(733,556,o),
(875,500,o),
(975,414,c),
(1098,438,l),
(1097,686,l),
(934,686,l),
(935,533,l),
(1014,515,l),
(898,635,o),
(735,700,o),
(553,700,cs),
(275,700,o),
(53,571,o),
(53,341,c),
(53,113,o),
(281,-13,o),
(575,-13,c)
);
},
{
closed = 1;
nodes = (
(719,-283,o),
(787,-230,o),
(787,-166,cs),
(787,-100,o),
(724,-64,o),
(647,-64,cs),
(636,-64,o),
(611,-65,o),
(592,-66,c),
(634,31,l),
(545,31,l),
(479,-132,l),
(486,-143,l),
(527,-141,o),
(565,-138,o),
(608,-138,cs),
(653,-138,o),
(680,-148,o),
(680,-166,cs),
(680,-183,o),
(649,-195,o),
(595,-195,cs),
(539,-195,o),
(470,-182,o),
(423,-160,c),
(385,-240,l),
(429,-264,o),
(490,-283,o),
(590,-283,cs)
);
}
);
};
layerId = "816E4B99-7363-45E2-A2DF-0C5A75075B59";
shapes = (
{
ref = C;
},
{
pos = (366,-14);
ref = cedillacomb;
}
);
width = 1162;
}
);
unicode = 199;
},
{
glyphname = Cdotaccent;
kernLeft = O;
kernRight = C;
lastChange = "2023-05-31 13:55:09 +0000";
layers = (
{
background = {
anchors = (
{
name = bottom;
pos = (569,-14);
},
{
name = top;
pos = (580,700);
}
);
shapes = (
{
closed = 1;
nodes = (
(851,-14,o),
(992,112,o),
(1055,222,c),
(1028,239,l),
(975,141,o),
(831,17,o),
(569,17,c),
(329,17,o),
(132,140,o),
(132,343,c),
(132,547,o),
(336,669,o),
(580,669,cs),
(761,669,o),
(916,608,o),
(1035,436,c),
(1051,438,l),
(1051,686,l),
(1020,686,l),
(1020,476,l),
(1035,476,l),
(944,608,o),
(792,700,o),
(580,700,cs),
(325,700,o),
(99,570,o),
(99,343,c),
(99,117,o),
(316,-14,o),
(569,-14,c)
);
},
{
closed = 1;
nodes = (
(622,850,o),
(643,867,o),
(643,890,c),
(643,913,o),
(622,930,o),
(580,930,c),
(541,930,o),
(519,913,o),
(519,890,c),
(519,867,o),
(541,850,o),
(580,850,c)
);
}
);
};
layerId = "B29C398E-974A-40D0-A0A0-00935056D4B4";
shapes = (
{
ref = C;
},
{
pos = (413,-110);
ref = dotaccentcomb;
}
);
width = 1174;
},
{
background = {
anchors = (
{
name = bottom;
pos = (402,-14);
},
{
name = top;
pos = (403,700);
}
);
shapes = (
{
closed = 1;
nodes = (
(554,-14,o),
(637,65,o),
(682,127,c),
(659,148,l),
(615,87,o),
(534,17,o),
(404,17,cs),
(237,17,o),
(106,146,o),
(106,343,cs),
(106,540,o),
(243,669,o),
(404,669,cs),
(539,669,o),
(619,600,o),
(671,482,c),
(686,483,l),
(688,686,l),
(657,686,l),
(655,527,l),
(672,520,l),
(640,612,o),
(550,700,o),
(404,700,cs),
(232,700,o),
(73,563,o),
(73,343,cs),
(73,123,o),
(223,-14,o),
(404,-14,cs)
);
},
{
closed = 1;
nodes = (
(435,839,o),
(456,855,o),
(456,878,c),
(456,901,o),
(435,919,o),
(403,919,c),
(373,919,o),
(351,901,o),
(351,878,c),
(351,855,o),
(373,839,o),
(403,839,c)
);
}
);
};
layerId = "543F9737-16F7-428D-9F96-2EBD9FC8D3B6";
shapes = (
{
ref = C;
},
{
pos = (272,-124);
ref = dotaccentcomb;
}
);
width = 754;
},
{
background = {
anchors = (
{
name = bottom;
pos = (408,-14);
},
{
name = top;
pos = (388,700);
}
);
shapes = (
{
closed = 1;
nodes = (
(553,-13,o),
(661,55,o),
(732,163,c),
(628,248,l),
(574,168,o),
(515,118,o),
(408,118,cs),
(293,118,o),
(202,217,o),
(202,343,cs),
(202,490,o),
(299,573,o),
(398,573,cs),
(507,573,o),
(572,509,o),
(606,437,c),
(713,447,l),
(713,686,l),
(568,686,l),
(568,548,l),
(640,527,l),
(587,634,o),
(502,700,o),
(372,700,cs),
(189,700,o),
(33,554,o),
(33,341,cs),
(33,143,o),
(196,-13,o),
(408,-13,cs)
);
},
{
closed = 1;
nodes = (
(447,773,o),
(488,806,o),
(488,850,c),
(488,897,o),
(447,930,o),
(389,930,c),
(335,930,o),
(292,897,o),
(292,850,c),
(292,806,o),
(335,773,o),
(389,773,c)
);
}
);
};
layerId = "EB38A4D2-CD30-49BA-8E45-1F04A566FFE8";
shapes = (
{
ref = C;
},
{
pos = (228,14);
ref = dotaccentcomb;
}
);
width = 762;
},
{
background = {
anchors = (
{
name = bottom;
pos = (614,-14);
},
{
name = top;
pos = (573,700);
}
);
shapes = (
{
closed = 1;
nodes = (
(805,-13,o),
(985,56,o),
(1107,136,c),
(1028,269,l),
(907,186,o),
(763,136,o),
(575,136,c),
(396,136,o),
(248,216,o),
(248,343,c),
(248,458,o),
(356,556,o),
(553,556,cs),
(733,556,o),
(875,500,o),
(975,414,c),
(1098,438,l),
(1097,686,l),
(934,686,l),
(935,533,l),
(1014,515,l),
(898,635,o),
(735,700,o),
(553,700,cs),
(275,700,o),
(53,571,o),
(53,341,c),
(53,113,o),
(281,-13,o),
(575,-13,c)
);
},
{
closed = 1;
nodes = (
(645,789,o),
(690,825,o),
(690,873,c),
(690,923,o),
(645,959,o),
(574,959,c),
(504,959,o),
(457,923,o),
(457,873,c),
(457,825,o),
(504,789,o),
(574,789,c)
);
}
);
};
layerId = "816E4B99-7363-45E2-A2DF-0C5A75075B59";
shapes = (
{
ref = C;
},
{
pos = (382,44);
ref = dotaccentcomb;
}
);
width = 1162;
}
);
unicode = 266;
},
{
glyphname = D;
kernLeft = H;
kernRight = O;
lastChange = "2023-05-31 13:55:09 +0000";
layers = (
{
anchors = (
{
name = bottom;
pos = (634,0);
},
{
name = center;
pos = (634,323);
},
{
name = top;
pos = (634,686);
}
);
background = {
anchors = (
{
name = bottom;
pos = (634,0);
},
{
name = center;
pos = (634,323);
},
{
name = top;
pos = (634,686);
}
);
shapes = (
{
closed = 1;
nodes = (
(719,0,l),
(990,0,o),
(1174,112,o),
(1174,343,c),
(1174,574,o),
(990,686,o),
(719,686,c),
(74,686,l),
(74,655,l),
(719,655,l),
(976,655,o),
(1141,552,o),
(1141,343,c),
(1141,134,o),
(976,31,o),
(719,31,c),
(74,31,l),
(74,0,l)
);
},
{
closed = 1;
nodes = (
(348,18,l),
(348,669,l),
(315,669,l),
(315,18,l)
);
}
);
};
layerId = "B29C398E-974A-40D0-A0A0-00935056D4B4";
shapes = (
{
closed = 1;
nodes = (
(719,0,l),
(990,0,o),
(1174,112,o),
(1174,343,c),
(1174,574,o),
(990,686,o),
(719,686,c),
(74,686,l),
(74,655,l),
(719,655,l),
(976,655,o),
(1141,552,o),
(1141,343,c),
(1141,134,o),
(976,31,o),
(719,31,c),
(74,31,l),
(74,0,l)
);
},
{
closed = 1;
nodes = (
(348,18,l),
(348,669,l),
(315,669,l),
(315,18,l)
);
}
);
width = 1273;
},
{
anchors = (
{
name = bottom;
pos = (374,0);
},
{
name = center;
pos = (374,323);
},
{
name = top;
pos = (374,686);
}
);
background = {
anchors = (
{
name = bottom;
pos = (374,0);
},
{
name = center;
pos = (374,323);
},
{
name = top;
pos = (374,686);
}
);
shapes = (
{
closed = 1;
nodes = (
(367,0,l),
(595,0,o),
(744,131,o),
(744,343,c),
(744,556,o),
(595,686,o),
(367,686,c),
(40,686,l),
(40,655,l),
(367,655,l),
(582,655,o),
(711,534,o),
(711,343,c),
(711,153,o),
(582,31,o),
(367,31,c),
(40,31,l),
(40,0,l)
);
},
{
closed = 1;
nodes = (
(222,18,l),
(222,669,l),
(189,669,l),
(189,18,l)
);
}
);
};
layerId = "543F9737-16F7-428D-9F96-2EBD9FC8D3B6";
shapes = (
{
closed = 1;
nodes = (
(367,0,l),
(595,0,o),
(744,131,o),
(744,343,c),
(744,556,o),
(595,686,o),
(367,686,c),
(40,686,l),
(40,655,l),
(367,655,l),
(582,655,o),
(711,534,o),
(711,343,c),
(711,153,o),
(582,31,o),
(367,31,c),
(40,31,l),
(40,0,l)
);
},
{
closed = 1;
nodes = (
(222,18,l),
(222,669,l),
(189,669,l),
(189,18,l)
);
}
);
width = 817;
},
{
anchors = (
{
name = bottom;
pos = (396,0);
},
{
name = center;
pos = (396,348);
},
{
name = top;
pos = (396,686);
}
);
background = {
anchors = (
{
name = bottom;
pos = (396,0);
},
{
name = center;
pos = (396,348);
},
{
name = top;
pos = (396,686);
}
);
shapes = (
{
closed = 1;
nodes = (
(376,0,ls),
(567,0,o),
(784,97,o),
(784,343,cs),
(784,590,o),
(567,686,o),
(376,686,cs),
(33,686,l),
(33,559,l),
(358,559,ls),
(461,559,o),
(615,534,o),
(615,343,cs),
(615,153,o),
(461,127,o),
(358,127,cs),
(33,127,l),
(33,0,l)
);
},
{
closed = 1;
nodes = (
(307,74,l),
(307,613,l),
(145,613,l),
(145,74,l)
);
}
);
};
layerId = "EB38A4D2-CD30-49BA-8E45-1F04A566FFE8";
shapes = (
{
closed = 1;
nodes = (
(376,0,ls),
(567,0,o),
(784,97,o),
(784,343,cs),
(784,590,o),
(567,686,o),
(376,686,cs),
(33,686,l),
(33,559,l),
(358,559,ls),
(461,559,o),
(615,534,o),
(615,343,cs),
(615,153,o),
(461,127,o),
(358,127,cs),
(33,127,l),
(33,0,l)
);
},
{
closed = 1;
nodes = (
(307,74,l),
(307,613,l),
(145,613,l),
(145,74,l)
);
}
);
width = 817;
},
{
anchors = (
{
name = bottom;
pos = (654,0);
},
{
name = center;
pos = (654,353);
},
{
name = top;
pos = (654,686);
}
);
background = {
anchors = (
{
name = bottom;
pos = (654,0);
},
{
name = center;
pos = (654,353);
},
{
name = top;
pos = (654,686);
}
);
shapes = (
{
closed = 1;
nodes = (
(763,0,l),
(1073,0,o),
(1247,123,o),
(1247,343,cs),
(1247,563,o),
(1073,686,o),
(763,686,cs),
(60,686,l),
(60,542,l),
(759,542,ls),
(958,542,o),
(1053,480,o),
(1053,343,cs),
(1053,206,o),
(958,144,o),
(759,144,cs),
(60,144,l),
(60,0,l)
);
},
{
closed = 1;
nodes = (
(442,84,l),
(442,603,l),
(257,603,l),
(257,84,l)
);
}
);
};
layerId = "816E4B99-7363-45E2-A2DF-0C5A75075B59";
shapes = (
{
closed = 1;
nodes = (
(763,0,l),
(1073,0,o),
(1247,123,o),
(1247,343,cs),
(1247,563,o),
(1073,686,o),
(763,686,cs),
(60,686,l),
(60,542,l),
(759,542,ls),
(958,542,o),
(1053,480,o),
(1053,343,cs),
(1053,206,o),
(958,144,o),
(759,144,cs),
(60,144,l),
(60,0,l)
);
},
{
closed = 1;
nodes = (
(442,84,l),
(442,603,l),
(257,603,l),
(257,84,l)
);
}
);
width = 1300;
}
);
metricLeft = "=H";
metricRight = "=O";
unicode = 68;
},
{
glyphname = Dcaron;
kernLeft = H;
kernRight = O;
lastChange = "2023-05-31 13:55:09 +0000";
layers = (
{
background = {
anchors = (
{
name = bottom;
pos = (634,0);
},
{
name = center;
pos = (634,323);
},
{
name = top;
pos = (634,686);
}
);
shapes = (
{
closed = 1;
nodes = (
(719,0,l),
(990,0,o),
(1174,112,o),
(1174,343,c),
(1174,574,o),
(990,686,o),
(719,686,c),
(74,686,l),
(74,655,l),
(719,655,l),
(976,655,o),
(1141,552,o),
(1141,343,c),
(1141,134,o),
(976,31,o),
(719,31,c),
(74,31,l),
(74,0,l)
);
},
{
closed = 1;
nodes = (
(348,18,l),
(348,669,l),
(315,669,l),
(315,18,l)
);
},
{
closed = 1;
nodes = (
(634,813,l),
(415,981,l),
(401,964,l),
(621,777,l),
(647,777,l),
(868,964,l),
(854,981,l)
);
}
);
};
layerId = "B29C398E-974A-40D0-A0A0-00935056D4B4";
shapes = (
{
ref = D;
},
{
pos = (328,0);
ref = caroncomb;
}
);
width = 1273;
},
{
background = {
anchors = (
{
name = bottom;
pos = (374,0);
},
{
name = center;
pos = (374,323);
},
{
name = top;
pos = (374,686);
}
);
shapes = (
{
closed = 1;
nodes = (
(367,0,l),
(595,0,o),
(744,131,o),
(744,343,c),
(744,556,o),
(595,686,o),
(367,686,c),
(40,686,l),
(40,655,l),
(367,655,l),
(582,655,o),
(711,534,o),
(711,343,c),
(711,153,o),
(582,31,o),
(367,31,c),
(40,31,l),
(40,0,l)
);
},
{
closed = 1;
nodes = (
(222,18,l),
(222,669,l),
(189,669,l),
(189,18,l)
);
},
{
closed = 1;
nodes = (
(374,815,l),
(215,972,l),
(200,956,l),
(361,777,l),
(387,777,l),
(549,956,l),
(535,972,l)
);
}
);
};
layerId = "543F9737-16F7-428D-9F96-2EBD9FC8D3B6";
shapes = (
{
ref = D;
},
{
pos = (154,0);
ref = caroncomb;
}
);
width = 817;
},
{
background = {
anchors = (
{
name = bottom;
pos = (396,0);
},
{
name = center;
pos = (396,348);
},
{
name = top;
pos = (396,686);
}
);
shapes = (
{
closed = 1;
nodes = (
(376,0,ls),
(567,0,o),
(784,97,o),
(784,343,cs),
(784,590,o),
(567,686,o),
(376,686,cs),
(33,686,l),
(33,559,l),
(358,559,ls),
(461,559,o),
(615,534,o),
(615,343,cs),
(615,153,o),
(461,127,o),
(358,127,cs),
(33,127,l),
(33,0,l)
);
},
{
closed = 1;
nodes = (
(307,74,l),
(307,613,l),
(145,613,l),
(145,74,l)
);
},
{
closed = 1;
nodes = (
(397,868,l),
(261,966,l),
(215,923,l),
(360,750,l),
(434,750,l),
(579,923,l),
(533,966,l)
);
}
);
};
layerId = "EB38A4D2-CD30-49BA-8E45-1F04A566FFE8";
shapes = (
{
ref = D;
},
{
pos = (184,0);
ref = caroncomb;
}
);
width = 817;
},
{
background = {
anchors = (
{
name = bottom;
pos = (654,0);
},
{
name = center;
pos = (654,353);
},
{
name = top;
pos = (654,686);
}
);
shapes = (
{
closed = 1;
nodes = (
(763,0,l),
(1073,0,o),
(1247,123,o),
(1247,343,cs),
(1247,563,o),
(1073,686,o),
(763,686,cs),
(60,686,l),
(60,542,l),
(759,542,ls),
(958,542,o),
(1053,480,o),
(1053,343,cs),
(1053,206,o),
(958,144,o),
(759,144,cs),
(60,144,l),
(60,0,l)
);
},
{
closed = 1;
nodes = (
(442,84,l),
(442,603,l),
(257,603,l),
(257,84,l)
);
},
{
closed = 1;
nodes = (
(655,859,l),
(456,934,l),
(427,884,l),
(606,750,l),
(704,750,l),
(882,884,l),
(854,934,l)
);
}
);
};
layerId = "816E4B99-7363-45E2-A2DF-0C5A75075B59";
shapes = (
{
ref = D;
},
{
pos = (369,0);
ref = caroncomb;
}
);
width = 1300;
}
);
unicode = 270;
},
{
glyphname = Dcroat;
kernLeft = H;
kernRight = O;
lastChange = "2023-05-31 13:55:09 +0000";
layers = (
{
background = {
anchors = (
{
name = bottom;
pos = (634,0);
},
{
name = center;
pos = (634,323);
},
{
name = top;
pos = (634,686);
}
);
shapes = (
{
closed = 1;
nodes = (
(719,0,l),
(990,0,o),
(1174,112,o),
(1174,343,c),
(1174,574,o),
(990,686,o),
(719,686,c),
(74,686,l),
(74,655,l),
(719,655,l),
(976,655,o),
(1141,552,o),
(1141,343,c),
(1141,134,o),
(976,31,o),
(719,31,c),
(74,31,l),
(74,0,l)
);
},
{
closed = 1;
nodes = (
(348,18,l),
(348,669,l),
(315,669,l),
(315,18,l)
);
},
{
closed = 1;
nodes = (
(803,326,l),
(803,355,l),
(76,355,l),
(76,326,l)
);
}
);
};
layerId = "B29C398E-974A-40D0-A0A0-00935056D4B4";
shapes = (
{
ref = Eth;
}
);
width = 1273;
},
{
background = {
anchors = (
{
name = bottom;
pos = (374,0);
},
{
name = center;
pos = (374,323);
},
{
name = top;
pos = (374,686);
}
);
shapes = (
{
closed = 1;
nodes = (
(367,0,l),
(595,0,o),
(744,131,o),
(744,343,c),
(744,556,o),
(595,686,o),
(367,686,c),
(40,686,l),
(40,655,l),
(367,655,l),
(582,655,o),
(711,534,o),
(711,343,c),
(711,153,o),
(582,31,o),
(367,31,c),
(40,31,l),
(40,0,l)
);
},
{
closed = 1;
nodes = (
(222,18,l),
(222,669,l),
(189,669,l),
(189,18,l)
);
},
{
closed = 1;
nodes = (
(494,326,l),
(494,355,l),
(43,355,l),
(43,326,l)
);
}
);
};
layerId = "543F9737-16F7-428D-9F96-2EBD9FC8D3B6";
shapes = (
{
ref = Eth;
}
);
width = 817;
},
{
background = {
anchors = (
{
name = bottom;
pos = (396,0);
},
{
name = center;
pos = (396,348);
},
{
name = top;
pos = (396,686);
}
);
shapes = (
{
closed = 1;
nodes = (
(376,0,ls),
(567,0,o),
(784,97,o),
(784,343,cs),
(784,590,o),
(567,686,o),
(376,686,cs),
(33,686,l),
(33,559,l),
(358,559,ls),
(461,559,o),
(615,534,o),
(615,343,cs),
(615,153,o),
(461,127,o),
(358,127,cs),
(33,127,l),
(33,0,l)
);
},
{
closed = 1;
nodes = (
(307,74,l),
(307,613,l),
(145,613,l),
(145,74,l)
);
},
{
closed = 1;
nodes = (
(479,295,l),
(479,387,l),
(34,387,l),
(34,295,l)
);
}
);
};
layerId = "EB38A4D2-CD30-49BA-8E45-1F04A566FFE8";
shapes = (
{
ref = Eth;
}
);
width = 817;
},
{
background = {
anchors = (
{
name = bottom;
pos = (654,0);
},
{
name = center;
pos = (654,353);
},
{
name = top;
pos = (654,686);
}
);
shapes = (
{
closed = 1;
nodes = (
(763,0,l),
(1073,0,o),
(1247,123,o),
(1247,343,cs),
(1247,563,o),
(1073,686,o),
(763,686,cs),
(60,686,l),
(60,542,l),
(759,542,ls),
(958,542,o),
(1053,480,o),
(1053,343,cs),
(1053,206,o),
(958,144,o),
(759,144,cs),
(60,144,l),
(60,0,l)
);
},
{
closed = 1;
nodes = (
(442,84,l),
(442,603,l),
(257,603,l),
(257,84,l)
);
},
{
closed = 1;
nodes = (
(785,289,l),
(785,392,l),
(62,392,l),
(62,289,l)
);
}
);
};
layerId = "816E4B99-7363-45E2-A2DF-0C5A75075B59";
shapes = (
{
ref = Eth;
}
);
width = 1300;
}
);
unicode = 272;
},
{
glyphname = Eth;
kernLeft = H;
kernRight = O;
lastChange = "2023-05-31 13:55:09 +0000";
layers = (
{
background = {
anchors = (
{
name = bottom;
pos = (634,0);
},
{
name = center;
pos = (634,323);
},
{
name = top;
pos = (634,686);
}
);
shapes = (
{
closed = 1;
nodes = (
(719,0,l),
(990,0,o),
(1174,112,o),
(1174,343,c),
(1174,574,o),
(990,686,o),
(719,686,c),
(74,686,l),
(74,655,l),
(719,655,l),
(976,655,o),
(1141,552,o),
(1141,343,c),
(1141,134,o),
(976,31,o),
(719,31,c),
(74,31,l),
(74,0,l)
);
},
{
closed = 1;
nodes = (
(348,18,l),
(348,669,l),
(315,669,l),
(315,18,l)
);
},
{
closed = 1;
nodes = (
(803,326,l),
(803,355,l),
(76,355,l),
(76,326,l)
);
}
);
};
layerId = "B29C398E-974A-40D0-A0A0-00935056D4B4";
shapes = (
{
ref = D;
},
{
pos = (69,4);
ref = strokeshortcomb;
scale = (1.4,1);
}
);
width = 1273;
},
{
background = {
anchors = (
{
name = bottom;
pos = (374,0);
},
{
name = center;
pos = (374,323);
},
{
name = top;
pos = (374,686);
}
);
shapes = (
{
closed = 1;
nodes = (
(367,0,l),
(595,0,o),
(744,131,o),
(744,343,c),
(744,556,o),
(595,686,o),
(367,686,c),
(40,686,l),
(40,655,l),
(367,655,l),
(582,655,o),
(711,534,o),
(711,343,c),
(711,153,o),
(582,31,o),
(367,31,c),
(40,31,l),
(40,0,l)
);
},
{
closed = 1;
nodes = (
(222,18,l),
(222,669,l),
(189,669,l),
(189,18,l)
);
},
{
closed = 1;
nodes = (
(494,326,l),
(494,355,l),
(43,355,l),
(43,326,l)
);
}
);
};
layerId = "543F9737-16F7-428D-9F96-2EBD9FC8D3B6";
shapes = (
{
ref = D;
},
{
pos = (36,4);
ref = strokeshortcomb;
scale = (1.33,1);
}
);
width = 817;
},
{
background = {
anchors = (
{
name = bottom;
pos = (396,0);
},
{
name = center;
pos = (396,348);
},
{
name = top;
pos = (396,686);
}
);
shapes = (
{
closed = 1;
nodes = (
(376,0,ls),
(567,0,o),
(784,97,o),
(784,343,cs),
(784,590,o),
(567,686,o),
(376,686,cs),
(33,686,l),
(33,559,l),
(358,559,ls),
(461,559,o),
(615,534,o),
(615,343,cs),
(615,153,o),
(461,127,o),
(358,127,cs),
(33,127,l),
(33,0,l)
);
},
{
closed = 1;
nodes = (
(307,74,l),
(307,613,l),
(145,613,l),
(145,74,l)
);
},
{
closed = 1;
nodes = (
(479,295,l),
(479,387,l),
(34,387,l),
(34,295,l)
);
}
);
};
layerId = "EB38A4D2-CD30-49BA-8E45-1F04A566FFE8";
shapes = (
{
ref = D;
},
{
pos = (28,77);
ref = strokeshortcomb;
scale = (1.18,1);
}
);
width = 817;
},
{
background = {
anchors = (
{
name = bottom;
pos = (654,0);
},
{
name = center;
pos = (654,353);
},
{
name = top;
pos = (654,686);
}
);
shapes = (
{
closed = 1;
nodes = (
(763,0,l),
(1073,0,o),
(1247,123,o),
(1247,343,cs),
(1247,563,o),
(1073,686,o),
(763,686,cs),
(60,686,l),
(60,542,l),
(759,542,ls),
(958,542,o),
(1053,480,o),
(1053,343,cs),
(1053,206,o),
(958,144,o),
(759,144,cs),
(60,144,l),
(60,0,l)
);
},
{
closed = 1;
nodes = (
(442,84,l),
(442,603,l),
(257,603,l),
(257,84,l)
);
},
{
closed = 1;
nodes = (
(785,289,l),
(785,392,l),
(62,392,l),
(62,289,l)
);
}
);
};
layerId = "816E4B99-7363-45E2-A2DF-0C5A75075B59";
shapes = (
{
ref = D;
},
{
pos = (56,91);
ref = strokeshortcomb;
scale = (1.27,1);
}
);
width = 1300;
}
);
metricRight = "=D";
unicode = 208;
},
{
glyphname = E;
kernLeft = H;
kernRight = E;
lastChange = "2023-05-31 13:55:09 +0000";
layers = (
{
anchors = (
{
name = bottom;
pos = (661,0);
},
{
name = ogonek;
pos = (1137,0);
},
{
name = top;
pos = (699,686);
}
);
background = {
anchors = (
{
name = bottom;
pos = (661,0);
},
{
name = ogonek;
pos = (1137,0);
},
{
name = top;
pos = (699,686);
}
);
shapes = (
{
closed = 1;
nodes = (
(1137,0,l),
(1137,242,l),
(1105,242,l),
(1105,31,l),
(74,31,l),
(74,0,l)
);
},
{
closed = 1;
nodes = (
(348,18,l),
(348,669,l),
(315,669,l),
(315,18,l)
);
},
{
closed = 1;
nodes = (
(770,328,l),
(770,359,l),
(343,359,l),
(343,328,l)
);
},
{
closed = 1;
nodes = (
(787,186,l),
(787,501,l),
(754,501,l),
(754,186,l)
);
},
{
closed = 1;
nodes = (
(1137,444,l),
(1137,686,l),
(74,686,l),
(74,655,l),
(1104,655,l),
(1104,444,l)
);
}
);
};
guides = (
{
pos = (550,405);
}
);
layerId = "B29C398E-974A-40D0-A0A0-00935056D4B4";
shapes = (
{
closed = 1;
nodes = (
(1137,0,l),
(1137,242,l),
(1105,242,l),
(1105,31,l),
(74,31,l),
(74,0,l)
);
},
{
closed = 1;
nodes = (
(348,18,l),
(348,669,l),
(315,669,l),
(315,18,l)
);
},
{
closed = 1;
nodes = (
(770,328,l),
(770,359,l),
(343,359,l),
(343,328,l)
);
},
{
closed = 1;
nodes = (
(787,186,l),
(787,501,l),
(754,501,l),
(754,186,l)
);
},
{
closed = 1;
nodes = (
(1137,444,l),
(1137,686,l),
(74,686,l),
(74,655,l),
(1104,655,l),
(1104,444,l)
);
}
);
width = 1282;
},
{
anchors = (
{
name = bottom;
pos = (405,0);
},
{
name = ogonek;
pos = (681,0);
},
{
name = top;
pos = (411,686);
}
);
background = {
anchors = (
{
name = bottom;
pos = (405,0);
},
{
name = ogonek;
pos = (681,0);
},
{
name = top;
pos = (411,686);
}
);
shapes = (
{
closed = 1;
nodes = (
(682,0,l),
(682,179,l),
(649,179,l),
(649,31,l),
(40,31,l),
(40,0,l)
);
},
{
closed = 1;
nodes = (
(222,18,l),
(222,669,l),
(189,669,l),
(189,18,l)
);
},
{
closed = 1;
nodes = (
(460,328,l),
(460,359,l),
(218,359,l),
(218,328,l)
);
},
{
closed = 1;
nodes = (
(476,219,l),
(476,468,l),
(443,468,l),
(443,219,l)
);
},
{
closed = 1;
nodes = (
(682,507,l),
(682,686,l),
(40,686,l),
(40,655,l),
(649,655,l),
(649,507,l)
);
}
);
};
layerId = "543F9737-16F7-428D-9F96-2EBD9FC8D3B6";
shapes = (
{
closed = 1;
nodes = (
(682,0,l),
(682,179,l),
(649,179,l),
(649,31,l),
(40,31,l),
(40,0,l)
);
},
{
closed = 1;
nodes = (
(222,18,l),
(222,669,l),
(189,669,l),
(189,18,l)
);
},
{
closed = 1;
nodes = (
(460,328,l),
(460,359,l),
(218,359,l),
(218,328,l)
);
},
{
closed = 1;
nodes = (
(476,219,l),
(476,468,l),
(443,468,l),
(443,219,l)
);
},
{
closed = 1;
nodes = (
(682,507,l),
(682,686,l),
(40,686,l),
(40,655,l),
(649,655,l),
(649,507,l)
);
}
);
width = 768;
},
{
anchors = (
{
name = bottom;
pos = (435,0);
},
{
name = ogonek;
pos = (741,0);
},
{
name = top;
pos = (403,686);
}
);
background = {
anchors = (
{
name = bottom;
pos = (435,0);
},
{
name = ogonek;
pos = (741,0);
},
{
name = top;
pos = (403,686);
}
);
shapes = (
{
closed = 1;
nodes = (
(741,0,l),
(741,255,l),
(600,255,l),
(600,127,l),
(33,127,l),
(33,0,l)
);
},
{
closed = 1;
nodes = (
(303,70,l),
(303,605,l),
(144,605,l),
(144,70,l)
);
},
{
closed = 1;
nodes = (
(474,286,l),
(474,400,l),
(202,400,l),
(202,286,l)
);
},
{
closed = 1;
nodes = (
(527,207,l),
(527,479,l),
(408,479,l),
(408,207,l)
);
},
{
closed = 1;
nodes = (
(741,431,l),
(741,686,l),
(33,686,l),
(33,559,l),
(600,559,l),
(600,431,l)
);
}
);
};
layerId = "EB38A4D2-CD30-49BA-8E45-1F04A566FFE8";
shapes = (
{
closed = 1;
nodes = (
(741,0,l),
(741,255,l),
(600,255,l),
(600,127,l),
(33,127,l),
(33,0,l)
);
},
{
closed = 1;
nodes = (
(303,70,l),
(303,605,l),
(144,605,l),
(144,70,l)
);
},
{
closed = 1;
nodes = (
(474,286,l),
(474,400,l),
(202,400,l),
(202,286,l)
);
},
{
closed = 1;
nodes = (
(527,207,l),
(527,479,l),
(408,479,l),
(408,207,l)
);
},
{
closed = 1;
nodes = (
(741,431,l),
(741,686,l),
(33,686,l),
(33,559,l),
(600,559,l),
(600,431,l)
);
}
);
width = 807;
},
{
anchors = (
{
name = bottom;
pos = (652,-2);
},
{
name = ogonek;
pos = (1170,0);
},
{
name = top;
pos = (651,686);
}
);
background = {
anchors = (
{
name = bottom;
pos = (652,-2);
},
{
name = ogonek;
pos = (1170,0);
},
{
name = top;
pos = (651,686);
}
);
shapes = (
{
closed = 1;
nodes = (
(1170,0,l),
(1170,283,l),
(1007,283,l),
(1007,144,l),
(60,144,l),
(60,0,l)
);
},
{
closed = 1;
nodes = (
(439,79,l),
(439,593,l),
(256,593,l),
(256,79,l)
);
},
{
closed = 1;
nodes = (
(765,285,l),
(765,403,l),
(319,403,l),
(319,285,l)
);
},
{
closed = 1;
nodes = (
(825,211,l),
(825,477,l),
(681,477,l),
(681,211,l)
);
},
{
closed = 1;
nodes = (
(1170,403,l),
(1170,686,l),
(60,686,l),
(60,542,l),
(1007,542,l),
(1007,403,l)
);
}
);
};
layerId = "816E4B99-7363-45E2-A2DF-0C5A75075B59";
shapes = (
{
closed = 1;
nodes = (
(1170,0,l),
(1170,283,l),
(1007,283,l),
(1007,144,l),
(60,144,l),
(60,0,l)
);
},
{
closed = 1;
nodes = (
(439,79,l),
(439,593,l),
(256,593,l),
(256,79,l)
);
},
{
closed = 1;
nodes = (
(765,285,l),
(765,403,l),
(319,403,l),
(319,285,l)
);
},
{
closed = 1;
nodes = (
(825,211,l),
(825,477,l),
(681,477,l),
(681,211,l)
);
},
{
closed = 1;
nodes = (
(1170,403,l),
(1170,686,l),
(60,686,l),
(60,542,l),
(1007,542,l),
(1007,403,l)
);
}
);
width = 1274;
}
);
metricLeft = "=H";
unicode = 69;
},
{
glyphname = Eacute;
kernLeft = H;
kernRight = E;
lastChange = "2023-05-31 13:55:09 +0000";
layers = (
{
background = {
anchors = (
{
name = bottom;
pos = (661,0);
},
{
name = ogonek;
pos = (1137,0);
},
{
name = top;
pos = (699,686);
}
);
shapes = (
{
closed = 1;
nodes = (
(1137,0,l),
(1137,242,l),
(1105,242,l),
(1105,31,l),
(74,31,l),
(74,0,l)
);
},
{
closed = 1;
nodes = (
(348,18,l),
(348,669,l),
(315,669,l),
(315,18,l)
);
},
{
closed = 1;
nodes = (
(770,328,l),
(770,359,l),
(343,359,l),
(343,328,l)
);
},
{
closed = 1;
nodes = (
(787,186,l),
(787,501,l),
(754,501,l),
(754,186,l)
);
},
{
closed = 1;
nodes = (
(1137,444,l),
(1137,686,l),
(74,686,l),
(74,655,l),
(1104,655,l),
(1104,444,l)
);
},
{
closed = 1;
nodes = (
(919,978,l),
(939,942,l),
(621,771,l),
(609,792,l)
);
}
);
};
layerId = "B29C398E-974A-40D0-A0A0-00935056D4B4";
shapes = (
{
ref = E;
},
{
pos = (543,0);
ref = acutecomb;
}
);
width = 1282;
},
{
background = {
anchors = (
{
name = bottom;
pos = (405,0);
},
{
name = ogonek;
pos = (681,0);
},
{
name = top;
pos = (411,686);
}
);
shapes = (
{
closed = 1;
nodes = (
(682,0,l),
(682,179,l),
(649,179,l),
(649,31,l),
(40,31,l),
(40,0,l)
);
},
{
closed = 1;
nodes = (
(222,18,l),
(222,669,l),
(189,669,l),
(189,18,l)
);
},
{
closed = 1;
nodes = (
(460,328,l),
(460,359,l),
(218,359,l),
(218,328,l)
);
},
{
closed = 1;
nodes = (
(476,219,l),
(476,468,l),
(443,468,l),
(443,219,l)
);
},
{
closed = 1;
nodes = (
(682,507,l),
(682,686,l),
(40,686,l),
(40,655,l),
(649,655,l),
(649,507,l)
);
},
{
closed = 1;
nodes = (
(582,971,l),
(606,943,l),
(385,763,l),
(370,779,l)
);
}
);
};
layerId = "543F9737-16F7-428D-9F96-2EBD9FC8D3B6";
shapes = (
{
ref = E;
},
{
pos = (278,0);
ref = acutecomb;
}
);
width = 768;
},
{
background = {
anchors = (
{
name = bottom;
pos = (435,0);
},
{
name = ogonek;
pos = (741,0);
},
{
name = top;
pos = (403,686);
}
);
shapes = (
{
closed = 1;
nodes = (
(741,0,l),
(741,255,l),
(600,255,l),
(600,127,l),
(33,127,l),
(33,0,l)
);
},
{
closed = 1;
nodes = (
(303,70,l),
(303,605,l),
(144,605,l),
(144,70,l)
);
},
{
closed = 1;
nodes = (
(474,286,l),
(474,400,l),
(202,400,l),
(202,286,l)
);
},
{
closed = 1;
nodes = (
(527,207,l),
(527,479,l),
(408,479,l),
(408,207,l)
);
},
{
closed = 1;
nodes = (
(741,431,l),
(741,686,l),
(33,686,l),
(33,559,l),
(600,559,l),
(600,431,l)
);
},
{
closed = 1;
nodes = (
(533,967,l),
(610,857,l),
(386,736,l),
(346,793,l)
);
}
);
};
layerId = "EB38A4D2-CD30-49BA-8E45-1F04A566FFE8";
shapes = (
{
ref = E;
},
{
pos = (243,30);
ref = acutecomb;
}
);
width = 807;
},
{
background = {
anchors = (
{
name = bottom;
pos = (652,-2);
},
{
name = ogonek;
pos = (1170,0);
},
{
name = top;
pos = (651,686);
}
);
shapes = (
{
closed = 1;
nodes = (
(1170,0,l),
(1170,283,l),
(1007,283,l),
(1007,144,l),
(60,144,l),
(60,0,l)
);
},
{
closed = 1;
nodes = (
(439,79,l),
(439,593,l),
(256,593,l),
(256,79,l)
);
},
{
closed = 1;
nodes = (
(765,285,l),
(765,403,l),
(319,403,l),
(319,285,l)
);
},
{
closed = 1;
nodes = (
(825,211,l),
(825,477,l),
(681,477,l),
(681,211,l)
);
},
{
closed = 1;
nodes = (
(1170,403,l),
(1170,686,l),
(60,686,l),
(60,542,l),
(1007,542,l),
(1007,403,l)
);
},
{
closed = 1;
nodes = (
(805,1029,l),
(884,904,l),
(558,744,l),
(509,810,l)
);
}
);
};
layerId = "816E4B99-7363-45E2-A2DF-0C5A75075B59";
shapes = (
{
ref = E;
},
{
pos = (289,31);
ref = acutecomb;
}
);
width = 1274;
}
);
unicode = 201;
},
{
glyphname = Ecaron;
kernLeft = H;
kernRight = E;
lastChange = "2023-05-31 13:55:09 +0000";
layers = (
{
background = {
anchors = (
{
name = bottom;
pos = (661,0);
},
{
name = ogonek;
pos = (1137,0);
},
{
name = top;
pos = (699,686);
}
);
shapes = (
{
closed = 1;
nodes = (
(1137,0,l),
(1137,242,l),
(1105,242,l),
(1105,31,l),
(74,31,l),
(74,0,l)
);
},
{
closed = 1;
nodes = (
(348,18,l),
(348,669,l),
(315,669,l),
(315,18,l)
);
},
{
closed = 1;
nodes = (
(770,328,l),
(770,359,l),
(343,359,l),
(343,328,l)
);
},
{
closed = 1;
nodes = (
(787,186,l),
(787,501,l),
(754,501,l),
(754,186,l)
);
},
{
closed = 1;
nodes = (
(1137,444,l),
(1137,686,l),
(74,686,l),
(74,655,l),
(1104,655,l),
(1104,444,l)
);
},
{
closed = 1;
nodes = (
(699,813,l),
(480,981,l),
(466,964,l),
(686,777,l),
(712,777,l),
(933,964,l),
(919,981,l)
);
}
);
};
layerId = "B29C398E-974A-40D0-A0A0-00935056D4B4";
shapes = (
{
ref = E;
},
{
pos = (393,0);
ref = caroncomb;
}
);
width = 1282;
},
{
background = {
anchors = (
{
name = bottom;
pos = (405,0);
},
{
name = ogonek;
pos = (681,0);
},
{
name = top;
pos = (411,686);
}
);
shapes = (
{
closed = 1;
nodes = (
(682,0,l),
(682,179,l),
(649,179,l),
(649,31,l),
(40,31,l),
(40,0,l)
);
},
{
closed = 1;
nodes = (
(222,18,l),
(222,669,l),
(189,669,l),
(189,18,l)
);
},
{
closed = 1;
nodes = (
(460,328,l),
(460,359,l),
(218,359,l),
(218,328,l)
);
},
{
closed = 1;
nodes = (
(476,219,l),
(476,468,l),
(443,468,l),
(443,219,l)
);
},
{
closed = 1;
nodes = (
(682,507,l),
(682,686,l),
(40,686,l),
(40,655,l),
(649,655,l),
(649,507,l)
);
},
{
closed = 1;
nodes = (
(411,815,l),
(252,972,l),
(237,956,l),
(398,777,l),
(424,777,l),
(586,956,l),
(572,972,l)
);
}
);
};
layerId = "543F9737-16F7-428D-9F96-2EBD9FC8D3B6";
shapes = (
{
ref = E;
},
{
pos = (191,0);
ref = caroncomb;
}
);
width = 768;
},
{
background = {
anchors = (
{
name = bottom;
pos = (435,0);
},
{
name = ogonek;
pos = (741,0);
},
{
name = top;
pos = (403,686);
}
);
shapes = (
{
closed = 1;
nodes = (
(741,0,l),
(741,255,l),
(600,255,l),
(600,127,l),
(33,127,l),
(33,0,l)
);
},
{
closed = 1;
nodes = (
(303,70,l),
(303,605,l),
(144,605,l),
(144,70,l)
);
},
{
closed = 1;
nodes = (
(474,286,l),
(474,400,l),
(202,400,l),
(202,286,l)
);
},
{
closed = 1;
nodes = (
(527,207,l),
(527,479,l),
(408,479,l),
(408,207,l)
);
},
{
closed = 1;
nodes = (
(741,431,l),
(741,686,l),
(33,686,l),
(33,559,l),
(600,559,l),
(600,431,l)
);
},
{
closed = 1;
nodes = (
(404,868,l),
(268,966,l),
(222,923,l),
(367,750,l),
(441,750,l),
(586,923,l),
(540,966,l)
);
}
);
};
layerId = "EB38A4D2-CD30-49BA-8E45-1F04A566FFE8";
shapes = (
{
ref = E;
},
{
pos = (191,0);
ref = caroncomb;
}
);
width = 807;
},
{
background = {
anchors = (
{
name = bottom;
pos = (652,-2);
},
{
name = ogonek;
pos = (1170,0);
},
{
name = top;
pos = (651,686);
}
);
shapes = (
{
closed = 1;
nodes = (
(1170,0,l),
(1170,283,l),
(1007,283,l),
(1007,144,l),
(60,144,l),
(60,0,l)
);
},
{
closed = 1;
nodes = (
(439,79,l),
(439,593,l),
(256,593,l),
(256,79,l)
);
},
{
closed = 1;
nodes = (
(765,285,l),
(765,403,l),
(319,403,l),
(319,285,l)
);
},
{
closed = 1;
nodes = (
(825,211,l),
(825,477,l),
(681,477,l),
(681,211,l)
);
},
{
closed = 1;
nodes = (
(1170,403,l),
(1170,686,l),
(60,686,l),
(60,542,l),
(1007,542,l),
(1007,403,l)
);
},
{
closed = 1;
nodes = (
(652,859,l),
(453,934,l),
(424,884,l),
(603,750,l),
(701,750,l),
(879,884,l),
(851,934,l)
);
}
);
};
layerId = "816E4B99-7363-45E2-A2DF-0C5A75075B59";
shapes = (
{
ref = E;
},
{
pos = (366,0);
ref = caroncomb;
}
);
width = 1274;
}
);
unicode = 282;
},
{
glyphname = Ecircumflex;
kernLeft = H;
kernRight = E;
lastChange = "2023-05-31 13:55:09 +0000";
layers = (
{
background = {
anchors = (
{
name = bottom;
pos = (661,0);
},
{
name = ogonek;
pos = (1137,0);
},
{
name = top;
pos = (699,686);
}
);
shapes = (
{
closed = 1;
nodes = (
(1137,0,l),
(1137,242,l),
(1105,242,l),
(1105,31,l),
(74,31,l),
(74,0,l)
);
},
{
closed = 1;
nodes = (
(348,18,l),
(348,669,l),
(315,669,l),
(315,18,l)
);
},
{
closed = 1;
nodes = (
(770,328,l),
(770,359,l),
(343,359,l),
(343,328,l)
);
},
{
closed = 1;
nodes = (
(787,186,l),
(787,501,l),
(754,501,l),
(754,186,l)
);
},
{
closed = 1;
nodes = (
(1137,444,l),
(1137,686,l),
(74,686,l),
(74,655,l),
(1104,655,l),
(1104,444,l)
);
},
{
closed = 1;
nodes = (
(699,923,l),
(919,755,l),
(933,772,l),
(712,959,l),
(686,959,l),
(466,772,l),
(480,755,l)
);
}
);
};
layerId = "B29C398E-974A-40D0-A0A0-00935056D4B4";
shapes = (
{
ref = E;
},
{
pos = (393,0);
ref = circumflexcomb;
}
);
width = 1282;
},
{
background = {
anchors = (
{
name = bottom;
pos = (405,0);
},
{
name = ogonek;
pos = (681,0);
},
{
name = top;
pos = (411,686);
}
);
shapes = (
{
closed = 1;
nodes = (
(682,0,l),
(682,179,l),
(649,179,l),
(649,31,l),
(40,31,l),
(40,0,l)
);
},
{
closed = 1;
nodes = (
(222,18,l),
(222,669,l),
(189,669,l),
(189,18,l)
);
},
{
closed = 1;
nodes = (
(460,328,l),
(460,359,l),
(218,359,l),
(218,328,l)
);
},
{
closed = 1;
nodes = (
(476,219,l),
(476,468,l),
(443,468,l),
(443,219,l)
);
},
{
closed = 1;
nodes = (
(682,507,l),
(682,686,l),
(40,686,l),
(40,655,l),
(649,655,l),
(649,507,l)
);
},
{
closed = 1;
nodes = (
(411,913,l),
(572,757,l),
(586,771,l),
(424,950,l),
(398,950,l),
(237,771,l),
(252,757,l)
);
}
);
};
layerId = "543F9737-16F7-428D-9F96-2EBD9FC8D3B6";
shapes = (
{
ref = E;
},
{
pos = (191,0);
ref = circumflexcomb;
}
);
width = 768;
},
{
background = {
anchors = (
{
name = bottom;
pos = (435,0);
},
{
name = ogonek;
pos = (741,0);
},
{
name = top;
pos = (403,686);
}
);
shapes = (
{
closed = 1;
nodes = (
(741,0,l),
(741,255,l),
(600,255,l),
(600,127,l),
(33,127,l),
(33,0,l)
);
},
{
closed = 1;
nodes = (
(303,70,l),
(303,605,l),
(144,605,l),
(144,70,l)
);
},
{
closed = 1;
nodes = (
(474,286,l),
(474,400,l),
(202,400,l),
(202,286,l)
);
},
{
closed = 1;
nodes = (
(527,207,l),
(527,479,l),
(408,479,l),
(408,207,l)
);
},
{
closed = 1;
nodes = (
(741,431,l),
(741,686,l),
(33,686,l),
(33,559,l),
(600,559,l),
(600,431,l)
);
},
{
closed = 1;
nodes = (
(402,847,l),
(540,749,l),
(586,791,l),
(441,964,l),
(367,964,l),
(222,791,l),
(268,749,l)
);
}
);
};
layerId = "EB38A4D2-CD30-49BA-8E45-1F04A566FFE8";
shapes = (
{
ref = E;
},
{
pos = (191,-2);
ref = circumflexcomb;
}
);
width = 807;
},
{
background = {
anchors = (
{
name = bottom;
pos = (652,-2);
},
{
name = ogonek;
pos = (1170,0);
},
{
name = top;
pos = (651,686);
}
);
shapes = (
{
closed = 1;
nodes = (
(1170,0,l),
(1170,283,l),
(1007,283,l),
(1007,144,l),
(60,144,l),
(60,0,l)
);
},
{
closed = 1;
nodes = (
(439,79,l),
(439,593,l),
(256,593,l),
(256,79,l)
);
},
{
closed = 1;
nodes = (
(765,285,l),
(765,403,l),
(319,403,l),
(319,285,l)
);
},
{
closed = 1;
nodes = (
(825,211,l),
(825,477,l),
(681,477,l),
(681,211,l)
);
},
{
closed = 1;
nodes = (
(1170,403,l),
(1170,686,l),
(60,686,l),
(60,542,l),
(1007,542,l),
(1007,403,l)
);
},
{
closed = 1;
nodes = (
(650,833,l),
(851,760,l),
(879,810,l),
(701,942,l),
(603,942,l),
(424,810,l),
(453,760,l)
);
}
);
};
layerId = "816E4B99-7363-45E2-A2DF-0C5A75075B59";
shapes = (
{
ref = E;
},
{
pos = (366,0);
ref = circumflexcomb;
}
);
width = 1274;
}
);
unicode = 202;
},
{
glyphname = Edieresis;
kernLeft = H;
kernRight = E;
lastChange = "2023-05-31 13:55:09 +0000";
layers = (
{
background = {
anchors = (
{
name = bottom;
pos = (661,0);
},
{
name = ogonek;
pos = (1137,0);
},
{
name = top;
pos = (699,686);
}
);
shapes = (
{
closed = 1;
nodes = (
(1137,0,l),
(1137,242,l),
(1105,242,l),
(1105,31,l),
(74,31,l),
(74,0,l)
);
},
{
closed = 1;
nodes = (
(348,18,l),
(348,669,l),
(315,669,l),
(315,18,l)
);
},
{
closed = 1;
nodes = (
(770,328,l),
(770,359,l),
(343,359,l),
(343,328,l)
);
},
{
closed = 1;
nodes = (
(787,186,l),
(787,501,l),
(754,501,l),
(754,186,l)
);
},
{
closed = 1;
nodes = (
(1137,444,l),
(1137,686,l),
(74,686,l),
(74,655,l),
(1104,655,l),
(1104,444,l)
);
},
{
closed = 1;
nodes = (
(879,837,o),
(899,854,o),
(899,876,c),
(899,898,o),
(879,913,o),
(840,913,c),
(804,913,o),
(781,898,o),
(781,876,c),
(781,854,o),
(804,837,o),
(840,837,c)
);
},
{
closed = 1;
nodes = (
(586,837,o),
(607,854,o),
(607,876,c),
(607,898,o),
(586,913,o),
(548,913,c),
(510,913,o),
(489,898,o),
(489,876,c),
(489,854,o),
(510,837,o),
(548,837,c)
);
}
);
};
layerId = "B29C398E-974A-40D0-A0A0-00935056D4B4";
shapes = (
{
ref = E;
},
{
pos = (376,0);
ref = dieresiscomb;
}
);
width = 1282;
},
{
background = {
anchors = (
{
name = bottom;
pos = (405,0);
},
{
name = ogonek;
pos = (681,0);
},
{
name = top;
pos = (411,686);
}
);
shapes = (
{
closed = 1;
nodes = (
(682,0,l),
(682,179,l),
(649,179,l),
(649,31,l),
(40,31,l),
(40,0,l)
);
},
{
closed = 1;
nodes = (
(222,18,l),
(222,669,l),
(189,669,l),
(189,18,l)
);
},
{
closed = 1;
nodes = (
(460,328,l),
(460,359,l),
(218,359,l),
(218,328,l)
);
},
{
closed = 1;
nodes = (
(476,219,l),
(476,468,l),
(443,468,l),
(443,219,l)
);
},
{
closed = 1;
nodes = (
(682,507,l),
(682,686,l),
(40,686,l),
(40,655,l),
(649,655,l),
(649,507,l)
);
},
{
closed = 1;
nodes = (
(543,816,o),
(564,833,o),
(564,856,c),
(564,879,o),
(543,897,o),
(512,897,c),
(483,897,o),
(460,879,o),
(460,856,c),
(460,833,o),
(483,816,o),
(512,816,c)
);
},
{
closed = 1;
nodes = (
(343,816,o),
(364,833,o),
(364,856,c),
(364,879,o),
(343,897,o),
(311,897,c),
(282,897,o),
(260,879,o),
(260,856,c),
(260,833,o),
(282,816,o),
(311,816,c)
);
}
);
};
layerId = "543F9737-16F7-428D-9F96-2EBD9FC8D3B6";
shapes = (
{
ref = E;
},
{
pos = (121,0);
ref = dieresiscomb;
}
);
width = 768;
},
{
background = {
anchors = (
{
name = bottom;
pos = (435,0);
},
{
name = ogonek;
pos = (741,0);
},
{
name = top;
pos = (403,686);
}
);
shapes = (
{
closed = 1;
nodes = (
(741,0,l),
(741,255,l),
(600,255,l),
(600,127,l),
(33,127,l),
(33,0,l)
);
},
{
closed = 1;
nodes = (
(303,70,l),
(303,605,l),
(144,605,l),
(144,70,l)
);
},
{
closed = 1;
nodes = (
(474,286,l),
(474,400,l),
(202,400,l),
(202,286,l)
);
},
{
closed = 1;
nodes = (
(527,207,l),
(527,479,l),
(408,479,l),
(408,207,l)
);
},
{
closed = 1;
nodes = (
(741,431,l),
(741,686,l),
(33,686,l),
(33,559,l),
(600,559,l),
(600,431,l)
);
},
{
closed = 1;
nodes = (
(563,775,o),
(600,804,o),
(600,843,c),
(600,884,o),
(563,914,o),
(517,914,c),
(474,914,o),
(436,884,o),
(436,843,c),
(436,804,o),
(474,775,o),
(517,775,c)
);
},
{
closed = 1;
nodes = (
(329,775,o),
(364,804,o),
(364,843,c),
(364,884,o),
(329,914,o),
(283,914,c),
(239,914,o),
(200,884,o),
(200,843,c),
(200,804,o),
(239,775,o),
(283,775,c)
);
}
);
};
layerId = "EB38A4D2-CD30-49BA-8E45-1F04A566FFE8";
shapes = (
{
ref = E;
},
{
pos = (119,-2);
ref = dieresiscomb;
}
);
width = 807;
},
{
background = {
anchors = (
{
name = bottom;
pos = (652,-2);
},
{
name = ogonek;
pos = (1170,0);
},
{
name = top;
pos = (651,686);
}
);
shapes = (
{
closed = 1;
nodes = (
(1170,0,l),
(1170,283,l),
(1007,283,l),
(1007,144,l),
(60,144,l),
(60,0,l)
);
},
{
closed = 1;
nodes = (
(439,79,l),
(439,593,l),
(256,593,l),
(256,79,l)
);
},
{
closed = 1;
nodes = (
(765,285,l),
(765,403,l),
(319,403,l),
(319,285,l)
);
},
{
closed = 1;
nodes = (
(825,211,l),
(825,477,l),
(681,477,l),
(681,211,l)
);
},
{
closed = 1;
nodes = (
(1170,403,l),
(1170,686,l),
(60,686,l),
(60,542,l),
(1007,542,l),
(1007,403,l)
);
},
{
closed = 1;
nodes = (
(874,784,o),
(911,817,o),
(911,856,c),
(911,899,o),
(874,931,o),
(819,931,c),
(764,931,o),
(723,899,o),
(723,856,c),
(723,817,o),
(764,784,o),
(819,784,c)
);
},
{
closed = 1;
nodes = (
(540,784,o),
(578,817,o),
(578,856,c),
(578,899,o),
(540,931,o),
(484,931,c),
(431,931,o),
(391,899,o),
(391,856,c),
(391,817,o),
(431,784,o),
(484,784,c)
);
}
);
};
layerId = "816E4B99-7363-45E2-A2DF-0C5A75075B59";
shapes = (
{
ref = E;
},
{
pos = (356,0);
ref = dieresiscomb;
}
);
width = 1274;
}
);
unicode = 203;
},
{
glyphname = Edotaccent;
kernLeft = H;
kernRight = E;
lastChange = "2023-05-31 13:55:09 +0000";
layers = (
{
background = {
anchors = (
{
name = bottom;
pos = (661,0);
},
{
name = ogonek;
pos = (1137,0);
},
{
name = top;
pos = (699,686);
}
);
shapes = (
{
closed = 1;
nodes = (
(1137,0,l),
(1137,242,l),
(1105,242,l),
(1105,31,l),
(74,31,l),
(74,0,l)
);
},
{
closed = 1;
nodes = (
(348,18,l),
(348,669,l),
(315,669,l),
(315,18,l)
);
},
{
closed = 1;
nodes = (
(770,328,l),
(770,359,l),
(343,359,l),
(343,328,l)
);
},
{
closed = 1;
nodes = (
(787,186,l),
(787,501,l),
(754,501,l),
(754,186,l)
);
},
{
closed = 1;
nodes = (
(1137,444,l),
(1137,686,l),
(74,686,l),
(74,655,l),
(1104,655,l),
(1104,444,l)
);
},
{
closed = 1;
nodes = (
(741,836,o),
(762,853,o),
(762,876,c),
(762,899,o),
(741,916,o),
(699,916,c),
(660,916,o),
(638,899,o),
(638,876,c),
(638,853,o),
(660,836,o),
(699,836,c)
);
}
);
};
layerId = "B29C398E-974A-40D0-A0A0-00935056D4B4";
shapes = (
{
ref = E;
},
{
pos = (532,-124);
ref = dotaccentcomb;
}
);
width = 1282;
},
{
background = {
anchors = (
{
name = bottom;
pos = (405,0);
},
{
name = ogonek;
pos = (681,0);
},
{
name = top;
pos = (411,686);
}
);
shapes = (
{
closed = 1;
nodes = (
(682,0,l),
(682,179,l),
(649,179,l),
(649,31,l),
(40,31,l),
(40,0,l)
);
},
{
closed = 1;
nodes = (
(222,18,l),
(222,669,l),
(189,669,l),
(189,18,l)
);
},
{
closed = 1;
nodes = (
(460,328,l),
(460,359,l),
(218,359,l),
(218,328,l)
);
},
{
closed = 1;
nodes = (
(476,219,l),
(476,468,l),
(443,468,l),
(443,219,l)
);
},
{
closed = 1;
nodes = (
(682,507,l),
(682,686,l),
(40,686,l),
(40,655,l),
(649,655,l),
(649,507,l)
);
},
{
closed = 1;
nodes = (
(443,825,o),
(464,841,o),
(464,864,c),
(464,887,o),
(443,905,o),
(411,905,c),
(381,905,o),
(359,887,o),
(359,864,c),
(359,841,o),
(381,825,o),
(411,825,c)
);
}
);
};
layerId = "543F9737-16F7-428D-9F96-2EBD9FC8D3B6";
shapes = (
{
ref = E;
},
{
pos = (280,-138);
ref = dotaccentcomb;
}
);
width = 768;
},
{
background = {
anchors = (
{
name = bottom;
pos = (435,0);
},
{
name = ogonek;
pos = (741,0);
},
{
name = top;
pos = (403,686);
}
);
shapes = (
{
closed = 1;
nodes = (
(741,0,l),
(741,255,l),
(600,255,l),
(600,127,l),
(33,127,l),
(33,0,l)
);
},
{
closed = 1;
nodes = (
(303,70,l),
(303,605,l),
(144,605,l),
(144,70,l)
);
},
{
closed = 1;
nodes = (
(474,286,l),
(474,400,l),
(202,400,l),
(202,286,l)
);
},
{
closed = 1;
nodes = (
(527,207,l),
(527,479,l),
(408,479,l),
(408,207,l)
);
},
{
closed = 1;
nodes = (
(741,431,l),
(741,686,l),
(33,686,l),
(33,559,l),
(600,559,l),
(600,431,l)
);
},
{
closed = 1;
nodes = (
(462,759,o),
(503,792,o),
(503,836,c),
(503,883,o),
(462,916,o),
(404,916,c),
(350,916,o),
(307,883,o),
(307,836,c),
(307,792,o),
(350,759,o),
(404,759,c)
);
}
);
};
layerId = "EB38A4D2-CD30-49BA-8E45-1F04A566FFE8";
shapes = (
{
ref = E;
},
{
pos = (243,0);
ref = dotaccentcomb;
}
);
width = 807;
},
{
background = {
anchors = (
{
name = bottom;
pos = (652,-2);
},
{
name = ogonek;
pos = (1170,0);
},
{
name = top;
pos = (651,686);
}
);
shapes = (
{
closed = 1;
nodes = (
(1170,0,l),
(1170,283,l),
(1007,283,l),
(1007,144,l),
(60,144,l),
(60,0,l)
);
},
{
closed = 1;
nodes = (
(439,79,l),
(439,593,l),
(256,593,l),
(256,79,l)
);
},
{
closed = 1;
nodes = (
(765,285,l),
(765,403,l),
(319,403,l),
(319,285,l)
);
},
{
closed = 1;
nodes = (
(825,211,l),
(825,477,l),
(681,477,l),
(681,211,l)
);
},
{
closed = 1;
nodes = (
(1170,403,l),
(1170,686,l),
(60,686,l),
(60,542,l),
(1007,542,l),
(1007,403,l)
);
},
{
closed = 1;
nodes = (
(723,775,o),
(768,811,o),
(768,859,c),
(768,909,o),
(723,945,o),
(652,945,c),
(582,945,o),
(535,909,o),
(535,859,c),
(535,811,o),
(582,775,o),
(652,775,c)
);
}
);
};
layerId = "816E4B99-7363-45E2-A2DF-0C5A75075B59";
shapes = (
{
ref = E;
},
{
pos = (460,30);
ref = dotaccentcomb;
}
);
width = 1274;
}
);
unicode = 278;
},
{
glyphname = Egrave;
kernLeft = H;
kernRight = E;
lastChange = "2023-05-31 13:55:09 +0000";
layers = (
{
background = {
anchors = (
{
name = bottom;
pos = (661,0);
},
{
name = ogonek;
pos = (1137,0);
},
{
name = top;
pos = (699,686);
}
);
shapes = (
{
closed = 1;
nodes = (
(1137,0,l),
(1137,242,l),
(1105,242,l),
(1105,31,l),
(74,31,l),
(74,0,l)
);
},
{
closed = 1;
nodes = (
(348,18,l),
(348,669,l),
(315,669,l),
(315,18,l)
);
},
{
closed = 1;
nodes = (
(770,328,l),
(770,359,l),
(343,359,l),
(343,328,l)
);
},
{
closed = 1;
nodes = (
(787,186,l),
(787,501,l),
(754,501,l),
(754,186,l)
);
},
{
closed = 1;
nodes = (
(1137,444,l),
(1137,686,l),
(74,686,l),
(74,655,l),
(1104,655,l),
(1104,444,l)
);
},
{
closed = 1;
nodes = (
(777,771,l),
(459,942,l),
(479,978,l),
(789,792,l)
);
}
);
};
layerId = "B29C398E-974A-40D0-A0A0-00935056D4B4";
shapes = (
{
ref = E;
},
{
pos = (393,0);
ref = gravecomb;
}
);
width = 1282;
},
{
background = {
anchors = (
{
name = bottom;
pos = (405,0);
},
{
name = ogonek;
pos = (681,0);
},
{
name = top;
pos = (411,686);
}
);
shapes = (
{
closed = 1;
nodes = (
(682,0,l),
(682,179,l),
(649,179,l),
(649,31,l),
(40,31,l),
(40,0,l)
);
},
{
closed = 1;
nodes = (
(222,18,l),
(222,669,l),
(189,669,l),
(189,18,l)
);
},
{
closed = 1;
nodes = (
(460,328,l),
(460,359,l),
(218,359,l),
(218,328,l)
);
},
{
closed = 1;
nodes = (
(476,219,l),
(476,468,l),
(443,468,l),
(443,219,l)
);
},
{
closed = 1;
nodes = (
(682,507,l),
(682,686,l),
(40,686,l),
(40,655,l),
(649,655,l),
(649,507,l)
);
},
{
closed = 1;
nodes = (
(435,763,l),
(215,943,l),
(240,971,l),
(451,779,l)
);
}
);
};
layerId = "543F9737-16F7-428D-9F96-2EBD9FC8D3B6";
shapes = (
{
ref = E;
},
{
pos = (123,0);
ref = gravecomb;
}
);
width = 768;
},
{
background = {
anchors = (
{
name = bottom;
pos = (435,0);
},
{
name = ogonek;
pos = (741,0);
},
{
name = top;
pos = (403,686);
}
);
shapes = (
{
closed = 1;
nodes = (
(741,0,l),
(741,255,l),
(600,255,l),
(600,127,l),
(33,127,l),
(33,0,l)
);
},
{
closed = 1;
nodes = (
(303,70,l),
(303,605,l),
(144,605,l),
(144,70,l)
);
},
{
closed = 1;
nodes = (
(474,286,l),
(474,400,l),
(202,400,l),
(202,286,l)
);
},
{
closed = 1;
nodes = (
(527,207,l),
(527,479,l),
(408,479,l),
(408,207,l)
);
},
{
closed = 1;
nodes = (
(741,431,l),
(741,686,l),
(33,686,l),
(33,559,l),
(600,559,l),
(600,431,l)
);
},
{
closed = 1;
nodes = (
(421,766,l),
(196,887,l),
(272,997,l),
(460,823,l)
);
}
);
};
layerId = "EB38A4D2-CD30-49BA-8E45-1F04A566FFE8";
shapes = (
{
ref = E;
},
{
pos = (93,20);
ref = gravecomb;
}
);
width = 807;
},
{
background = {
anchors = (
{
name = bottom;
pos = (652,-2);
},
{
name = ogonek;
pos = (1170,0);
},
{
name = top;
pos = (651,686);
}
);
shapes = (
{
closed = 1;
nodes = (
(1170,0,l),
(1170,283,l),
(1007,283,l),
(1007,144,l),
(60,144,l),
(60,0,l)
);
},
{
closed = 1;
nodes = (
(439,79,l),
(439,593,l),
(256,593,l),
(256,79,l)
);
},
{
closed = 1;
nodes = (
(765,285,l),
(765,403,l),
(319,403,l),
(319,285,l)
);
},
{
closed = 1;
nodes = (
(825,211,l),
(825,477,l),
(681,477,l),
(681,211,l)
);
},
{
closed = 1;
nodes = (
(1170,403,l),
(1170,686,l),
(60,686,l),
(60,542,l),
(1007,542,l),
(1007,403,l)
);
},
{
closed = 1;
nodes = (
(744,744,l),
(418,904,l),
(497,1029,l),
(793,810,l)
);
}
);
};
layerId = "816E4B99-7363-45E2-A2DF-0C5A75075B59";
shapes = (
{
ref = E;
},
{
pos = (347,31);
ref = gravecomb;
}
);
width = 1274;
}
);
unicode = 200;
},
{
glyphname = Emacron;
kernLeft = H;
kernRight = E;
lastChange = "2023-05-31 13:55:09 +0000";
layers = (
{
background = {
anchors = (
{
name = bottom;
pos = (661,0);
},
{
name = ogonek;
pos = (1137,0);
},
{
name = top;
pos = (699,686);
}
);
shapes = (
{
closed = 1;
nodes = (
(1137,0,l),
(1137,242,l),
(1105,242,l),
(1105,31,l),
(74,31,l),
(74,0,l)
);
},
{
closed = 1;
nodes = (
(348,18,l),
(348,669,l),
(315,669,l),
(315,18,l)
);
},
{
closed = 1;
nodes = (
(770,328,l),
(770,359,l),
(343,359,l),
(343,328,l)
);
},
{
closed = 1;
nodes = (
(787,186,l),
(787,501,l),
(754,501,l),
(754,186,l)
);
},
{
closed = 1;
nodes = (
(1137,444,l),
(1137,686,l),
(74,686,l),
(74,655,l),
(1104,655,l),
(1104,444,l)
);
},
{
closed = 1;
nodes = (
(377,893,l),
(377,862,l),
(1007,862,l),
(1007,893,l)
);
}
);
};
layerId = "B29C398E-974A-40D0-A0A0-00935056D4B4";
shapes = (
{
ref = E;
},
{
pos = (285,0);
ref = macroncomb;
}
);
width = 1282;
},
{
background = {
anchors = (
{
name = bottom;
pos = (405,0);
},
{
name = ogonek;
pos = (681,0);
},
{
name = top;
pos = (411,686);
}
);
shapes = (
{
closed = 1;
nodes = (
(682,0,l),
(682,179,l),
(649,179,l),
(649,31,l),
(40,31,l),
(40,0,l)
);
},
{
closed = 1;
nodes = (
(222,18,l),
(222,669,l),
(189,669,l),
(189,18,l)
);
},
{
closed = 1;
nodes = (
(460,328,l),
(460,359,l),
(218,359,l),
(218,328,l)
);
},
{
closed = 1;
nodes = (
(476,219,l),
(476,468,l),
(443,468,l),
(443,219,l)
);
},
{
closed = 1;
nodes = (
(682,507,l),
(682,686,l),
(40,686,l),
(40,655,l),
(649,655,l),
(649,507,l)
);
},
{
closed = 1;
nodes = (
(218,833,l),
(218,801,l),
(606,801,l),
(606,833,l)
);
}
);
};
layerId = "543F9737-16F7-428D-9F96-2EBD9FC8D3B6";
shapes = (
{
ref = E;
},
{
pos = (145,-49);
ref = macroncomb;
}
);
width = 768;
},
{
background = {
anchors = (
{
name = bottom;
pos = (435,0);
},
{
name = ogonek;
pos = (741,0);
},
{
name = top;
pos = (403,686);
}
);
shapes = (
{
closed = 1;
nodes = (
(741,0,l),
(741,255,l),
(600,255,l),
(600,127,l),
(33,127,l),
(33,0,l)
);
},
{
closed = 1;
nodes = (
(303,70,l),
(303,605,l),
(144,605,l),
(144,70,l)
);
},
{
closed = 1;
nodes = (
(474,286,l),
(474,400,l),
(202,400,l),
(202,286,l)
);
},
{
closed = 1;
nodes = (
(527,207,l),
(527,479,l),
(408,479,l),
(408,207,l)
);
},
{
closed = 1;
nodes = (
(741,431,l),
(741,686,l),
(33,686,l),
(33,559,l),
(600,559,l),
(600,431,l)
);
},
{
closed = 1;
nodes = (
(210,887,l),
(210,783,l),
(582,780,l),
(582,884,l)
);
}
);
};
layerId = "EB38A4D2-CD30-49BA-8E45-1F04A566FFE8";
shapes = (
{
ref = E;
},
{
pos = (140,0);
ref = macroncomb;
}
);
width = 807;
},
{
background = {
anchors = (
{
name = bottom;
pos = (652,-2);
},
{
name = ogonek;
pos = (1170,0);
},
{
name = top;
pos = (651,686);
}
);
shapes = (
{
closed = 1;
nodes = (
(1170,0,l),
(1170,283,l),
(1007,283,l),
(1007,144,l),
(60,144,l),
(60,0,l)
);
},
{
closed = 1;
nodes = (
(439,79,l),
(439,593,l),
(256,593,l),
(256,79,l)
);
},
{
closed = 1;
nodes = (
(765,285,l),
(765,403,l),
(319,403,l),
(319,285,l)
);
},
{
closed = 1;
nodes = (
(825,211,l),
(825,477,l),
(681,477,l),
(681,211,l)
);
},
{
closed = 1;
nodes = (
(1170,403,l),
(1170,686,l),
(60,686,l),
(60,542,l),
(1007,542,l),
(1007,403,l)
);
},
{
closed = 1;
nodes = (
(364,905,l),
(364,786,l),
(928,783,l),
(928,900,l)
);
}
);
};
layerId = "816E4B99-7363-45E2-A2DF-0C5A75075B59";
shapes = (
{
ref = E;
},
{
pos = (239,-17);
ref = macroncomb;
}
);
width = 1274;
}
);
unicode = 274;
},
{
glyphname = Eogonek;
kernLeft = H;
kernRight = E;
lastChange = "2023-05-31 13:55:09 +0000";
layers = (
{
background = {
anchors = (
{
name = bottom;
pos = (661,0);
},
{
name = ogonek;
pos = (1137,0);
},
{
name = top;
pos = (699,686);
}
);
shapes = (
{
closed = 1;
nodes = (
(1137,0,l),
(1137,242,l),
(1105,242,l),
(1105,31,l),
(74,31,l),
(74,0,l)
);
},
{
closed = 1;
nodes = (
(348,18,l),
(348,669,l),
(315,669,l),
(315,18,l)
);
},
{
closed = 1;
nodes = (
(770,328,l),
(770,359,l),
(343,359,l),
(343,328,l)
);
},
{
closed = 1;
nodes = (
(787,186,l),
(787,501,l),
(754,501,l),
(754,186,l)
);
},
{
closed = 1;
nodes = (
(1137,444,l),
(1137,686,l),
(74,686,l),
(74,655,l),
(1104,655,l),
(1104,444,l)
);
},
{
closed = 1;
nodes = (
(1058,-287,o),
(1114,-260,o),
(1164,-216,c),
(1147,-196,l),
(1098,-234,o),
(1054,-258,o),
(1006,-258,cs),
(959,-258,o),
(924,-231,o),
(924,-183,cs),
(924,-123,o),
(987,-52,o),
(1137,0,c),
(1106,5,l),
(959,-41,o),
(893,-121,o),
(893,-186,cs),
(893,-245,o),
(942,-287,o),
(1006,-287,cs)
);
}
);
};
layerId = "B29C398E-974A-40D0-A0A0-00935056D4B4";
shapes = (
{
ref = E;
},
{
pos = (902,0);
ref = ogonekcomb;
}
);
width = 1282;
},
{
background = {
anchors = (
{
name = bottom;
pos = (405,0);
},
{
name = ogonek;
pos = (681,0);
},
{
name = top;
pos = (411,686);
}
);
shapes = (
{
closed = 1;
nodes = (
(682,0,l),
(682,179,l),
(649,179,l),
(649,31,l),
(40,31,l),
(40,0,l)
);
},
{
closed = 1;
nodes = (
(222,18,l),
(222,669,l),
(189,669,l),
(189,18,l)
);
},
{
closed = 1;
nodes = (
(460,328,l),
(460,359,l),
(218,359,l),
(218,328,l)
);
},
{
closed = 1;
nodes = (
(476,219,l),
(476,468,l),
(443,468,l),
(443,219,l)
);
},
{
closed = 1;
nodes = (
(682,507,l),
(682,686,l),
(40,686,l),
(40,655,l),
(649,655,l),
(649,507,l)
);
},
{
closed = 1;
nodes = (
(645,-287,o),
(691,-253,o),
(711,-211,c),
(688,-197,l),
(670,-231,o),
(637,-258,o),
(597,-258,cs),
(561,-258,o),
(527,-234,o),
(527,-185,cs),
(527,-133,o),
(575,-57,o),
(681,0,c),
(653,5,l),
(547,-51,o),
(496,-126,o),
(496,-189,cs),
(496,-249,o),
(544,-287,o),
(597,-287,cs)
);
}
);
};
layerId = "543F9737-16F7-428D-9F96-2EBD9FC8D3B6";
shapes = (
{
ref = E;
},
{
pos = (446,0);
ref = ogonekcomb;
}
);
width = 768;
},
{
background = {
anchors = (
{
name = bottom;
pos = (435,0);
},
{
name = ogonek;
pos = (741,0);
},
{
name = top;
pos = (403,686);
}
);
shapes = (
{
closed = 1;
nodes = (
(741,0,l),
(741,255,l),
(600,255,l),
(600,127,l),
(33,127,l),
(33,0,l)
);
},
{
closed = 1;
nodes = (
(303,70,l),
(303,605,l),
(144,605,l),
(144,70,l)
);
},
{
closed = 1;
nodes = (
(474,286,l),
(474,400,l),
(202,400,l),
(202,286,l)
);
},
{
closed = 1;
nodes = (
(527,207,l),
(527,479,l),
(408,479,l),
(408,207,l)
);
},
{
closed = 1;
nodes = (
(741,431,l),
(741,686,l),
(33,686,l),
(33,559,l),
(600,559,l),
(600,431,l)
);
},
{
closed = 1;
nodes = (
(702,-277,o),
(742,-259,o),
(777,-233,c),
(736,-152,l),
(715,-164,o),
(699,-170,o),
(678,-170,cs),
(652,-170,o),
(631,-154,o),
(631,-123,cs),
(631,-88,o),
(660,-50,o),
(741,0,c),
(662,5,l),
(609,-20,o),
(522,-75,o),
(522,-164,cs),
(522,-243,o),
(589,-277,o),
(654,-277,cs)
);
}
);
};
layerId = "EB38A4D2-CD30-49BA-8E45-1F04A566FFE8";
shapes = (
{
ref = E;
},
{
pos = (515,0);
ref = ogonekcomb;
}
);
width = 807;
},
{
background = {
anchors = (
{
name = bottom;
pos = (652,-2);
},
{
name = ogonek;
pos = (1170,0);
},
{
name = top;
pos = (651,686);
}
);
shapes = (
{
closed = 1;
nodes = (
(1170,0,l),
(1170,283,l),
(1007,283,l),
(1007,144,l),
(60,144,l),
(60,0,l)
);
},
{
closed = 1;
nodes = (
(439,79,l),
(439,593,l),
(256,593,l),
(256,79,l)
);
},
{
closed = 1;
nodes = (
(765,285,l),
(765,403,l),
(319,403,l),
(319,285,l)
);
},
{
closed = 1;
nodes = (
(825,211,l),
(825,477,l),
(681,477,l),
(681,211,l)
);
},
{
closed = 1;
nodes = (
(1170,403,l),
(1170,686,l),
(60,686,l),
(60,542,l),
(1007,542,l),
(1007,403,l)
);
},
{
closed = 1;
nodes = (
(1127,-279,o),
(1179,-255,o),
(1232,-219,c),
(1184,-125,l),
(1154,-144,o),
(1114,-163,o),
(1071,-163,cs),
(1036,-163,o),
(1012,-147,o),
(1012,-117,cs),
(1012,-84,o),
(1068,-38,o),
(1170,0,c),
(1066,45,l),
(944,-3,o),
(883,-76,o),
(883,-152,cs),
(883,-240,o),
(962,-279,o),
(1045,-279,cs)
);
}
);
};
layerId = "816E4B99-7363-45E2-A2DF-0C5A75075B59";
shapes = (
{
ref = E;
},
{
pos = (896,12);
ref = ogonekcomb;
}
);
width = 1274;
}
);
unicode = 280;
},
{
glyphname = F;
kernLeft = H;
kernRight = F;
lastChange = "2023-05-31 13:55:09 +0000";
layers = (
{
anchors = (
{
name = bottom;
pos = (593,0);
},
{
name = top;
pos = (593,686);
}
);
background = {
anchors = (
{
name = bottom;
pos = (593,0);
},
{
name = top;
pos = (593,686);
}
);
shapes = (
{
closed = 1;
nodes = (
(1071,444,l),
(1071,686,l),
(74,686,l),
(74,655,l),
(1039,655,l),
(1039,444,l)
);
},
{
closed = 1;
nodes = (
(601,0,l),
(601,31,l),
(74,31,l),
(74,0,l)
);
},
{
closed = 1;
nodes = (
(348,18,l),
(348,669,l),
(315,669,l),
(315,18,l)
);
},
{
closed = 1;
nodes = (
(730,317,l),
(730,348,l),
(343,348,l),
(343,317,l)
);
},
{
closed = 1;
nodes = (
(747,174,l),
(747,490,l),
(714,490,l),
(714,174,l)
);
}
);
};
layerId = "B29C398E-974A-40D0-A0A0-00935056D4B4";
shapes = (
{
closed = 1;
nodes = (
(1071,444,l),
(1071,686,l),
(74,686,l),
(74,655,l),
(1039,655,l),
(1039,444,l)
);
},
{
closed = 1;
nodes = (
(601,0,l),
(601,31,l),
(74,31,l),
(74,0,l)
);
},
{
closed = 1;
nodes = (
(348,18,l),
(348,669,l),
(315,669,l),
(315,18,l)
);
},
{
closed = 1;
nodes = (
(730,317,l),
(730,348,l),
(343,348,l),
(343,317,l)
);
},
{
closed = 1;
nodes = (
(747,174,l),
(747,490,l),
(714,490,l),
(714,174,l)
);
}
);
width = 1170;
},
{
anchors = (
{
name = bottom;
pos = (370,0);
},
{
name = top;
pos = (370,686);
}
);
background = {
anchors = (
{
name = bottom;
pos = (370,0);
},
{
name = top;
pos = (370,686);
}
);
shapes = (
{
closed = 1;
nodes = (
(695,507,l),
(695,686,l),
(40,686,l),
(40,655,l),
(662,655,l),
(662,507,l)
);
},
{
closed = 1;
nodes = (
(377,0,l),
(377,31,l),
(40,31,l),
(40,0,l)
);
},
{
closed = 1;
nodes = (
(222,18,l),
(222,669,l),
(189,669,l),
(189,18,l)
);
},
{
closed = 1;
nodes = (
(486,318,l),
(486,349,l),
(218,349,l),
(218,318,l)
);
},
{
closed = 1;
nodes = (
(503,209,l),
(503,458,l),
(470,458,l),
(470,209,l)
);
}
);
};
layerId = "543F9737-16F7-428D-9F96-2EBD9FC8D3B6";
shapes = (
{
closed = 1;
nodes = (
(695,507,l),
(695,686,l),
(40,686,l),
(40,655,l),
(662,655,l),
(662,507,l)
);
},
{
closed = 1;
nodes = (
(377,0,l),
(377,31,l),
(40,31,l),
(40,0,l)
);
},
{
closed = 1;
nodes = (
(222,18,l),
(222,669,l),
(189,669,l),
(189,18,l)
);
},
{
closed = 1;
nodes = (
(486,318,l),
(486,349,l),
(218,349,l),
(218,318,l)
);
},
{
closed = 1;
nodes = (
(503,209,l),
(503,458,l),
(470,458,l),
(470,209,l)
);
}
);
width = 735;
},
{
anchors = (
{
name = bottom;
pos = (403,0);
},
{
name = top;
pos = (403,686);
}
);
background = {
anchors = (
{
name = bottom;
pos = (403,0);
},
{
name = top;
pos = (403,686);
}
);
shapes = (
{
closed = 1;
nodes = (
(707,422,l),
(707,686,l),
(33,686,l),
(33,559,l),
(566,559,l),
(566,422,l)
);
},
{
closed = 1;
nodes = (
(424,0,l),
(424,127,l),
(33,127,l),
(33,0,l)
);
},
{
closed = 1;
nodes = (
(304,70,l),
(304,613,l),
(145,613,l),
(145,70,l)
);
},
{
closed = 1;
nodes = (
(458,277,l),
(458,391,l),
(204,391,l),
(204,277,l)
);
},
{
closed = 1;
nodes = (
(510,197,l),
(510,470,l),
(392,470,l),
(392,197,l)
);
}
);
};
layerId = "EB38A4D2-CD30-49BA-8E45-1F04A566FFE8";
shapes = (
{
closed = 1;
nodes = (
(707,422,l),
(707,686,l),
(33,686,l),
(33,559,l),
(566,559,l),
(566,422,l)
);
},
{
closed = 1;
nodes = (
(424,0,l),
(424,127,l),
(33,127,l),
(33,0,l)
);
},
{
closed = 1;
nodes = (
(304,70,l),
(304,613,l),
(145,613,l),
(145,70,l)
);
},
{
closed = 1;
nodes = (
(458,277,l),
(458,391,l),
(204,391,l),
(204,277,l)
);
},
{
closed = 1;
nodes = (
(510,197,l),
(510,470,l),
(392,470,l),
(392,197,l)
);
}
);
width = 740;
},
{
anchors = (
{
name = bottom;
pos = (626,0);
},
{
name = top;
pos = (626,686);
}
);
background = {
anchors = (
{
name = bottom;
pos = (626,0);
},
{
name = top;
pos = (626,686);
}
);
shapes = (
{
closed = 1;
nodes = (
(1104,373,l),
(1104,686,l),
(60,686,l),
(60,542,l),
(941,542,l),
(941,373,l)
);
},
{
closed = 1;
nodes = (
(650,0,l),
(650,144,l),
(60,144,l),
(60,0,l)
);
},
{
closed = 1;
nodes = (
(440,79,l),
(440,603,l),
(257,603,l),
(257,79,l)
);
},
{
closed = 1;
nodes = (
(738,273,l),
(738,392,l),
(321,392,l),
(321,273,l)
);
},
{
closed = 1;
nodes = (
(794,192,l),
(794,472,l),
(650,472,l),
(650,192,l)
);
}
);
};
layerId = "816E4B99-7363-45E2-A2DF-0C5A75075B59";
shapes = (
{
closed = 1;
nodes = (
(1104,373,l),
(1104,686,l),
(60,686,l),
(60,542,l),
(941,542,l),
(941,373,l)
);
},
{
closed = 1;
nodes = (
(650,0,l),
(650,144,l),
(60,144,l),
(60,0,l)
);
},
{
closed = 1;
nodes = (
(440,79,l),
(440,603,l),
(257,603,l),
(257,79,l)
);
},
{
closed = 1;
nodes = (
(738,273,l),
(738,392,l),
(321,392,l),
(321,273,l)
);
},
{
closed = 1;
nodes = (
(794,192,l),
(794,472,l),
(650,472,l),
(650,192,l)
);
}
);
width = 1152;
}
);
metricLeft = "=H";
unicode = 70;
},
{
glyphname = G;
kernLeft = O;
kernRight = G;
lastChange = "2023-05-31 13:55:09 +0000";
layers = (
{
anchors = (
{
name = bottom;
pos = (610,-14);
},
{
name = top;
pos = (580,700);
}
);
background = {
anchors = (
{
name = bottom;
pos = (610,-14);
},
{
name = top;
pos = (580,700);
}
);
shapes = (
{
closed = 1;
nodes = (
(762,-13,o),
(933,44,o),
(1057,137,c),
(1057,336,l),
(575,336,l),
(575,305,l),
(1024,305,l),
(1024,153,l),
(904,70,o),
(748,18,o),
(575,18,cs),
(336,18,o),
(139,141,o),
(139,342,cs),
(139,546,o),
(342,669,o),
(586,669,cs),
(768,669,o),
(923,608,o),
(1042,436,c),
(1057,437,l),
(1057,686,l),
(1026,686,l),
(1026,476,l),
(1042,476,l),
(950,608,o),
(799,700,o),
(586,700,cs),
(331,700,o),
(106,569,o),
(106,342,cs),
(106,118,o),
(322,-13,o),
(575,-13,cs)
);
}
);
};
layerId = "B29C398E-974A-40D0-A0A0-00935056D4B4";
shapes = (
{
closed = 1;
nodes = (
(762,-13,o),
(933,44,o),
(1057,137,c),
(1057,336,l),
(575,336,l),
(575,305,l),
(1024,305,l),
(1024,153,l),
(904,70,o),
(748,18,o),
(575,18,cs),
(336,18,o),
(139,141,o),
(139,342,cs),
(139,546,o),
(342,669,o),
(586,669,cs),
(768,669,o),
(923,608,o),
(1042,436,c),
(1057,437,l),
(1057,686,l),
(1026,686,l),
(1026,476,l),
(1042,476,l),
(950,608,o),
(799,700,o),
(586,700,cs),
(331,700,o),
(106,569,o),
(106,342,cs),
(106,118,o),
(322,-13,o),
(575,-13,cs)
);
}
);
width = 1212;
},
{
anchors = (
{
name = bottom;
pos = (395,-14);
},
{
name = top;
pos = (395,700);
}
);
background = {
anchors = (
{
name = bottom;
pos = (395,-14);
},
{
name = top;
pos = (395,700);
}
);
shapes = (
{
closed = 1;
nodes = (
(528,-14,o),
(628,36,o),
(688,95,c),
(688,322,l),
(391,322,l),
(391,291,l),
(655,291,l),
(655,106,l),
(605,58,o),
(517,17,o),
(404,17,cs),
(234,17,o),
(99,146,o),
(99,343,cs),
(99,540,o),
(237,669,o),
(397,669,cs),
(539,669,o),
(619,595,o),
(672,488,c),
(688,490,l),
(688,686,l),
(659,686,l),
(659,546,l),
(669,546,l),
(637,614,o),
(548,700,o),
(397,700,cs),
(226,700,o),
(66,563,o),
(66,343,cs),
(66,123,o),
(221,-14,o),
(404,-14,cs)
);
}
);
};
layerId = "543F9737-16F7-428D-9F96-2EBD9FC8D3B6";
shapes = (
{
closed = 1;
nodes = (
(528,-14,o),
(628,36,o),
(688,95,c),
(688,322,l),
(391,322,l),
(391,291,l),
(655,291,l),
(655,106,l),
(605,58,o),
(517,17,o),
(404,17,cs),
(234,17,o),
(99,146,o),
(99,343,cs),
(99,540,o),
(237,669,o),
(397,669,cs),
(539,669,o),
(619,595,o),
(672,488,c),
(688,490,l),
(688,686,l),
(659,686,l),
(659,546,l),
(669,546,l),
(637,614,o),
(548,700,o),
(397,700,cs),
(226,700,o),
(66,563,o),
(66,343,cs),
(66,123,o),
(221,-14,o),
(404,-14,cs)
);
}
);
width = 788;
},
{
anchors = (
{
name = bottom;
pos = (410,-14);
},
{
name = top;
pos = (410,700);
}
);
background = {
anchors = (
{
name = bottom;
pos = (410,-14);
},
{
name = top;
pos = (410,700);
}
);
shapes = (
{
closed = 1;
nodes = (
(553,-14,o),
(669,33,o),
(737,93,c),
(737,372,l),
(409,372,l),
(409,253,l),
(592,253,l),
(592,163,l),
(550,136,o),
(500,117,o),
(419,117,cs),
(290,117,o),
(202,209,o),
(202,343,cs),
(202,491,o),
(297,573,o),
(417,573,cs),
(521,573,o),
(595,509,o),
(631,451,c),
(737,458,l),
(737,686,l),
(595,686,l),
(595,560,l),
(666,537,l),
(612,635,o),
(510,700,o),
(375,700,cs),
(184,700,o),
(33,542,o),
(33,343,cs),
(33,143,o),
(176,-14,o),
(419,-14,cs)
);
}
);
};
layerId = "EB38A4D2-CD30-49BA-8E45-1F04A566FFE8";
shapes = (
{
closed = 1;
nodes = (
(553,-14,o),
(669,33,o),
(737,93,c),
(737,372,l),
(409,372,l),
(409,253,l),
(592,253,l),
(592,163,l),
(550,136,o),
(500,117,o),
(419,117,cs),
(290,117,o),
(202,209,o),
(202,343,cs),
(202,491,o),
(297,573,o),
(417,573,cs),
(521,573,o),
(595,509,o),
(631,451,c),
(737,458,l),
(737,686,l),
(595,686,l),
(595,560,l),
(666,537,l),
(612,635,o),
(510,700,o),
(375,700,cs),
(184,700,o),
(33,542,o),
(33,343,cs),
(33,143,o),
(176,-14,o),
(419,-14,cs)
);
}
);
width = 812;
},
{
anchors = (
{
name = bottom;
pos = (576,-14);
},
{
name = top;
pos = (601,700);
}
);
background = {
anchors = (
{
name = bottom;
pos = (576,-14);
},
{
name = top;
pos = (601,700);
}
);
shapes = (
{
closed = 1;
nodes = (
(795,-13,o),
(971,53,o),
(1088,132,c),
(1088,379,l),
(594,379,l),
(594,244,l),
(911,244,l),
(911,207,l),
(848,168,o),
(724,130,o),
(594,130,cs),
(382,130,o),
(234,200,o),
(234,342,cs),
(234,481,o),
(386,557,o),
(583,557,cs),
(736,557,o),
(868,503,o),
(967,438,c),
(1088,462,l),
(1088,686,l),
(925,686,l),
(925,540,l),
(1009,514,l),
(890,645,o),
(727,700,o),
(532,700,cs),
(255,700,o),
(39,560,o),
(39,342,cs),
(39,119,o),
(270,-13,o),
(586,-13,cs)
);
}
);
};
layerId = "816E4B99-7363-45E2-A2DF-0C5A75075B59";
shapes = (
{
closed = 1;
nodes = (
(795,-13,o),
(971,53,o),
(1088,132,c),
(1088,379,l),
(594,379,l),
(594,244,l),
(911,244,l),
(911,207,l),
(848,168,o),
(724,130,o),
(594,130,cs),
(382,130,o),
(234,200,o),
(234,342,cs),
(234,481,o),
(386,557,o),
(583,557,cs),
(736,557,o),
(868,503,o),
(967,438,c),
(1088,462,l),
(1088,686,l),
(925,686,l),
(925,540,l),
(1009,514,l),
(890,645,o),
(727,700,o),
(532,700,cs),
(255,700,o),
(39,560,o),
(39,342,cs),
(39,119,o),
(270,-13,o),
(586,-13,cs)
);
}
);
width = 1172;
}
);
unicode = 71;
},
{
glyphname = Gbreve;
kernLeft = O;
kernRight = G;
lastChange = "2023-05-31 13:55:09 +0000";
layers = (
{
background = {
anchors = (
{
name = bottom;
pos = (610,-14);
},
{
name = top;
pos = (580,700);
}
);
shapes = (
{
closed = 1;
nodes = (
(762,-13,o),
(933,44,o),
(1057,137,c),
(1057,336,l),
(575,336,l),
(575,305,l),
(1024,305,l),
(1024,153,l),
(904,70,o),
(748,18,o),
(575,18,cs),
(336,18,o),
(139,141,o),
(139,342,cs),
(139,546,o),
(342,669,o),
(586,669,cs),
(768,669,o),
(923,608,o),
(1042,436,c),
(1057,437,l),
(1057,686,l),
(1026,686,l),
(1026,476,l),
(1042,476,l),
(950,608,o),
(799,700,o),
(586,700,cs),
(331,700,o),
(106,569,o),
(106,342,cs),
(106,118,o),
(322,-13,o),
(575,-13,cs)
);
},
{
closed = 1;
nodes = (
(708,817,o),
(788,911,o),
(808,1003,c),
(782,1010,l),
(755,917,o),
(677,848,o),
(581,848,c),
(485,848,o),
(404,917,o),
(378,1010,c),
(351,1003,l),
(371,911,o),
(452,817,o),
(580,817,c)
);
}
);
};
layerId = "B29C398E-974A-40D0-A0A0-00935056D4B4";
shapes = (
{
ref = G;
},
{
pos = (259,14);
ref = brevecomb;
}
);
width = 1212;
},
{
background = {
anchors = (
{
name = bottom;
pos = (395,-14);
},
{
name = top;
pos = (395,700);
}
);
shapes = (
{
closed = 1;
nodes = (
(528,-14,o),
(628,36,o),
(688,95,c),
(688,322,l),
(391,322,l),
(391,291,l),
(655,291,l),
(655,106,l),
(605,58,o),
(517,17,o),
(404,17,cs),
(234,17,o),
(99,146,o),
(99,343,cs),
(99,540,o),
(237,669,o),
(397,669,cs),
(539,669,o),
(619,595,o),
(672,488,c),
(688,490,l),
(688,686,l),
(659,686,l),
(659,546,l),
(669,546,l),
(637,614,o),
(548,700,o),
(397,700,cs),
(226,700,o),
(66,563,o),
(66,343,cs),
(66,123,o),
(221,-14,o),
(404,-14,cs)
);
},
{
closed = 1;
nodes = (
(510,804,o),
(560,891,o),
(572,951,c),
(546,956,l),
(527,894,o),
(480,835,o),
(396,835,c),
(313,835,o),
(263,894,o),
(245,956,c),
(218,951,l),
(230,891,o),
(280,804,o),
(395,804,c)
);
}
);
};
layerId = "543F9737-16F7-428D-9F96-2EBD9FC8D3B6";
shapes = (
{
ref = G;
},
{
pos = (139,14);
ref = brevecomb;
}
);
width = 788;
},
{
background = {
anchors = (
{
name = bottom;
pos = (410,-14);
},
{
name = top;
pos = (410,700);
}
);
shapes = (
{
closed = 1;
nodes = (
(553,-14,o),
(669,33,o),
(737,93,c),
(737,372,l),
(409,372,l),
(409,253,l),
(592,253,l),
(592,163,l),
(550,136,o),
(500,117,o),
(419,117,cs),
(290,117,o),
(202,209,o),
(202,343,cs),
(202,491,o),
(297,573,o),
(417,573,cs),
(521,573,o),
(595,509,o),
(631,451,c),
(737,458,l),
(737,686,l),
(595,686,l),
(595,560,l),
(666,537,l),
(612,635,o),
(510,700,o),
(375,700,cs),
(184,700,o),
(33,542,o),
(33,343,cs),
(33,143,o),
(176,-14,o),
(419,-14,cs)
);
},
{
closed = 1;
nodes = (
(516,768,o),
(591,852,o),
(595,946,c),
(505,964,l),
(495,918,o),
(452,893,o),
(410,893,c),
(366,893,o),
(324,918,o),
(313,964,c),
(224,946,l),
(227,852,o),
(305,768,o),
(410,768,c)
);
}
);
};
layerId = "EB38A4D2-CD30-49BA-8E45-1F04A566FFE8";
shapes = (
{
ref = G;
},
{
pos = (173,14);
ref = brevecomb;
}
);
width = 812;
},
{
background = {
anchors = (
{
name = bottom;
pos = (576,-14);
},
{
name = top;
pos = (601,700);
}
);
shapes = (
{
closed = 1;
nodes = (
(795,-13,o),
(971,53,o),
(1088,132,c),
(1088,379,l),
(594,379,l),
(594,244,l),
(911,244,l),
(911,207,l),
(848,168,o),
(724,130,o),
(594,130,cs),
(382,130,o),
(234,200,o),
(234,342,cs),
(234,481,o),
(386,557,o),
(583,557,cs),
(736,557,o),
(868,503,o),
(967,438,c),
(1088,462,l),
(1088,686,l),
(925,686,l),
(925,540,l),
(1009,514,l),
(890,645,o),
(727,700,o),
(532,700,cs),
(255,700,o),
(39,560,o),
(39,342,cs),
(39,119,o),
(270,-13,o),
(586,-13,cs)
);
},
{
closed = 1;
nodes = (
(729,782,o),
(821,866,o),
(832,976,c),
(730,993,l),
(714,950,o),
(650,925,o),
(600,925,c),
(550,925,o),
(487,950,o),
(470,993,c),
(369,976,l),
(378,866,o),
(475,782,o),
(600,782,c)
);
}
);
};
layerId = "816E4B99-7363-45E2-A2DF-0C5A75075B59";
shapes = (
{
ref = G;
},
{
pos = (315,14);
ref = brevecomb;
}
);
width = 1172;
}
);
unicode = 286;
},
{
glyphname = Gcommaaccent;
kernLeft = O;
kernRight = G;
lastChange = "2023-05-31 13:55:09 +0000";
layers = (
{
background = {
anchors = (
{
name = bottom;
pos = (610,-14);
},
{
name = top;
pos = (580,700);
}
);
shapes = (
{
closed = 1;
nodes = (
(762,-13,o),
(933,44,o),
(1057,137,c),
(1057,336,l),
(575,336,l),
(575,305,l),
(1024,305,l),
(1024,153,l),
(904,70,o),
(748,18,o),
(575,18,cs),
(336,18,o),
(139,141,o),
(139,342,cs),
(139,546,o),
(342,669,o),
(586,669,cs),
(768,669,o),
(923,608,o),
(1042,436,c),
(1057,437,l),
(1057,686,l),
(1026,686,l),
(1026,476,l),
(1042,476,l),
(950,608,o),
(799,700,o),
(586,700,cs),
(331,700,o),
(106,569,o),
(106,342,cs),
(106,118,o),
(322,-13,o),
(575,-13,cs)
);
},
{
closed = 1;
nodes = (
(675,-150,o),
(649,-126,o),
(610,-126,cs),
(574,-126,o),
(551,-145,o),
(551,-167,cs),
(551,-190,o),
(573,-204,o),
(603,-204,cs),
(620,-204,o),
(634,-201,o),
(649,-199,c),
(640,-257,o),
(597,-304,o),
(531,-364,c),
(546,-379,l),
(627,-317,o),
(675,-245,o),
(675,-188,cs)
);
}
);
};
layerId = "B29C398E-974A-40D0-A0A0-00935056D4B4";
shapes = (
{
ref = G;
},
{
pos = (443,-14);
ref = commaaccentcomb;
}
);
width = 1212;
},
{
background = {
anchors = (
{
name = bottom;
pos = (395,-14);
},
{
name = top;
pos = (395,700);
}
);
shapes = (
{
closed = 1;
nodes = (
(528,-14,o),
(628,36,o),
(688,95,c),
(688,322,l),
(391,322,l),
(391,291,l),
(655,291,l),
(655,106,l),
(605,58,o),
(517,17,o),
(404,17,cs),
(234,17,o),
(99,146,o),
(99,343,cs),
(99,540,o),
(237,669,o),
(397,669,cs),
(539,669,o),
(619,595,o),
(672,488,c),
(688,490,l),
(688,686,l),
(659,686,l),
(659,546,l),
(669,546,l),
(637,614,o),
(548,700,o),
(397,700,cs),
(226,700,o),
(66,563,o),
(66,343,cs),
(66,123,o),
(221,-14,o),
(404,-14,cs)
);
},
{
closed = 1;
nodes = (
(460,-153,o),
(435,-126,o),
(395,-126,cs),
(367,-126,o),
(343,-146,o),
(343,-171,cs),
(343,-197,o),
(367,-212,o),
(391,-212,cs),
(409,-212,o),
(417,-210,o),
(433,-205,c),
(427,-264,o),
(391,-311,o),
(343,-362,c),
(357,-377,l),
(421,-323,o),
(460,-252,o),
(460,-194,cs)
);
}
);
};
layerId = "543F9737-16F7-428D-9F96-2EBD9FC8D3B6";
shapes = (
{
ref = G;
},
{
pos = (270,-14);
ref = commaaccentcomb;
}
);
width = 788;
},
{
background = {
anchors = (
{
name = bottom;
pos = (410,-14);
},
{
name = top;
pos = (410,700);
}
);
shapes = (
{
closed = 1;
nodes = (
(553,-14,o),
(669,33,o),
(737,93,c),
(737,372,l),
(409,372,l),
(409,253,l),
(592,253,l),
(592,163,l),
(550,136,o),
(500,117,o),
(419,117,cs),
(290,117,o),
(202,209,o),
(202,343,cs),
(202,491,o),
(297,573,o),
(417,573,cs),
(521,573,o),
(595,509,o),
(631,451,c),
(737,458,l),
(737,686,l),
(595,686,l),
(595,560,l),
(666,537,l),
(612,635,o),
(510,700,o),
(375,700,cs),
(184,700,o),
(33,542,o),
(33,343,cs),
(33,143,o),
(176,-14,o),
(419,-14,cs)
);
},
{
closed = 1;
nodes = (
(499,-140,o),
(459,-105,o),
(409,-105,cs),
(363,-105,o),
(325,-133,o),
(325,-171,cs),
(325,-206,o),
(354,-231,o),
(394,-231,cs),
(407,-231,o),
(420,-231,o),
(430,-224,c),
(431,-243,o),
(411,-289,o),
(363,-330,c),
(396,-364,l),
(452,-320,o),
(499,-259,o),
(499,-204,cs)
);
}
);
};
layerId = "EB38A4D2-CD30-49BA-8E45-1F04A566FFE8";
shapes = (
{
ref = G;
},
{
pos = (265,-14);
ref = commaaccentcomb;
}
);
width = 812;
},
{
background = {
anchors = (
{
name = bottom;
pos = (576,-14);
},
{
name = top;
pos = (601,700);
}
);
shapes = (
{
closed = 1;
nodes = (
(795,-13,o),
(971,53,o),
(1088,132,c),
(1088,379,l),
(594,379,l),
(594,244,l),
(911,244,l),
(911,207,l),
(848,168,o),
(724,130,o),
(594,130,cs),
(382,130,o),
(234,200,o),
(234,342,cs),
(234,481,o),
(386,557,o),
(583,557,cs),
(736,557,o),
(868,503,o),
(967,438,c),
(1088,462,l),
(1088,686,l),
(925,686,l),
(925,540,l),
(1009,514,l),
(890,645,o),
(727,700,o),
(532,700,cs),
(255,700,o),
(39,560,o),
(39,342,cs),
(39,119,o),
(270,-13,o),
(586,-13,cs)
);
},
{
closed = 1;
nodes = (
(685,-160,o),
(647,-125,o),
(586,-125,cs),
(529,-125,o),
(492,-153,o),
(492,-191,cs),
(492,-225,o),
(520,-250,o),
(568,-250,cs),
(584,-250,o),
(602,-247,o),
(608,-244,c),
(607,-256,o),
(583,-302,o),
(517,-350,c),
(553,-387,l),
(626,-336,o),
(685,-278,o),
(685,-213,cs)
);
}
);
};
layerId = "816E4B99-7363-45E2-A2DF-0C5A75075B59";
shapes = (
{
ref = G;
},
{
pos = (397,-14);
ref = commaaccentcomb;
}
);
width = 1172;
}
);
unicode = 290;
},
{
glyphname = Gdotaccent;
kernLeft = O;
kernRight = G;
lastChange = "2023-05-31 13:55:09 +0000";
layers = (
{
background = {
anchors = (
{
name = bottom;
pos = (610,-14);
},
{
name = top;
pos = (580,700);
}
);
shapes = (
{
closed = 1;
nodes = (
(762,-13,o),
(933,44,o),
(1057,137,c),
(1057,336,l),
(575,336,l),
(575,305,l),
(1024,305,l),
(1024,153,l),
(904,70,o),
(748,18,o),
(575,18,cs),
(336,18,o),
(139,141,o),
(139,342,cs),
(139,546,o),
(342,669,o),
(586,669,cs),
(768,669,o),
(923,608,o),
(1042,436,c),
(1057,437,l),
(1057,686,l),
(1026,686,l),
(1026,476,l),
(1042,476,l),
(950,608,o),
(799,700,o),
(586,700,cs),
(331,700,o),
(106,569,o),
(106,342,cs),
(106,118,o),
(322,-13,o),
(575,-13,cs)
);
},
{
closed = 1;
nodes = (
(622,850,o),
(643,867,o),
(643,890,c),
(643,913,o),
(622,930,o),
(580,930,c),
(541,930,o),
(519,913,o),
(519,890,c),
(519,867,o),
(541,850,o),
(580,850,c)
);
}
);
};
layerId = "B29C398E-974A-40D0-A0A0-00935056D4B4";
shapes = (
{
ref = G;
},
{
pos = (413,-110);
ref = dotaccentcomb;
}
);
width = 1212;
},
{
background = {
anchors = (
{
name = bottom;
pos = (395,-14);
},
{
name = top;
pos = (395,700);
}
);
shapes = (
{
closed = 1;
nodes = (
(528,-14,o),
(628,36,o),
(688,95,c),
(688,322,l),
(391,322,l),
(391,291,l),
(655,291,l),
(655,106,l),
(605,58,o),
(517,17,o),
(404,17,cs),
(234,17,o),
(99,146,o),
(99,343,cs),
(99,540,o),
(237,669,o),
(397,669,cs),
(539,669,o),
(619,595,o),
(672,488,c),
(688,490,l),
(688,686,l),
(659,686,l),
(659,546,l),
(669,546,l),
(637,614,o),
(548,700,o),
(397,700,cs),
(226,700,o),
(66,563,o),
(66,343,cs),
(66,123,o),
(221,-14,o),
(404,-14,cs)
);
},
{
closed = 1;
nodes = (
(427,839,o),
(448,855,o),
(448,878,c),
(448,901,o),
(427,919,o),
(395,919,c),
(365,919,o),
(343,901,o),
(343,878,c),
(343,855,o),
(365,839,o),
(395,839,c)
);
}
);
};
layerId = "543F9737-16F7-428D-9F96-2EBD9FC8D3B6";
shapes = (
{
ref = G;
},
{
pos = (264,-124);
ref = dotaccentcomb;
}
);
width = 788;
},
{
background = {
anchors = (
{
name = bottom;
pos = (410,-14);
},
{
name = top;
pos = (410,700);
}
);
shapes = (
{
closed = 1;
nodes = (
(553,-14,o),
(669,33,o),
(737,93,c),
(737,372,l),
(409,372,l),
(409,253,l),
(592,253,l),
(592,163,l),
(550,136,o),
(500,117,o),
(419,117,cs),
(290,117,o),
(202,209,o),
(202,343,cs),
(202,491,o),
(297,573,o),
(417,573,cs),
(521,573,o),
(595,509,o),
(631,451,c),
(737,458,l),
(737,686,l),
(595,686,l),
(595,560,l),
(666,537,l),
(612,635,o),
(510,700,o),
(375,700,cs),
(184,700,o),
(33,542,o),
(33,343,cs),
(33,143,o),
(176,-14,o),
(419,-14,cs)
);
},
{
closed = 1;
nodes = (
(469,773,o),
(510,806,o),
(510,850,c),
(510,897,o),
(469,930,o),
(411,930,c),
(357,930,o),
(314,897,o),
(314,850,c),
(314,806,o),
(357,773,o),
(411,773,c)
);
}
);
};
layerId = "EB38A4D2-CD30-49BA-8E45-1F04A566FFE8";
shapes = (
{
ref = G;
},
{
pos = (250,14);
ref = dotaccentcomb;
}
);
width = 812;
},
{
background = {
anchors = (
{
name = bottom;
pos = (576,-14);
},
{
name = top;
pos = (601,700);
}
);
shapes = (
{
closed = 1;
nodes = (
(795,-13,o),
(971,53,o),
(1088,132,c),
(1088,379,l),
(594,379,l),
(594,244,l),
(911,244,l),
(911,207,l),
(848,168,o),
(724,130,o),
(594,130,cs),
(382,130,o),
(234,200,o),
(234,342,cs),
(234,481,o),
(386,557,o),
(583,557,cs),
(736,557,o),
(868,503,o),
(967,438,c),
(1088,462,l),
(1088,686,l),
(925,686,l),
(925,540,l),
(1009,514,l),
(890,645,o),
(727,700,o),
(532,700,cs),
(255,700,o),
(39,560,o),
(39,342,cs),
(39,119,o),
(270,-13,o),
(586,-13,cs)
);
},
{
closed = 1;
nodes = (
(673,789,o),
(718,825,o),
(718,873,c),
(718,923,o),
(673,959,o),
(602,959,c),
(532,959,o),
(485,923,o),
(485,873,c),
(485,825,o),
(532,789,o),
(602,789,c)
);
}
);
};
layerId = "816E4B99-7363-45E2-A2DF-0C5A75075B59";
shapes = (
{
ref = G;
},
{
pos = (410,44);
ref = dotaccentcomb;
}
);
width = 1172;
}
);
unicode = 288;
},
{
glyphname = H;
kernLeft = H;
kernRight = H;
lastChange = "2023-05-31 13:55:09 +0000";
layers = (
{
anchors = (
{
name = bottom;
pos = (746,0);
},
{
name = center;
pos = (746,350);
},
{
name = top;
pos = (746,686);
}
);
background = {
anchors = (
{
name = bottom;
pos = (746,0);
},
{
name = center;
pos = (746,350);
},
{
name = top;
pos = (746,686);
}
);
shapes = (
{
closed = 1;
nodes = (
(1154,333,l),
(1154,364,l),
(340,364,l),
(340,333,l)
);
},
{
closed = 1;
nodes = (
(586,0,l),
(586,31,l),
(74,31,l),
(74,0,l)
);
},
{
closed = 1;
nodes = (
(347,14,l),
(347,669,l),
(314,669,l),
(314,14,l)
);
},
{
closed = 1;
nodes = (
(586,655,l),
(586,686,l),
(74,686,l),
(74,655,l)
);
},
{
closed = 1;
nodes = (
(1419,0,l),
(1419,31,l),
(905,31,l),
(905,0,l)
);
},
{
closed = 1;
nodes = (
(1179,18,l),
(1179,672,l),
(1146,672,l),
(1146,18,l)
);
},
{
closed = 1;
nodes = (
(1419,655,l),
(1419,686,l),
(905,686,l),
(905,655,l)
);
}
);
};
layerId = "B29C398E-974A-40D0-A0A0-00935056D4B4";
shapes = (
{
closed = 1;
nodes = (
(1154,333,l),
(1154,364,l),
(340,364,l),
(340,333,l)
);
},
{
closed = 1;
nodes = (
(586,0,l),
(586,31,l),
(74,31,l),
(74,0,l)
);
},
{
closed = 1;
nodes = (
(347,14,l),
(347,669,l),
(314,669,l),
(314,14,l)
);
},
{
closed = 1;
nodes = (
(586,655,l),
(586,686,l),
(74,686,l),
(74,655,l)
);
},
{
closed = 1;
nodes = (
(1419,0,l),
(1419,31,l),
(905,31,l),
(905,0,l)
);
},
{
closed = 1;
nodes = (
(1179,18,l),
(1179,672,l),
(1146,672,l),
(1146,18,l)
);
},
{
closed = 1;
nodes = (
(1419,655,l),
(1419,686,l),
(905,686,l),
(905,655,l)
);
}
);
width = 1493;
},
{
anchors = (
{
name = bottom;
pos = (475,0);
},
{
name = center;
pos = (475,323);
},
{
name = top;
pos = (475,686);
}
);
background = {
anchors = (
{
name = bottom;
pos = (475,0);
},
{
name = center;
pos = (475,323);
},
{
name = top;
pos = (475,686);
}
);
shapes = (
{
closed = 1;
nodes = (
(736,332,l),
(736,363,l),
(217,363,l),
(217,332,l)
);
},
{
closed = 1;
nodes = (
(370,0,l),
(370,31,l),
(40,31,l),
(40,0,l)
);
},
{
closed = 1;
nodes = (
(223,18,l),
(223,672,l),
(190,672,l),
(190,18,l)
);
},
{
closed = 1;
nodes = (
(370,655,l),
(370,686,l),
(40,686,l),
(40,655,l)
);
},
{
closed = 1;
nodes = (
(911,0,l),
(911,31,l),
(580,31,l),
(580,0,l)
);
},
{
closed = 1;
nodes = (
(761,18,l),
(761,672,l),
(728,672,l),
(728,18,l)
);
},
{
closed = 1;
nodes = (
(911,655,l),
(911,686,l),
(580,686,l),
(580,655,l)
);
}
);
};
layerId = "543F9737-16F7-428D-9F96-2EBD9FC8D3B6";
shapes = (
{
closed = 1;
nodes = (
(736,332,l),
(736,363,l),
(217,363,l),
(217,332,l)
);
},
{
closed = 1;
nodes = (
(370,0,l),
(370,31,l),
(40,31,l),
(40,0,l)
);
},
{
closed = 1;
nodes = (
(223,18,l),
(223,672,l),
(190,672,l),
(190,18,l)
);
},
{
closed = 1;
nodes = (
(370,655,l),
(370,686,l),
(40,686,l),
(40,655,l)
);
},
{
closed = 1;
nodes = (
(911,0,l),
(911,31,l),
(580,31,l),
(580,0,l)
);
},
{
closed = 1;
nodes = (
(761,18,l),
(761,672,l),
(728,672,l),
(728,18,l)
);
},
{
closed = 1;
nodes = (
(911,655,l),
(911,686,l),
(580,686,l),
(580,655,l)
);
}
);
width = 951;
},
{
anchors = (
{
name = bottom;
pos = (460,0);
},
{
name = center;
pos = (460,339);
},
{
name = top;
pos = (460,686);
}
);
background = {
anchors = (
{
name = bottom;
pos = (460,0);
},
{
name = center;
pos = (460,339);
},
{
name = top;
pos = (460,686);
}
);
shapes = (
{
closed = 1;
nodes = (
(727,290,l),
(727,409,l),
(196,409,l),
(196,290,l)
);
},
{
closed = 1;
nodes = (
(418,0,l),
(418,127,l),
(33,127,l),
(33,0,l)
);
},
{
closed = 1;
nodes = (
(308,70,l),
(308,613,l),
(145,613,l),
(145,70,l)
);
},
{
closed = 1;
nodes = (
(418,559,l),
(418,686,l),
(33,686,l),
(33,559,l)
);
},
{
closed = 1;
nodes = (
(889,0,l),
(889,127,l),
(504,127,l),
(504,0,l)
);
},
{
closed = 1;
nodes = (
(778,74,l),
(778,616,l),
(615,616,l),
(615,74,l)
);
},
{
closed = 1;
nodes = (
(889,559,l),
(889,686,l),
(504,686,l),
(504,559,l)
);
}
);
};
layerId = "EB38A4D2-CD30-49BA-8E45-1F04A566FFE8";
shapes = (
{
closed = 1;
nodes = (
(727,290,l),
(727,409,l),
(196,409,l),
(196,290,l)
);
},
{
closed = 1;
nodes = (
(418,0,l),
(418,127,l),
(33,127,l),
(33,0,l)
);
},
{
closed = 1;
nodes = (
(308,70,l),
(308,613,l),
(145,613,l),
(145,70,l)
);
},
{
closed = 1;
nodes = (
(418,559,l),
(418,686,l),
(33,686,l),
(33,559,l)
);
},
{
closed = 1;
nodes = (
(889,0,l),
(889,127,l),
(504,127,l),
(504,0,l)
);
},
{
closed = 1;
nodes = (
(778,74,l),
(778,616,l),
(615,616,l),
(615,74,l)
);
},
{
closed = 1;
nodes = (
(889,559,l),
(889,686,l),
(504,686,l),
(504,559,l)
);
}
);
width = 922;
},
{
anchors = (
{
name = bottom;
pos = (739,0);
},
{
name = center;
pos = (739,368);
},
{
name = top;
pos = (739,686);
}
);
background = {
anchors = (
{
name = bottom;
pos = (739,0);
},
{
name = center;
pos = (739,368);
},
{
name = top;
pos = (739,686);
}
);
shapes = (
{
closed = 1;
nodes = (
(1171,283,l),
(1171,418,l),
(313,418,l),
(313,283,l)
);
},
{
closed = 1;
nodes = (
(639,0,l),
(639,144,l),
(60,144,l),
(60,0,l)
);
},
{
closed = 1;
nodes = (
(443,77,l),
(443,598,l),
(258,598,l),
(258,77,l)
);
},
{
closed = 1;
nodes = (
(639,542,l),
(639,686,l),
(60,686,l),
(60,542,l)
);
},
{
closed = 1;
nodes = (
(1421,0,l),
(1421,144,l),
(844,144,l),
(844,0,l)
);
},
{
closed = 1;
nodes = (
(1223,84,l),
(1223,606,l),
(1038,606,l),
(1038,84,l)
);
},
{
closed = 1;
nodes = (
(1421,542,l),
(1421,686,l),
(844,686,l),
(844,542,l)
);
}
);
};
layerId = "816E4B99-7363-45E2-A2DF-0C5A75075B59";
shapes = (
{
closed = 1;
nodes = (
(1171,283,l),
(1171,418,l),
(313,418,l),
(313,283,l)
);
},
{
closed = 1;
nodes = (
(639,0,l),
(639,144,l),
(60,144,l),
(60,0,l)
);
},
{
closed = 1;
nodes = (
(443,77,l),
(443,598,l),
(258,598,l),
(258,77,l)
);
},
{
closed = 1;
nodes = (
(639,542,l),
(639,686,l),
(60,686,l),
(60,542,l)
);
},
{
closed = 1;
nodes = (
(1421,0,l),
(1421,144,l),
(844,144,l),
(844,0,l)
);
},
{
closed = 1;
nodes = (
(1223,84,l),
(1223,606,l),
(1038,606,l),
(1038,84,l)
);
},
{
closed = 1;
nodes = (
(1421,542,l),
(1421,686,l),
(844,686,l),
(844,542,l)
);
}
);
width = 1480;
}
);
unicode = 72;
},
{
glyphname = Hbar;
kernLeft = H;
kernRight = H;
lastChange = "2023-05-31 13:55:09 +0000";
layers = (
{
anchors = (
{
name = bottom;
pos = (746,0);
},
{
name = center;
pos = (746,350);
},
{
name = top;
pos = (746,686);
}
);
background = {
anchors = (
{
name = bottom;
pos = (746,0);
},
{
name = center;
pos = (746,350);
},
{
name = top;
pos = (746,686);
}
);
shapes = (
{
closed = 1;
nodes = (
(1421,488,l),
(1421,517,l),
(74,517,l),
(74,488,l)
);
},
{
closed = 1;
nodes = (
(1154,333,l),
(1154,364,l),
(340,364,l),
(340,333,l)
);
},
{
closed = 1;
nodes = (
(586,0,l),
(586,31,l),
(74,31,l),
(74,0,l)
);
},
{
closed = 1;
nodes = (
(347,14,l),
(347,669,l),
(314,669,l),
(314,14,l)
);
},
{
closed = 1;
nodes = (
(586,655,l),
(586,686,l),
(74,686,l),
(74,655,l)
);
},
{
closed = 1;
nodes = (
(1419,0,l),
(1419,31,l),
(905,31,l),
(905,0,l)
);
},
{
closed = 1;
nodes = (
(1179,18,l),
(1179,672,l),
(1146,672,l),
(1146,18,l)
);
},
{
closed = 1;
nodes = (
(1419,655,l),
(1419,686,l),
(905,686,l),
(905,655,l)
);
}
);
};
layerId = "B29C398E-974A-40D0-A0A0-00935056D4B4";
shapes = (
{
closed = 1;
nodes = (
(1421,488,l),
(1421,517,l),
(74,517,l),
(74,488,l)
);
},
{
closed = 1;
nodes = (
(1154,333,l),
(1154,364,l),
(340,364,l),
(340,333,l)
);
},
{
closed = 1;
nodes = (
(586,0,l),
(586,31,l),
(74,31,l),
(74,0,l)
);
},
{
closed = 1;
nodes = (
(347,14,l),
(347,669,l),
(314,669,l),
(314,14,l)
);
},
{
closed = 1;
nodes = (
(586,655,l),
(586,686,l),
(74,686,l),
(74,655,l)
);
},
{
closed = 1;
nodes = (
(1419,0,l),
(1419,31,l),
(905,31,l),
(905,0,l)
);
},
{
closed = 1;
nodes = (
(1179,18,l),
(1179,672,l),
(1146,672,l),
(1146,18,l)
);
},
{
closed = 1;
nodes = (
(1419,655,l),
(1419,686,l),
(905,686,l),
(905,655,l)
);
}
);
width = 1495;
},
{
anchors = (
{
name = bottom;
pos = (475,0);
},
{
name = center;
pos = (475,323);
},
{
name = top;
pos = (475,686);
}
);
background = {
anchors = (
{
name = bottom;
pos = (475,0);
},
{
name = center;
pos = (475,323);
},
{
name = top;
pos = (475,686);
}
);
shapes = (
{
closed = 1;
nodes = (
(223,18,l),
(223,672,l),
(190,672,l),
(190,18,l)
);
},
{
closed = 1;
nodes = (
(370,0,l),
(370,31,l),
(40,31,l),
(40,0,l)
);
},
{
closed = 1;
nodes = (
(911,0,l),
(911,31,l),
(580,31,l),
(580,0,l)
);
},
{
closed = 1;
nodes = (
(736,314,l),
(736,345,l),
(217,345,l),
(217,314,l)
);
},
{
closed = 1;
nodes = (
(370,655,l),
(370,686,l),
(40,686,l),
(40,655,l)
);
},
{
closed = 1;
nodes = (
(878,482,l),
(878,510,l),
(73,510,l),
(73,482,l)
);
},
{
closed = 1;
nodes = (
(761,18,l),
(761,672,l),
(728,672,l),
(728,18,l)
);
},
{
closed = 1;
nodes = (
(911,655,l),
(911,686,l),
(580,686,l),
(580,655,l)
);
}
);
};
layerId = "543F9737-16F7-428D-9F96-2EBD9FC8D3B6";
shapes = (
{
closed = 1;
nodes = (
(223,18,l),
(223,672,l),
(190,672,l),
(190,18,l)
);
},
{
closed = 1;
nodes = (
(370,0,l),
(370,31,l),
(40,31,l),
(40,0,l)
);
},
{
closed = 1;
nodes = (
(911,0,l),
(911,31,l),
(580,31,l),
(580,0,l)
);
},
{
closed = 1;
nodes = (
(736,314,l),
(736,345,l),
(217,345,l),
(217,314,l)
);
},
{
closed = 1;
nodes = (
(370,655,l),
(370,686,l),
(40,686,l),
(40,655,l)
);
},
{
closed = 1;
nodes = (
(878,482,l),
(878,510,l),
(73,510,l),
(73,482,l)
);
},
{
closed = 1;
nodes = (
(761,18,l),
(761,672,l),
(728,672,l),
(728,18,l)
);
},
{
closed = 1;
nodes = (
(911,655,l),
(911,686,l),
(580,686,l),
(580,655,l)
);
}
);
width = 951;
},
{
anchors = (
{
name = bottom;
pos = (460,0);
},
{
name = center;
pos = (460,339);
},
{
name = top;
pos = (460,686);
}
);
background = {
anchors = (
{
name = bottom;
pos = (460,0);
},
{
name = center;
pos = (460,339);
},
{
name = top;
pos = (460,686);
}
);
shapes = (
{
closed = 1;
nodes = (
(308,70,l),
(308,613,l),
(145,613,l),
(145,70,l)
);
},
{
closed = 1;
nodes = (
(418,0,l),
(418,127,l),
(33,127,l),
(33,0,l)
);
},
{
closed = 1;
nodes = (
(889,0,l),
(889,127,l),
(504,127,l),
(504,0,l)
);
},
{
closed = 1;
nodes = (
(739,250,l),
(739,364,l),
(181,364,l),
(181,250,l)
);
},
{
closed = 1;
nodes = (
(418,559,l),
(418,686,l),
(33,686,l),
(33,559,l)
);
},
{
closed = 1;
nodes = (
(870,414,l),
(870,510,l),
(52,510,l),
(52,414,l)
);
},
{
closed = 1;
nodes = (
(778,74,l),
(778,616,l),
(615,616,l),
(615,74,l)
);
},
{
closed = 1;
nodes = (
(889,559,l),
(889,686,l),
(504,686,l),
(504,559,l)
);
}
);
};
layerId = "EB38A4D2-CD30-49BA-8E45-1F04A566FFE8";
shapes = (
{
closed = 1;
nodes = (
(308,70,l),
(308,613,l),
(145,613,l),
(145,70,l)
);
},
{
closed = 1;
nodes = (
(418,0,l),
(418,127,l),
(33,127,l),
(33,0,l)
);
},
{
closed = 1;
nodes = (
(889,0,l),
(889,127,l),
(504,127,l),
(504,0,l)
);
},
{
closed = 1;
nodes = (
(739,250,l),
(739,364,l),
(181,364,l),
(181,250,l)
);
},
{
closed = 1;
nodes = (
(418,559,l),
(418,686,l),
(33,686,l),
(33,559,l)
);
},
{
closed = 1;
nodes = (
(870,414,l),
(870,510,l),
(52,510,l),
(52,414,l)
);
},
{
closed = 1;
nodes = (
(778,74,l),
(778,616,l),
(615,616,l),
(615,74,l)
);
},
{
closed = 1;
nodes = (
(889,559,l),
(889,686,l),
(504,686,l),
(504,559,l)
);
}
);
width = 922;
},
{
anchors = (
{
name = bottom;
pos = (739,0);
},
{
name = center;
pos = (739,368);
},
{
name = top;
pos = (739,686);
}
);
background = {
anchors = (
{
name = bottom;
pos = (739,0);
},
{
name = center;
pos = (739,368);
},
{
name = top;
pos = (739,686);
}
);
shapes = (
{
closed = 1;
nodes = (
(1420,433,l),
(1420,492,l),
(60,492,l),
(60,433,l)
);
},
{
closed = 1;
nodes = (
(1171,260,l),
(1171,379,l),
(313,379,l),
(313,260,l)
);
},
{
closed = 1;
nodes = (
(639,0,l),
(639,144,l),
(60,144,l),
(60,0,l)
);
},
{
closed = 1;
nodes = (
(443,77,l),
(443,598,l),
(258,598,l),
(258,77,l)
);
},
{
closed = 1;
nodes = (
(639,542,l),
(639,686,l),
(60,686,l),
(60,542,l)
);
},
{
closed = 1;
nodes = (
(1421,0,l),
(1421,144,l),
(844,144,l),
(844,0,l)
);
},
{
closed = 1;
nodes = (
(1223,84,l),
(1223,606,l),
(1038,606,l),
(1038,84,l)
);
},
{
closed = 1;
nodes = (
(1421,542,l),
(1421,686,l),
(844,686,l),
(844,542,l)
);
}
);
};
layerId = "816E4B99-7363-45E2-A2DF-0C5A75075B59";
shapes = (
{
closed = 1;
nodes = (
(1420,433,l),
(1420,492,l),
(60,492,l),
(60,433,l)
);
},
{
closed = 1;
nodes = (
(1171,260,l),
(1171,379,l),
(313,379,l),
(313,260,l)
);
},
{
closed = 1;
nodes = (
(639,0,l),
(639,144,l),
(60,144,l),
(60,0,l)
);
},
{
closed = 1;
nodes = (
(443,77,l),
(443,598,l),
(258,598,l),
(258,77,l)
);
},
{
closed = 1;
nodes = (
(639,542,l),
(639,686,l),
(60,686,l),
(60,542,l)
);
},
{
closed = 1;
nodes = (
(1421,0,l),
(1421,144,l),
(844,144,l),
(844,0,l)
);
},
{
closed = 1;
nodes = (
(1223,84,l),
(1223,606,l),
(1038,606,l),
(1038,84,l)
);
},
{
closed = 1;
nodes = (
(1421,542,l),
(1421,686,l),
(844,686,l),
(844,542,l)
);
}
);
width = 1480;
}
);
metricLeft = "=H";
metricRight = "=H";
unicode = 294;
},
{
glyphname = I;
kernLeft = H;
kernRight = H;
lastChange = "2023-05-31 13:55:09 +0000";
layers = (
{
anchors = (
{
name = bottom;
pos = (331,0);
},
{
name = ogonek;
pos = (347,0);
},
{
name = top;
pos = (331,686);
}
);
background = {
anchors = (
{
name = bottom;
pos = (331,0);
},
{
name = ogonek;
pos = (347,0);
},
{
name = top;
pos = (331,686);
}
);
shapes = (
{
closed = 1;
nodes = (
(348,18,ls),
(348,669,ls),
(315,669,ls),
(315,18,ls)
);
},
{
closed = 1;
nodes = (
(587,0,ls),
(587,31,ls),
(74,31,ls),
(74,0,ls)
);
},
{
closed = 1;
nodes = (
(587,655,ls),
(587,686,ls),
(74,686,ls),
(74,655,ls)
);
}
);
};
layerId = "B29C398E-974A-40D0-A0A0-00935056D4B4";
shapes = (
{
closed = 1;
nodes = (
(348,18,ls),
(348,669,ls),
(315,669,ls),
(315,18,ls)
);
},
{
closed = 1;
nodes = (
(587,0,ls),
(587,31,ls),
(74,31,ls),
(74,0,ls)
);
},
{
closed = 1;
nodes = (
(587,655,ls),
(587,686,ls),
(74,686,ls),
(74,655,ls)
);
}
);
width = 661;
},
{
anchors = (
{
name = bottom;
pos = (205,0);
},
{
name = ogonek;
pos = (209,0);
},
{
name = top;
pos = (206,686);
}
);
background = {
anchors = (
{
name = bottom;
pos = (205,0);
},
{
name = ogonek;
pos = (209,0);
},
{
name = top;
pos = (206,686);
}
);
shapes = (
{
closed = 1;
nodes = (
(222,18,l),
(222,672,l),
(189,672,l),
(189,18,l)
);
},
{
closed = 1;
nodes = (
(371,0,l),
(371,31,l),
(40,31,l),
(40,0,l)
);
},
{
closed = 1;
nodes = (
(371,655,l),
(371,686,l),
(40,686,l),
(40,655,l)
);
}
);
};
layerId = "543F9737-16F7-428D-9F96-2EBD9FC8D3B6";
shapes = (
{
closed = 1;
nodes = (
(222,18,l),
(222,672,l),
(189,672,l),
(189,18,l)
);
},
{
closed = 1;
nodes = (
(371,0,l),
(371,31,l),
(40,31,l),
(40,0,l)
);
},
{
closed = 1;
nodes = (
(371,655,l),
(371,686,l),
(40,686,l),
(40,655,l)
);
}
);
width = 411;
},
{
anchors = (
{
name = bottom;
pos = (229,0);
},
{
name = ogonek;
pos = (278,0);
},
{
name = top;
pos = (229,686);
}
);
background = {
anchors = (
{
name = bottom;
pos = (229,0);
},
{
name = ogonek;
pos = (278,0);
},
{
name = top;
pos = (229,686);
}
);
shapes = (
{
closed = 1;
nodes = (
(307,75,l),
(307,613,l),
(145,613,l),
(145,75,l)
);
},
{
closed = 1;
nodes = (
(420,0,l),
(420,127,l),
(33,127,l),
(33,0,l)
);
},
{
closed = 1;
nodes = (
(420,559,l),
(420,686,l),
(33,686,l),
(33,559,l)
);
}
);
};
layerId = "EB38A4D2-CD30-49BA-8E45-1F04A566FFE8";
shapes = (
{
closed = 1;
nodes = (
(307,75,l),
(307,613,l),
(145,613,l),
(145,75,l)
);
},
{
closed = 1;
nodes = (
(420,0,l),
(420,127,l),
(33,127,l),
(33,0,l)
);
},
{
closed = 1;
nodes = (
(420,559,l),
(420,686,l),
(33,686,l),
(33,559,l)
);
}
);
width = 453;
},
{
anchors = (
{
name = bottom;
pos = (350,0);
},
{
name = ogonek;
pos = (385,0);
},
{
name = top;
pos = (352,686);
}
);
background = {
anchors = (
{
name = bottom;
pos = (350,0);
},
{
name = ogonek;
pos = (385,0);
},
{
name = top;
pos = (352,686);
}
);
shapes = (
{
closed = 1;
nodes = (
(442,85,ls),
(442,598,ls),
(257,598,ls),
(257,85,ls)
);
},
{
closed = 1;
nodes = (
(639,0,ls),
(639,144,ls),
(60,144,ls),
(60,0,ls)
);
},
{
closed = 1;
nodes = (
(639,542,ls),
(639,686,ls),
(60,686,ls),
(60,542,ls)
);
}
);
};
layerId = "816E4B99-7363-45E2-A2DF-0C5A75075B59";
shapes = (
{
closed = 1;
nodes = (
(442,85,ls),
(442,598,ls),
(257,598,ls),
(257,85,ls)
);
},
{
closed = 1;
nodes = (
(639,0,ls),
(639,144,ls),
(60,144,ls),
(60,0,ls)
);
},
{
closed = 1;
nodes = (
(639,542,ls),
(639,686,ls),
(60,686,ls),
(60,542,ls)
);
}
);
width = 698;
}
);
metricLeft = "=H";
metricRight = "=H";
unicode = 73;
},
{
glyphname = IJ;
lastChange = "2023-05-31 13:55:09 +0000";
layers = (
{
background = {
anchors = (
{
name = bottom;
pos = (983,-14);
},
{
name = ogonek;
pos = (347,0);
},
{
name = top;
pos = (1228,686);
}
);
shapes = (
{
closed = 1;
nodes = (
(348,18,ls),
(348,669,ls),
(315,669,ls),
(315,18,ls)
);
},
{
closed = 1;
nodes = (
(587,0,ls),
(587,31,ls),
(74,31,ls),
(74,0,ls)
);
},
{
closed = 1;
nodes = (
(587,655,ls),
(587,686,ls),
(74,686,ls),
(74,655,ls)
);
},
{
closed = 1;
nodes = (
(1159,-13,o),
(1278,86,o),
(1278,245,cs),
(1278,669,l),
(1245,669,l),
(1245,245,ls),
(1245,90,o),
(1125,18,o),
(985,18,cs),
(852,18,o),
(757,95,o),
(704,167,c),
(682,146,l),
(734,73,o),
(829,-13,o),
(985,-13,cs)
);
},
{
closed = 1;
nodes = (
(1518,655,l),
(1518,686,l),
(928,686,l),
(928,655,l)
);
}
);
};
layerId = "B29C398E-974A-40D0-A0A0-00935056D4B4";
shapes = (
{
ref = I;
},
{
pos = (656,0);
ref = J;
}
);
width = 1518;
},
{
background = {
anchors = (
{
name = bottom;
pos = (642,-14);
},
{
name = ogonek;
pos = (209,0);
},
{
name = top;
pos = (810,686);
}
);
shapes = (
{
closed = 1;
nodes = (
(222,18,l),
(222,672,l),
(189,672,l),
(189,18,l)
);
},
{
closed = 1;
nodes = (
(371,0,l),
(371,31,l),
(40,31,l),
(40,0,l)
);
},
{
closed = 1;
nodes = (
(371,655,l),
(371,686,l),
(40,686,l),
(40,655,l)
);
},
{
closed = 1;
nodes = (
(763,-13,o),
(849,72,o),
(849,223,cs),
(849,669,l),
(816,669,l),
(816,217,ls),
(816,85,o),
(741,18,o),
(641,18,cs),
(552,18,o),
(483,61,o),
(437,97,c),
(418,70,l),
(468,32,o),
(543,-13,o),
(641,-13,cs)
);
},
{
closed = 1;
nodes = (
(998,655,l),
(998,686,l),
(624,686,l),
(624,655,l)
);
}
);
};
layerId = "543F9737-16F7-428D-9F96-2EBD9FC8D3B6";
shapes = (
{
ref = I;
},
{
pos = (411,0);
ref = J;
}
);
width = 1005;
},
{
background = {
anchors = (
{
name = bottom;
pos = (657,-14);
},
{
name = ogonek;
pos = (278,0);
},
{
name = top;
pos = (798,686);
}
);
shapes = (
{
closed = 1;
nodes = (
(307,75,l),
(307,613,l),
(145,613,l),
(145,75,l)
);
},
{
closed = 1;
nodes = (
(420,0,l),
(420,127,l),
(33,127,l),
(33,0,l)
);
},
{
closed = 1;
nodes = (
(420,559,l),
(420,686,l),
(33,686,l),
(33,559,l)
);
},
{
closed = 1;
nodes = (
(791,-13,o),
(902,72,o),
(902,223,cs),
(902,618,l),
(738,618,l),
(740,231,ls),
(740,150,o),
(703,122,o),
(649,118,cs),
(604,115,o),
(554,143,o),
(521,167,c),
(455,57,l),
(495,19,o),
(571,-13,o),
(657,-13,cs)
);
},
{
closed = 1;
nodes = (
(1010,559,l),
(1010,686,l),
(570,686,l),
(570,559,l)
);
}
);
};
layerId = "EB38A4D2-CD30-49BA-8E45-1F04A566FFE8";
shapes = (
{
ref = I;
},
{
pos = (453,0);
ref = J;
}
);
width = 1017;
},
{
background = {
anchors = (
{
name = bottom;
pos = (1036,-14);
},
{
name = ogonek;
pos = (385,0);
},
{
name = top;
pos = (1203,686);
}
);
shapes = (
{
closed = 1;
nodes = (
(442,85,ls),
(442,598,ls),
(257,598,ls),
(257,85,ls)
);
},
{
closed = 1;
nodes = (
(639,0,ls),
(639,144,ls),
(60,144,ls),
(60,0,ls)
);
},
{
closed = 1;
nodes = (
(639,542,ls),
(639,686,ls),
(60,686,ls),
(60,542,ls)
);
},
{
closed = 1;
nodes = (
(1247,-13,o),
(1341,112,o),
(1341,266,cs),
(1341,609,l),
(1155,609,l),
(1155,263,ls),
(1155,183,o),
(1112,136,o),
(1034,136,cs),
(955,136,o),
(886,167,o),
(815,218,c),
(727,90,l),
(822,27,o),
(927,-13,o),
(1036,-13,cs)
);
},
{
closed = 1;
nodes = (
(1511,542,l),
(1511,686,l),
(895,686,l),
(895,542,l)
);
}
);
};
layerId = "816E4B99-7363-45E2-A2DF-0C5A75075B59";
shapes = (
{
ref = I;
},
{
pos = (691,0);
ref = J;
}
);
width = 1521;
}
);
unicode = 306;
},
{
glyphname = Iacute;
kernLeft = H;
kernRight = H;
lastChange = "2023-05-31 13:55:09 +0000";
layers = (
{
background = {
anchors = (
{
name = bottom;
pos = (331,0);
},
{
name = ogonek;
pos = (347,0);
},
{
name = top;
pos = (331,686);
}
);
shapes = (
{
closed = 1;
nodes = (
(348,18,ls),
(348,669,ls),
(315,669,ls),
(315,18,ls)
);
},
{
closed = 1;
nodes = (
(587,0,ls),
(587,31,ls),
(74,31,ls),
(74,0,ls)
);
},
{
closed = 1;
nodes = (
(587,655,ls),
(587,686,ls),
(74,686,ls),
(74,655,ls)
);
},
{
closed = 1;
nodes = (
(551,978,l),
(571,942,l),
(253,771,l),
(241,792,l)
);
}
);
};
layerId = "B29C398E-974A-40D0-A0A0-00935056D4B4";
shapes = (
{
ref = I;
},
{
pos = (175,0);
ref = acutecomb;
}
);
width = 661;
},
{
background = {
anchors = (
{
name = bottom;
pos = (205,0);
},
{
name = ogonek;
pos = (209,0);
},
{
name = top;
pos = (206,686);
}
);
shapes = (
{
closed = 1;
nodes = (
(222,18,l),
(222,672,l),
(189,672,l),
(189,18,l)
);
},
{
closed = 1;
nodes = (
(371,0,l),
(371,31,l),
(40,31,l),
(40,0,l)
);
},
{
closed = 1;
nodes = (
(371,655,l),
(371,686,l),
(40,686,l),
(40,655,l)
);
},
{
closed = 1;
nodes = (
(377,971,l),
(401,943,l),
(180,763,l),
(165,779,l)
);
}
);
};
layerId = "543F9737-16F7-428D-9F96-2EBD9FC8D3B6";
shapes = (
{
ref = I;
},
{
pos = (73,0);
ref = acutecomb;
}
);
width = 411;
},
{
background = {
anchors = (
{
name = bottom;
pos = (229,0);
},
{
name = ogonek;
pos = (278,0);
},
{
name = top;
pos = (229,686);
}
);
shapes = (
{
closed = 1;
nodes = (
(307,75,l),
(307,613,l),
(145,613,l),
(145,75,l)
);
},
{
closed = 1;
nodes = (
(420,0,l),
(420,127,l),
(33,127,l),
(33,0,l)
);
},
{
closed = 1;
nodes = (
(420,559,l),
(420,686,l),
(33,686,l),
(33,559,l)
);
},
{
closed = 1;
nodes = (
(359,967,l),
(436,857,l),
(212,736,l),
(172,793,l)
);
}
);
};
layerId = "EB38A4D2-CD30-49BA-8E45-1F04A566FFE8";
shapes = (
{
ref = I;
},
{
pos = (69,30);
ref = acutecomb;
}
);
width = 453;
},
{
background = {
anchors = (
{
name = bottom;
pos = (350,0);
},
{
name = ogonek;
pos = (385,0);
},
{
name = top;
pos = (352,686);
}
);
shapes = (
{
closed = 1;
nodes = (
(442,85,ls),
(442,598,ls),
(257,598,ls),
(257,85,ls)
);
},
{
closed = 1;
nodes = (
(639,0,ls),
(639,144,ls),
(60,144,ls),
(60,0,ls)
);
},
{
closed = 1;
nodes = (
(639,542,ls),
(639,686,ls),
(60,686,ls),
(60,542,ls)
);
},
{
closed = 1;
nodes = (
(506,1029,l),
(585,904,l),
(259,744,l),
(210,810,l)
);
}
);
};
layerId = "816E4B99-7363-45E2-A2DF-0C5A75075B59";
shapes = (
{
ref = I;
},
{
pos = (-10,31);
ref = acutecomb;
}
);
width = 698;
}
);
unicode = 205;
},
{
glyphname = Icircumflex;
kernLeft = H;
kernRight = H;
lastChange = "2023-05-31 13:55:09 +0000";
layers = (
{
background = {
anchors = (
{
name = bottom;
pos = (331,0);
},
{
name = ogonek;
pos = (347,0);
},
{
name = top;
pos = (331,686);
}
);
shapes = (
{
closed = 1;
nodes = (
(348,18,ls),
(348,669,ls),
(315,669,ls),
(315,18,ls)
);
},
{
closed = 1;
nodes = (
(587,0,ls),
(587,31,ls),
(74,31,ls),
(74,0,ls)
);
},
{
closed = 1;
nodes = (
(587,655,ls),
(587,686,ls),
(74,686,ls),
(74,655,ls)
);
},
{
closed = 1;
nodes = (
(331,923,l),
(551,755,l),
(565,772,l),
(344,959,l),
(318,959,l),
(98,772,l),
(112,755,l)
);
}
);
};
layerId = "B29C398E-974A-40D0-A0A0-00935056D4B4";
shapes = (
{
ref = I;
},
{
pos = (25,0);
ref = circumflexcomb;
}
);
width = 661;
},
{
background = {
anchors = (
{
name = bottom;
pos = (205,0);
},
{
name = ogonek;
pos = (209,0);
},
{
name = top;
pos = (206,686);
}
);
shapes = (
{
closed = 1;
nodes = (
(222,18,l),
(222,672,l),
(189,672,l),
(189,18,l)
);
},
{
closed = 1;
nodes = (
(371,0,l),
(371,31,l),
(40,31,l),
(40,0,l)
);
},
{
closed = 1;
nodes = (
(371,655,l),
(371,686,l),
(40,686,l),
(40,655,l)
);
},
{
closed = 1;
nodes = (
(206,913,l),
(367,757,l),
(381,771,l),
(219,950,l),
(193,950,l),
(32,771,l),
(47,757,l)
);
}
);
};
layerId = "543F9737-16F7-428D-9F96-2EBD9FC8D3B6";
shapes = (
{
ref = I;
},
{
pos = (-14,0);
ref = circumflexcomb;
}
);
width = 411;
},
{
background = {
anchors = (
{
name = bottom;
pos = (229,0);
},
{
name = ogonek;
pos = (278,0);
},
{
name = top;
pos = (229,686);
}
);
shapes = (
{
closed = 1;
nodes = (
(307,75,l),
(307,613,l),
(145,613,l),
(145,75,l)
);
},
{
closed = 1;
nodes = (
(420,0,l),
(420,127,l),
(33,127,l),
(33,0,l)
);
},
{
closed = 1;
nodes = (
(420,559,l),
(420,686,l),
(33,686,l),
(33,559,l)
);
},
{
closed = 1;
nodes = (
(228,847,l),
(366,749,l),
(412,791,l),
(267,964,l),
(193,964,l),
(48,791,l),
(94,749,l)
);
}
);
};
layerId = "EB38A4D2-CD30-49BA-8E45-1F04A566FFE8";
shapes = (
{
ref = I;
},
{
pos = (17,-2);
ref = circumflexcomb;
}
);
width = 453;
},
{
background = {
anchors = (
{
name = bottom;
pos = (350,0);
},
{
name = ogonek;
pos = (385,0);
},
{
name = top;
pos = (352,686);
}
);
shapes = (
{
closed = 1;
nodes = (
(442,85,ls),
(442,598,ls),
(257,598,ls),
(257,85,ls)
);
},
{
closed = 1;
nodes = (
(639,0,ls),
(639,144,ls),
(60,144,ls),
(60,0,ls)
);
},
{
closed = 1;
nodes = (
(639,542,ls),
(639,686,ls),
(60,686,ls),
(60,542,ls)
);
},
{
closed = 1;
nodes = (
(351,833,l),
(552,760,l),
(580,810,l),
(402,942,l),
(304,942,l),
(125,810,l),
(154,760,l)
);
}
);
};
layerId = "816E4B99-7363-45E2-A2DF-0C5A75075B59";
shapes = (
{
ref = I;
},
{
pos = (67,0);
ref = circumflexcomb;
}
);
width = 698;
}
);
unicode = 206;
},
{
glyphname = Idieresis;
kernLeft = H;
kernRight = H;
lastChange = "2023-05-31 13:55:09 +0000";
layers = (
{
background = {
anchors = (
{
name = bottom;
pos = (331,0);
},
{
name = ogonek;
pos = (347,0);
},
{
name = top;
pos = (331,686);
}
);
shapes = (
{
closed = 1;
nodes = (
(348,18,ls),
(348,669,ls),
(315,669,ls),
(315,18,ls)
);
},
{
closed = 1;
nodes = (
(587,0,ls),
(587,31,ls),
(74,31,ls),
(74,0,ls)
);
},
{
closed = 1;
nodes = (
(587,655,ls),
(587,686,ls),
(74,686,ls),
(74,655,ls)
);
},
{
closed = 1;
nodes = (
(511,837,o),
(531,854,o),
(531,876,c),
(531,898,o),
(511,913,o),
(472,913,c),
(436,913,o),
(413,898,o),
(413,876,c),
(413,854,o),
(436,837,o),
(472,837,c)
);
},
{
closed = 1;
nodes = (
(218,837,o),
(239,854,o),
(239,876,c),
(239,898,o),
(218,913,o),
(180,913,c),
(142,913,o),
(121,898,o),
(121,876,c),
(121,854,o),
(142,837,o),
(180,837,c)
);
}
);
};
layerId = "B29C398E-974A-40D0-A0A0-00935056D4B4";
shapes = (
{
ref = I;
},
{
pos = (8,0);
ref = dieresiscomb;
}
);
width = 661;
},
{
background = {
anchors = (
{
name = bottom;
pos = (205,0);
},
{
name = ogonek;
pos = (209,0);
},
{
name = top;
pos = (206,686);
}
);
shapes = (
{
closed = 1;
nodes = (
(222,18,l),
(222,672,l),
(189,672,l),
(189,18,l)
);
},
{
closed = 1;
nodes = (
(371,0,l),
(371,31,l),
(40,31,l),
(40,0,l)
);
},
{
closed = 1;
nodes = (
(371,655,l),
(371,686,l),
(40,686,l),
(40,655,l)
);
},
{
closed = 1;
nodes = (
(338,816,o),
(359,833,o),
(359,856,c),
(359,879,o),
(338,897,o),
(307,897,c),
(278,897,o),
(255,879,o),
(255,856,c),
(255,833,o),
(278,816,o),
(307,816,c)
);
},
{
closed = 1;
nodes = (
(138,816,o),
(159,833,o),
(159,856,c),
(159,879,o),
(138,897,o),
(106,897,c),
(77,897,o),
(55,879,o),
(55,856,c),
(55,833,o),
(77,816,o),
(106,816,c)
);
}
);
};
layerId = "543F9737-16F7-428D-9F96-2EBD9FC8D3B6";
shapes = (
{
ref = I;
},
{
pos = (-84,0);
ref = dieresiscomb;
}
);
width = 411;
},
{
background = {
anchors = (
{
name = bottom;
pos = (229,0);
},
{
name = ogonek;
pos = (278,0);
},
{
name = top;
pos = (229,686);
}
);
shapes = (
{
closed = 1;
nodes = (
(307,75,l),
(307,613,l),
(145,613,l),
(145,75,l)
);
},
{
closed = 1;
nodes = (
(420,0,l),
(420,127,l),
(33,127,l),
(33,0,l)
);
},
{
closed = 1;
nodes = (
(420,559,l),
(420,686,l),
(33,686,l),
(33,559,l)
);
},
{
closed = 1;
nodes = (
(389,775,o),
(426,804,o),
(426,843,c),
(426,884,o),
(389,914,o),
(343,914,c),
(300,914,o),
(262,884,o),
(262,843,c),
(262,804,o),
(300,775,o),
(343,775,c)
);
},
{
closed = 1;
nodes = (
(155,775,o),
(190,804,o),
(190,843,c),
(190,884,o),
(155,914,o),
(109,914,c),
(65,914,o),
(26,884,o),
(26,843,c),
(26,804,o),
(65,775,o),
(109,775,c)
);
}
);
};
layerId = "EB38A4D2-CD30-49BA-8E45-1F04A566FFE8";
shapes = (
{
ref = I;
},
{
pos = (-55,-2);
ref = dieresiscomb;
}
);
width = 453;
},
{
background = {
anchors = (
{
name = bottom;
pos = (350,0);
},
{
name = ogonek;
pos = (385,0);
},
{
name = top;
pos = (352,686);
}
);
shapes = (
{
closed = 1;
nodes = (
(442,85,ls),
(442,598,ls),
(257,598,ls),
(257,85,ls)
);
},
{
closed = 1;
nodes = (
(639,0,ls),
(639,144,ls),
(60,144,ls),
(60,0,ls)
);
},
{
closed = 1;
nodes = (
(639,542,ls),
(639,686,ls),
(60,686,ls),
(60,542,ls)
);
},
{
closed = 1;
nodes = (
(575,784,o),
(612,817,o),
(612,856,c),
(612,899,o),
(575,931,o),
(520,931,c),
(465,931,o),
(424,899,o),
(424,856,c),
(424,817,o),
(465,784,o),
(520,784,c)
);
},
{
closed = 1;
nodes = (
(241,784,o),
(279,817,o),
(279,856,c),
(279,899,o),
(241,931,o),
(185,931,c),
(132,931,o),
(92,899,o),
(92,856,c),
(92,817,o),
(132,784,o),
(185,784,c)
);
}
);
};
layerId = "816E4B99-7363-45E2-A2DF-0C5A75075B59";
shapes = (
{
ref = I;
},
{
pos = (57,0);
ref = dieresiscomb;
}
);
width = 698;
}
);
unicode = 207;
},
{
glyphname = Idotaccent;
kernLeft = H;
kernRight = H;
lastChange = "2023-05-31 13:55:09 +0000";
layers = (
{
background = {
anchors = (
{
name = bottom;
pos = (331,0);
},
{
name = ogonek;
pos = (347,0);
},
{
name = top;
pos = (331,686);
}
);
shapes = (
{
closed = 1;
nodes = (
(348,18,ls),
(348,669,ls),
(315,669,ls),
(315,18,ls)
);
},
{
closed = 1;
nodes = (
(587,0,ls),
(587,31,ls),
(74,31,ls),
(74,0,ls)
);
},
{
closed = 1;
nodes = (
(587,655,ls),
(587,686,ls),
(74,686,ls),
(74,655,ls)
);
},
{
closed = 1;
nodes = (
(373,836,o),
(394,853,o),
(394,876,c),
(394,899,o),
(373,916,o),
(331,916,c),
(292,916,o),
(270,899,o),
(270,876,c),
(270,853,o),
(292,836,o),
(331,836,c)
);
}
);
};
layerId = "B29C398E-974A-40D0-A0A0-00935056D4B4";
shapes = (
{
ref = I;
},
{
pos = (164,-124);
ref = dotaccentcomb;
}
);
width = 661;
},
{
background = {
anchors = (
{
name = bottom;
pos = (205,0);
},
{
name = ogonek;
pos = (209,0);
},
{
name = top;
pos = (206,686);
}
);
shapes = (
{
closed = 1;
nodes = (
(222,18,l),
(222,672,l),
(189,672,l),
(189,18,l)
);
},
{
closed = 1;
nodes = (
(371,0,l),
(371,31,l),
(40,31,l),
(40,0,l)
);
},
{
closed = 1;
nodes = (
(371,655,l),
(371,686,l),
(40,686,l),
(40,655,l)
);
},
{
closed = 1;
nodes = (
(238,825,o),
(259,841,o),
(259,864,c),
(259,887,o),
(238,905,o),
(206,905,c),
(176,905,o),
(154,887,o),
(154,864,c),
(154,841,o),
(176,825,o),
(206,825,c)
);
}
);
};
layerId = "543F9737-16F7-428D-9F96-2EBD9FC8D3B6";
shapes = (
{
ref = I;
},
{
pos = (75,-138);
ref = dotaccentcomb;
}
);
width = 411;
},
{
background = {
anchors = (
{
name = bottom;
pos = (229,0);
},
{
name = ogonek;
pos = (278,0);
},
{
name = top;
pos = (229,686);
}
);
shapes = (
{
closed = 1;
nodes = (
(307,75,l),
(307,613,l),
(145,613,l),
(145,75,l)
);
},
{
closed = 1;
nodes = (
(420,0,l),
(420,127,l),
(33,127,l),
(33,0,l)
);
},
{
closed = 1;
nodes = (
(420,559,l),
(420,686,l),
(33,686,l),
(33,559,l)
);
},
{
closed = 1;
nodes = (
(288,759,o),
(329,792,o),
(329,836,c),
(329,883,o),
(288,916,o),
(230,916,c),
(176,916,o),
(133,883,o),
(133,836,c),
(133,792,o),
(176,759,o),
(230,759,c)
);
}
);
};
layerId = "EB38A4D2-CD30-49BA-8E45-1F04A566FFE8";
shapes = (
{
ref = I;
},
{
pos = (69,0);
ref = dotaccentcomb;
}
);
width = 453;
},
{
background = {
anchors = (
{
name = bottom;
pos = (350,0);
},
{
name = ogonek;
pos = (385,0);
},
{
name = top;
pos = (352,686);
}
);
shapes = (
{
closed = 1;
nodes = (
(442,85,ls),
(442,598,ls),
(257,598,ls),
(257,85,ls)
);
},
{
closed = 1;
nodes = (
(639,0,ls),
(639,144,ls),
(60,144,ls),
(60,0,ls)
);
},
{
closed = 1;
nodes = (
(639,542,ls),
(639,686,ls),
(60,686,ls),
(60,542,ls)
);
},
{
closed = 1;
nodes = (
(424,775,o),
(469,811,o),
(469,859,c),
(469,909,o),
(424,945,o),
(353,945,c),
(283,945,o),
(236,909,o),
(236,859,c),
(236,811,o),
(283,775,o),
(353,775,c)
);
}
);
};
layerId = "816E4B99-7363-45E2-A2DF-0C5A75075B59";
shapes = (
{
ref = I;
},
{
pos = (161,30);
ref = dotaccentcomb;
}
);
width = 698;
}
);
unicode = 304;
},
{
glyphname = Igrave;
kernLeft = H;
kernRight = H;
lastChange = "2023-05-31 13:55:09 +0000";
layers = (
{
background = {
anchors = (
{
name = bottom;
pos = (331,0);
},
{
name = ogonek;
pos = (347,0);
},
{
name = top;
pos = (331,686);
}
);
shapes = (
{
closed = 1;
nodes = (
(348,18,ls),
(348,669,ls),
(315,669,ls),
(315,18,ls)
);
},
{
closed = 1;
nodes = (
(587,0,ls),
(587,31,ls),
(74,31,ls),
(74,0,ls)
);
},
{
closed = 1;
nodes = (
(587,655,ls),
(587,686,ls),
(74,686,ls),
(74,655,ls)
);
},
{
closed = 1;
nodes = (
(409,771,l),
(91,942,l),
(111,978,l),
(421,792,l)
);
}
);
};
layerId = "B29C398E-974A-40D0-A0A0-00935056D4B4";
shapes = (
{
ref = I;
},
{
pos = (25,0);
ref = gravecomb;
}
);
width = 661;
},
{
background = {
anchors = (
{
name = bottom;
pos = (205,0);
},
{
name = ogonek;
pos = (209,0);
},
{
name = top;
pos = (206,686);
}
);
shapes = (
{
closed = 1;
nodes = (
(222,18,l),
(222,672,l),
(189,672,l),
(189,18,l)
);
},
{
closed = 1;
nodes = (
(371,0,l),
(371,31,l),
(40,31,l),
(40,0,l)
);
},
{
closed = 1;
nodes = (
(371,655,l),
(371,686,l),
(40,686,l),
(40,655,l)
);
},
{
closed = 1;
nodes = (
(230,763,l),
(10,943,l),
(35,971,l),
(246,779,l)
);
}
);
};
layerId = "543F9737-16F7-428D-9F96-2EBD9FC8D3B6";
shapes = (
{
ref = I;
},
{
pos = (-82,0);
ref = gravecomb;
}
);
width = 411;
},
{
background = {
anchors = (
{
name = bottom;
pos = (229,0);
},
{
name = ogonek;
pos = (278,0);
},
{
name = top;
pos = (229,686);
}
);
shapes = (
{
closed = 1;
nodes = (
(307,75,l),
(307,613,l),
(145,613,l),
(145,75,l)
);
},
{
closed = 1;
nodes = (
(420,0,l),
(420,127,l),
(33,127,l),
(33,0,l)
);
},
{
closed = 1;
nodes = (
(420,559,l),
(420,686,l),
(33,686,l),
(33,559,l)
);
},
{
closed = 1;
nodes = (
(247,766,l),
(22,887,l),
(98,997,l),
(286,823,l)
);
}
);
};
layerId = "EB38A4D2-CD30-49BA-8E45-1F04A566FFE8";
shapes = (
{
ref = I;
},
{
pos = (-81,20);
ref = gravecomb;
}
);
width = 453;
},
{
background = {
anchors = (
{
name = bottom;
pos = (350,0);
},
{
name = ogonek;
pos = (385,0);
},
{
name = top;
pos = (352,686);
}
);
shapes = (
{
closed = 1;
nodes = (
(442,85,ls),
(442,598,ls),
(257,598,ls),
(257,85,ls)
);
},
{
closed = 1;
nodes = (
(639,0,ls),
(639,144,ls),
(60,144,ls),
(60,0,ls)
);
},
{
closed = 1;
nodes = (
(639,542,ls),
(639,686,ls),
(60,686,ls),
(60,542,ls)
);
},
{
closed = 1;
nodes = (
(445,744,l),
(119,904,l),
(198,1029,l),
(494,810,l)
);
}
);
};
layerId = "816E4B99-7363-45E2-A2DF-0C5A75075B59";
shapes = (
{
ref = I;
},
{
pos = (48,31);
ref = gravecomb;
}
);
width = 698;
}
);
unicode = 204;
},
{
glyphname = Imacron;
kernLeft = H;
kernRight = H;
lastChange = "2023-05-31 13:55:09 +0000";
layers = (
{
background = {
anchors = (
{
name = bottom;
pos = (331,0);
},
{
name = ogonek;
pos = (347,0);
},
{
name = top;
pos = (331,686);
}
);
shapes = (
{
closed = 1;
nodes = (
(348,18,ls),
(348,669,ls),
(315,669,ls),
(315,18,ls)
);
},
{
closed = 1;
nodes = (
(587,0,ls),
(587,31,ls),
(74,31,ls),
(74,0,ls)
);
},
{
closed = 1;
nodes = (
(587,655,ls),
(587,686,ls),
(74,686,ls),
(74,655,ls)
);
},
{
closed = 1;
nodes = (
(9,893,l),
(9,862,l),
(639,862,l),
(639,893,l)
);
}
);
};
layerId = "B29C398E-974A-40D0-A0A0-00935056D4B4";
shapes = (
{
ref = I;
},
{
pos = (-83,0);
ref = macroncomb;
}
);
width = 661;
},
{
background = {
anchors = (
{
name = bottom;
pos = (205,0);
},
{
name = ogonek;
pos = (209,0);
},
{
name = top;
pos = (206,686);
}
);
shapes = (
{
closed = 1;
nodes = (
(222,18,l),
(222,672,l),
(189,672,l),
(189,18,l)
);
},
{
closed = 1;
nodes = (
(371,0,l),
(371,31,l),
(40,31,l),
(40,0,l)
);
},
{
closed = 1;
nodes = (
(371,655,l),
(371,686,l),
(40,686,l),
(40,655,l)
);
},
{
closed = 1;
nodes = (
(13,833,l),
(13,801,l),
(401,801,l),
(401,833,l)
);
}
);
};
layerId = "543F9737-16F7-428D-9F96-2EBD9FC8D3B6";
shapes = (
{
ref = I;
},
{
pos = (-60,-49);
ref = macroncomb;
}
);
width = 411;
},
{
background = {
anchors = (
{
name = bottom;
pos = (229,0);
},
{
name = ogonek;
pos = (278,0);
},
{
name = top;
pos = (229,686);
}
);
shapes = (
{
closed = 1;
nodes = (
(307,75,l),
(307,613,l),
(145,613,l),
(145,75,l)
);
},
{
closed = 1;
nodes = (
(420,0,l),
(420,127,l),
(33,127,l),
(33,0,l)
);
},
{
closed = 1;
nodes = (
(420,559,l),
(420,686,l),
(33,686,l),
(33,559,l)
);
},
{
closed = 1;
nodes = (
(36,887,l),
(36,783,l),
(408,780,l),
(408,884,l)
);
}
);
};
layerId = "EB38A4D2-CD30-49BA-8E45-1F04A566FFE8";
shapes = (
{
ref = I;
},
{
pos = (-34,0);
ref = macroncomb;
}
);
width = 453;
},
{
background = {
anchors = (
{
name = bottom;
pos = (350,0);
},
{
name = ogonek;
pos = (385,0);
},
{
name = top;
pos = (352,686);
}
);
shapes = (
{
closed = 1;
nodes = (
(442,85,ls),
(442,598,ls),
(257,598,ls),
(257,85,ls)
);
},
{
closed = 1;
nodes = (
(639,0,ls),
(639,144,ls),
(60,144,ls),
(60,0,ls)
);
},
{
closed = 1;
nodes = (
(639,542,ls),
(639,686,ls),
(60,686,ls),
(60,542,ls)
);
},
{
closed = 1;
nodes = (
(65,905,l),
(65,786,l),
(629,783,l),
(629,900,l)
);
}
);
};
layerId = "816E4B99-7363-45E2-A2DF-0C5A75075B59";
shapes = (
{
ref = I;
},
{
pos = (-60,-17);
ref = macroncomb;
}
);
width = 698;
}
);
unicode = 298;
},
{
glyphname = Iogonek;
kernLeft = H;
kernRight = H;
lastChange = "2023-05-31 13:55:09 +0000";
layers = (
{
background = {
anchors = (
{
name = bottom;
pos = (331,0);
},
{
name = ogonek;
pos = (347,0);
},
{
name = top;
pos = (331,686);
}
);
shapes = (
{
closed = 1;
nodes = (
(348,18,ls),
(348,669,ls),
(315,669,ls),
(315,18,ls)
);
},
{
closed = 1;
nodes = (
(587,0,ls),
(587,31,ls),
(74,31,ls),
(74,0,ls)
);
},
{
closed = 1;
nodes = (
(587,655,ls),
(587,686,ls),
(74,686,ls),
(74,655,ls)
);
},
{
closed = 1;
nodes = (
(404,-287,o),
(461,-239,o),
(501,-158,c),
(478,-146,l),
(439,-220,o),
(393,-259,o),
(338,-259,cs),
(288,-259,o),
(258,-222,o),
(258,-175,cs),
(258,-115,o),
(306,-41,o),
(347,0,c),
(324,5,l),
(267,-41,o),
(229,-119,o),
(229,-175,cs),
(229,-235,o),
(268,-287,o),
(338,-287,cs)
);
}
);
};
layerId = "B29C398E-974A-40D0-A0A0-00935056D4B4";
shapes = (
{
ref = I;
},
{
pos = (112,0);
ref = ogonekcomb.alt;
}
);
width = 661;
},
{
background = {
anchors = (
{
name = bottom;
pos = (205,0);
},
{
name = ogonek;
pos = (209,0);
},
{
name = top;
pos = (206,686);
}
);
shapes = (
{
closed = 1;
nodes = (
(222,18,l),
(222,672,l),
(189,672,l),
(189,18,l)
);
},
{
closed = 1;
nodes = (
(371,0,l),
(371,31,l),
(40,31,l),
(40,0,l)
);
},
{
closed = 1;
nodes = (
(371,655,l),
(371,686,l),
(40,686,l),
(40,655,l)
);
},
{
closed = 1;
nodes = (
(248,-290,o),
(290,-249,o),
(314,-185,c),
(289,-174,l),
(271,-216,o),
(243,-260,o),
(193,-260,cs),
(151,-260,o),
(122,-224,o),
(122,-172,cs),
(122,-122,o),
(147,-54,o),
(209,0,c),
(186,5,l),
(119,-51,o),
(92,-119,o),
(92,-176,cs),
(92,-240,o),
(130,-290,o),
(191,-290,cs)
);
}
);
};
layerId = "543F9737-16F7-428D-9F96-2EBD9FC8D3B6";
shapes = (
{
ref = I;
},
{
pos = (10,0);
ref = ogonekcomb.alt;
}
);
width = 411;
},
{
background = {
anchors = (
{
name = bottom;
pos = (229,0);
},
{
name = ogonek;
pos = (278,0);
},
{
name = top;
pos = (229,686);
}
);
shapes = (
{
closed = 1;
nodes = (
(307,75,l),
(307,613,l),
(145,613,l),
(145,75,l)
);
},
{
closed = 1;
nodes = (
(420,0,l),
(420,127,l),
(33,127,l),
(33,0,l)
);
},
{
closed = 1;
nodes = (
(420,559,l),
(420,686,l),
(33,686,l),
(33,559,l)
);
},
{
closed = 1;
nodes = (
(318,-276,o),
(374,-242,o),
(415,-187,c),
(346,-113,l),
(332,-135,o),
(308,-159,o),
(278,-159,cs),
(253,-159,o),
(235,-144,o),
(235,-112,cs),
(235,-82,o),
(248,-43,o),
(278,0,c),
(179,5,l),
(157,-24,o),
(125,-77,o),
(125,-150,cs),
(125,-226,o),
(186,-276,o),
(260,-276,cs)
);
}
);
};
layerId = "EB38A4D2-CD30-49BA-8E45-1F04A566FFE8";
shapes = (
{
ref = I;
},
{
pos = (73,0);
ref = ogonekcomb.alt;
}
);
width = 453;
},
{
background = {
anchors = (
{
name = bottom;
pos = (350,0);
},
{
name = ogonek;
pos = (385,0);
},
{
name = top;
pos = (352,686);
}
);
shapes = (
{
closed = 1;
nodes = (
(442,85,ls),
(442,598,ls),
(257,598,ls),
(257,85,ls)
);
},
{
closed = 1;
nodes = (
(639,0,ls),
(639,144,ls),
(60,144,ls),
(60,0,ls)
);
},
{
closed = 1;
nodes = (
(639,542,ls),
(639,686,ls),
(60,686,ls),
(60,542,ls)
);
},
{
closed = 1;
nodes = (
(410,-302,o),
(486,-257,o),
(535,-175,c),
(436,-111,l),
(412,-142,o),
(385,-173,o),
(349,-173,cs),
(319,-173,o),
(305,-153,o),
(305,-127,cs),
(305,-95,o),
(338,-48,o),
(385,0,c),
(276,5,l),
(221,-30,o),
(176,-99,o),
(176,-167,cs),
(176,-246,o),
(240,-302,o),
(330,-302,cs)
);
}
);
};
layerId = "816E4B99-7363-45E2-A2DF-0C5A75075B59";
shapes = (
{
ref = I;
},
{
pos = (142,0);
ref = ogonekcomb.alt;
}
);
width = 698;
}
);
unicode = 302;
},
{
glyphname = J;
kernLeft = J;
kernRight = U;
lastChange = "2023-05-31 13:55:09 +0000";
layers = (
{
anchors = (
{
name = bottom;
pos = (327,-14);
},
{
name = top;
pos = (572,686);
}
);
background = {
anchors = (
{
name = bottom;
pos = (327,-14);
},
{
name = top;
pos = (572,686);
}
);
shapes = (
{
closed = 1;
nodes = (
(503,-13,o),
(622,86,o),
(622,245,cs),
(622,669,l),
(589,669,l),
(589,245,ls),
(589,90,o),
(469,18,o),
(329,18,cs),
(196,18,o),
(101,95,o),
(48,167,c),
(26,146,l),
(78,73,o),
(173,-13,o),
(329,-13,cs)
);
},
{
closed = 1;
nodes = (
(862,655,l),
(862,686,l),
(272,686,l),
(272,655,l)
);
}
);
};
layerId = "B29C398E-974A-40D0-A0A0-00935056D4B4";
shapes = (
{
closed = 1;
nodes = (
(503,-13,o),
(622,86,o),
(622,245,cs),
(622,669,l),
(589,669,l),
(589,245,ls),
(589,90,o),
(469,18,o),
(329,18,cs),
(196,18,o),
(101,95,o),
(48,167,c),
(26,146,l),
(78,73,o),
(173,-13,o),
(329,-13,cs)
);
},
{
closed = 1;
nodes = (
(862,655,l),
(862,686,l),
(272,686,l),
(272,655,l)
);
}
);
width = 862;
},
{
anchors = (
{
name = bottom;
pos = (231,-14);
},
{
name = top;
pos = (399,686);
}
);
background = {
anchors = (
{
name = bottom;
pos = (231,-14);
},
{
name = top;
pos = (399,686);
}
);
shapes = (
{
closed = 1;
nodes = (
(352,-13,o),
(438,72,o),
(438,223,cs),
(438,669,l),
(405,669,l),
(405,217,ls),
(405,85,o),
(330,18,o),
(230,18,cs),
(141,18,o),
(72,61,o),
(26,97,c),
(7,70,l),
(57,32,o),
(132,-13,o),
(230,-13,cs)
);
},
{
closed = 1;
nodes = (
(587,655,l),
(587,686,l),
(213,686,l),
(213,655,l)
);
}
);
};
layerId = "543F9737-16F7-428D-9F96-2EBD9FC8D3B6";
shapes = (
{
closed = 1;
nodes = (
(352,-13,o),
(438,72,o),
(438,223,cs),
(438,669,l),
(405,669,l),
(405,217,ls),
(405,85,o),
(330,18,o),
(230,18,cs),
(141,18,o),
(72,61,o),
(26,97,c),
(7,70,l),
(57,32,o),
(132,-13,o),
(230,-13,cs)
);
},
{
closed = 1;
nodes = (
(587,655,l),
(587,686,l),
(213,686,l),
(213,655,l)
);
}
);
width = 594;
},
{
anchors = (
{
name = bottom;
pos = (204,-14);
},
{
name = top;
pos = (345,686);
}
);
background = {
anchors = (
{
name = bottom;
pos = (204,-14);
},
{
name = top;
pos = (345,686);
}
);
shapes = (
{
closed = 1;
nodes = (
(338,-13,o),
(449,72,o),
(449,223,cs),
(449,618,l),
(285,618,l),
(287,231,ls),
(287,150,o),
(250,122,o),
(196,118,cs),
(151,115,o),
(101,143,o),
(68,167,c),
(2,57,l),
(42,19,o),
(118,-13,o),
(204,-13,cs)
);
},
{
closed = 1;
nodes = (
(557,559,l),
(557,686,l),
(117,686,l),
(117,559,l)
);
}
);
};
layerId = "EB38A4D2-CD30-49BA-8E45-1F04A566FFE8";
shapes = (
{
closed = 1;
nodes = (
(338,-13,o),
(449,72,o),
(449,223,cs),
(449,618,l),
(285,618,l),
(287,231,ls),
(287,150,o),
(250,122,o),
(196,118,cs),
(151,115,o),
(101,143,o),
(68,167,c),
(2,57,l),
(42,19,o),
(118,-13,o),
(204,-13,cs)
);
},
{
closed = 1;
nodes = (
(557,559,l),
(557,686,l),
(117,686,l),
(117,559,l)
);
}
);
width = 564;
},
{
anchors = (
{
name = bottom;
pos = (344,-14);
},
{
name = top;
pos = (511,686);
}
);
background = {
anchors = (
{
name = bottom;
pos = (344,-14);
},
{
name = top;
pos = (511,686);
}
);
shapes = (
{
closed = 1;
nodes = (
(555,-13,o),
(649,112,o),
(649,266,cs),
(649,609,l),
(463,609,l),
(463,263,ls),
(463,183,o),
(420,136,o),
(342,136,cs),
(263,136,o),
(194,167,o),
(123,218,c),
(35,90,l),
(130,27,o),
(235,-13,o),
(344,-13,cs)
);
},
{
closed = 1;
nodes = (
(819,542,l),
(819,686,l),
(203,686,l),
(203,542,l)
);
}
);
};
layerId = "816E4B99-7363-45E2-A2DF-0C5A75075B59";
shapes = (
{
closed = 1;
nodes = (
(555,-13,o),
(649,112,o),
(649,266,cs),
(649,609,l),
(463,609,l),
(463,263,ls),
(463,183,o),
(420,136,o),
(342,136,cs),
(263,136,o),
(194,167,o),
(123,218,c),
(35,90,l),
(130,27,o),
(235,-13,o),
(344,-13,cs)
);
},
{
closed = 1;
nodes = (
(819,542,l),
(819,686,l),
(203,686,l),
(203,542,l)
);
}
);
width = 830;
}
);
metricRight = "=U";
unicode = 74;
},
{
glyphname = K;
kernLeft = H;
kernRight = X;
lastChange = "2023-05-31 13:55:09 +0000";
layers = (
{
anchors = (
{
name = bottom;
pos = (693,0);
},
{
name = top;
pos = (693,686);
}
);
background = {
anchors = (
{
name = bottom;
pos = (693,0);
},
{
name = top;
pos = (693,686);
}
);
shapes = (
{
closed = 1;
nodes = (
(1088,669,l),
(1035,669,l),
(330,206,l),
(330,171,l)
);
},
{
closed = 1;
nodes = (
(587,0,ls),
(587,31,ls),
(74,31,ls),
(74,0,ls)
);
},
{
closed = 1;
nodes = (
(348,18,ls),
(348,669,ls),
(315,669,ls),
(315,18,ls)
);
},
{
closed = 1;
nodes = (
(587,655,ls),
(587,686,ls),
(74,686,ls),
(74,655,ls)
);
},
{
closed = 1;
nodes = (
(1269,0,ls),
(1269,31,ls),
(805,31,ls),
(805,0,ls)
);
},
{
closed = 1;
nodes = (
(1096,13,l),
(635,388,l),
(614,367,l),
(1049,13,l)
);
},
{
closed = 1;
nodes = (
(1256,655,ls),
(1256,686,ls),
(792,686,ls),
(792,655,ls)
);
}
);
};
layerId = "B29C398E-974A-40D0-A0A0-00935056D4B4";
shapes = (
{
closed = 1;
nodes = (
(1088,669,l),
(1035,669,l),
(330,206,l),
(330,171,l)
);
},
{
closed = 1;
nodes = (
(587,0,ls),
(587,31,ls),
(74,31,ls),
(74,0,ls)
);
},
{
closed = 1;
nodes = (
(348,18,ls),
(348,669,ls),
(315,669,ls),
(315,18,ls)
);
},
{
closed = 1;
nodes = (
(587,655,ls),
(587,686,ls),
(74,686,ls),
(74,655,ls)
);
},
{
closed = 1;
nodes = (
(1269,0,ls),
(1269,31,ls),
(805,31,ls),
(805,0,ls)
);
},
{
closed = 1;
nodes = (
(1096,13,l),
(635,388,l),
(614,367,l),
(1049,13,l)
);
},
{
closed = 1;
nodes = (
(1256,655,ls),
(1256,686,ls),
(792,686,ls),
(792,655,ls)
);
}
);
width = 1316;
},
{
anchors = (
{
name = bottom;
pos = (457,0);
},
{
name = top;
pos = (457,686);
}
);
background = {
anchors = (
{
name = bottom;
pos = (457,0);
},
{
name = top;
pos = (457,686);
}
);
shapes = (
{
closed = 1;
nodes = (
(744,669,l),
(700,669,l),
(205,222,l),
(205,185,l)
);
},
{
closed = 1;
nodes = (
(371,0,ls),
(371,31,ls),
(40,31,ls),
(40,0,ls)
);
},
{
closed = 1;
nodes = (
(222,18,ls),
(222,669,ls),
(189,669,ls),
(189,18,ls)
);
},
{
closed = 1;
nodes = (
(840,0,ls),
(840,31,ls),
(548,31,ls),
(548,0,ls)
);
},
{
closed = 1;
nodes = (
(741,13,l),
(421,402,l),
(396,381,l),
(700,13,l)
);
},
{
closed = 1;
nodes = (
(371,655,ls),
(371,686,ls),
(40,686,ls),
(40,655,ls)
);
},
{
closed = 1;
nodes = (
(827,655,ls),
(827,686,ls),
(535,686,ls),
(535,655,ls)
);
}
);
};
layerId = "543F9737-16F7-428D-9F96-2EBD9FC8D3B6";
shapes = (
{
closed = 1;
nodes = (
(744,669,l),
(700,669,l),
(205,222,l),
(205,185,l)
);
},
{
closed = 1;
nodes = (
(371,0,ls),
(371,31,ls),
(40,31,ls),
(40,0,ls)
);
},
{
closed = 1;
nodes = (
(222,18,ls),
(222,669,ls),
(189,669,ls),
(189,18,ls)
);
},
{
closed = 1;
nodes = (
(840,0,ls),
(840,31,ls),
(548,31,ls),
(548,0,ls)
);
},
{
closed = 1;
nodes = (
(741,13,l),
(421,402,l),
(396,381,l),
(700,13,l)
);
},
{
closed = 1;
nodes = (
(371,655,ls),
(371,686,ls),
(40,686,ls),
(40,655,ls)
);
},
{
closed = 1;
nodes = (
(827,655,ls),
(827,686,ls),
(535,686,ls),
(535,655,ls)
);
}
);
width = 854;
},
{
anchors = (
{
name = bottom;
pos = (462,0);
},
{
name = top;
pos = (453,686);
}
);
background = {
anchors = (
{
name = bottom;
pos = (462,0);
},
{
name = top;
pos = (453,686);
}
);
shapes = (
{
closed = 1;
nodes = (
(794,583,l),
(615,583,l),
(212,260,l),
(213,117,l)
);
},
{
closed = 1;
nodes = (
(409,0,ls),
(409,127,ls),
(33,127,ls),
(33,0,ls)
);
},
{
closed = 1;
nodes = (
(307,70,ls),
(307,613,ls),
(145,613,ls),
(145,70,ls)
);
},
{
closed = 1;
nodes = (
(857,0,ls),
(857,127,ls),
(510,127,ls),
(510,0,ls)
);
},
{
closed = 1;
nodes = (
(820,95,l),
(495,440,l),
(370,364,l),
(615,95,l)
);
},
{
closed = 1;
nodes = (
(409,559,ls),
(409,686,ls),
(33,686,ls),
(33,559,ls)
);
},
{
closed = 1;
nodes = (
(850,559,ls),
(850,686,ls),
(505,686,ls),
(505,559,ls)
);
}
);
};
layerId = "EB38A4D2-CD30-49BA-8E45-1F04A566FFE8";
shapes = (
{
closed = 1;
nodes = (
(794,583,l),
(615,583,l),
(212,260,l),
(213,117,l)
);
},
{
closed = 1;
nodes = (
(409,0,ls),
(409,127,ls),
(33,127,ls),
(33,0,ls)
);
},
{
closed = 1;
nodes = (
(307,70,ls),
(307,613,ls),
(145,613,ls),
(145,70,ls)
);
},
{
closed = 1;
nodes = (
(857,0,ls),
(857,127,ls),
(510,127,ls),
(510,0,ls)
);
},
{
closed = 1;
nodes = (
(820,95,l),
(495,440,l),
(370,364,l),
(615,95,l)
);
},
{
closed = 1;
nodes = (
(409,559,ls),
(409,686,ls),
(33,686,ls),
(33,559,ls)
);
},
{
closed = 1;
nodes = (
(850,559,ls),
(850,686,ls),
(505,686,ls),
(505,559,ls)
);
}
);
width = 864;
},
{
anchors = (
{
name = bottom;
pos = (685,0);
},
{
name = top;
pos = (667,686);
}
);
background = {
anchors = (
{
name = bottom;
pos = (685,0);
},
{
name = top;
pos = (667,686);
}
);
shapes = (
{
closed = 1;
nodes = (
(1129,552,l),
(1030,622,l),
(278,241,l),
(377,171,l)
);
},
{
closed = 1;
nodes = (
(627,0,ls),
(627,144,ls),
(60,144,ls),
(60,0,ls)
);
},
{
closed = 1;
nodes = (
(440,79,ls),
(440,603,ls),
(257,603,ls),
(257,79,ls)
);
},
{
closed = 1;
nodes = (
(627,542,ls),
(627,686,ls),
(60,686,ls),
(60,542,ls)
);
},
{
closed = 1;
nodes = (
(1268,0,ls),
(1268,144,ls),
(740,144,ls),
(740,0,ls)
);
},
{
closed = 1;
nodes = (
(1171,111,l),
(786,416,l),
(601,366,l),
(986,61,l)
);
},
{
closed = 1;
nodes = (
(1247,542,ls),
(1247,686,ls),
(720,686,ls),
(720,542,ls)
);
}
);
};
layerId = "816E4B99-7363-45E2-A2DF-0C5A75075B59";
shapes = (
{
closed = 1;
nodes = (
(1129,552,l),
(1030,622,l),
(278,241,l),
(377,171,l)
);
},
{
closed = 1;
nodes = (
(627,0,ls),
(627,144,ls),
(60,144,ls),
(60,0,ls)
);
},
{
closed = 1;
nodes = (
(440,79,ls),
(440,603,ls),
(257,603,ls),
(257,79,ls)
);
},
{
closed = 1;
nodes = (
(627,542,ls),
(627,686,ls),
(60,686,ls),
(60,542,ls)
);
},
{
closed = 1;
nodes = (
(1268,0,ls),
(1268,144,ls),
(740,144,ls),
(740,0,ls)
);
},
{
closed = 1;
nodes = (
(1171,111,l),
(786,416,l),
(601,366,l),
(986,61,l)
);
},
{
closed = 1;
nodes = (
(1247,542,ls),
(1247,686,ls),
(720,686,ls),
(720,542,ls)
);
}
);
width = 1271;
}
);
metricLeft = "=H";
unicode = 75;
},
